 <svg version="1.0" xmlns="http://www.w3.org/2000/svg" width="700.000000pt" height="497.000000pt" viewBox="0 0 700.000000 497.000000" preserveAspectRatio="xMidYMid meet">
<metadata>
Created by potrace 1.12, written by Peter Selinger 2001-2015
</metadata>
<g transform="translate(0.000000,497.000000) scale(0.100000,-0.100000)" fill="#000000" stroke="none">
<path d="M2698 4661 c-75 -25 -116 -51 -172 -111 -69 -74 -99 -146 -104 -251
-5 -101 12 -171 58 -241 l32 -48 -40 -47 c-65 -78 -267 -384 -317 -482 -55
-107 -100 -171 -119 -171 -7 0 -19 14 -26 30 -7 17 -28 56 -47 88 -19 31 -44
80 -54 107 -11 28 -41 81 -67 119 -40 57 -55 71 -97 87 -44 17 -56 18 -98 7
-27 -7 -53 -20 -58 -30 -5 -10 -16 -18 -24 -18 -8 0 -19 -10 -26 -21 -9 -18
-7 -26 9 -48 68 -86 352 -572 352 -600 0 -7 -7 -26 -16 -43 -14 -28 -14 -32 0
-46 14 -14 16 -14 22 1 3 9 9 17 13 17 12 0 71 -87 71 -104 0 -22 -62 -146
-73 -146 -6 0 -20 -11 -32 -24 -18 -19 -20 -26 -9 -30 24 -9 16 -25 -21 -40
-25 -11 -33 -19 -29 -31 6 -16 -45 -125 -59 -125 -4 0 0 16 8 36 18 43 18 44
5 44 -5 0 -10 -6 -10 -13 0 -7 -6 -22 -14 -32 -11 -16 -17 -17 -29 -7 -12 10
-16 8 -21 -12 -3 -13 -9 -31 -12 -39 -4 -12 0 -14 14 -10 15 3 21 -2 26 -21 5
-19 -6 -51 -39 -120 -25 -52 -45 -103 -45 -113 0 -10 -12 -40 -25 -68 l-25
-50 6 40 c10 65 9 74 -1 76 -16 2 -64 -155 -82 -266 -22 -136 -37 -147 -29
-21 7 113 15 147 77 306 47 118 60 160 55 168 -3 5 4 16 15 25 21 19 25 52 7
63 -15 10 -38 -24 -38 -57 0 -15 -4 -30 -9 -34 -5 -3 -12 -18 -15 -33 l-6 -27
-138 3 c-75 1 -147 5 -159 7 l-23 5 0 230 0 229 133 3 132 3 3 78 3 77 -136 0
-135 0 0 220 0 220 150 0 150 0 0 80 0 80 -245 0 -245 0 0 -690 0 -690 220 0
c176 0 222 -3 226 -13 3 -8 -5 -47 -16 -88 -30 -104 -38 -277 -17 -350 22 -73
69 -139 101 -139 l24 0 -6 108 c-4 85 -1 114 11 138 8 16 21 58 28 93 13 67
71 215 94 241 7 8 27 49 43 90 17 41 54 127 82 190 29 63 57 129 64 145 12 32
31 63 77 132 16 23 29 46 29 52 0 6 7 11 15 11 16 0 19 -3 164 -225 102 -155
205 -281 306 -373 79 -73 185 -125 185 -91 0 5 -26 45 -58 87 -59 77 -92 132
-92 152 0 6 -23 51 -51 100 -37 67 -56 90 -70 90 -15 0 -19 5 -15 18 4 10 -4
38 -18 63 -69 131 -89 164 -106 187 -11 14 -20 28 -20 33 0 4 -23 56 -50 115
-52 110 -54 128 -20 159 11 10 20 22 20 27 0 5 18 35 40 65 22 31 40 60 40 65
0 9 234 363 300 454 24 32 61 78 82 102 21 23 43 53 48 66 8 23 14 24 92 25
166 0 299 84 366 229 35 77 43 214 16 298 -33 105 -128 205 -234 245 -79 30
-199 35 -272 10z m260 -90 c62 -32 120 -87 150 -145 24 -45 27 -62 27 -151 0
-85 -3 -106 -23 -143 -55 -104 -150 -168 -265 -179 -127 -11 -247 53 -311 167
-29 51 -31 62 -31 155 0 85 3 106 23 142 43 82 107 138 191 170 55 20 185 12
239 -16z m-658 -1058 c-1 -10 -36 -53 -44 -53 -4 0 0 14 9 30 14 27 35 41 35
23z m-68 -121 c-10 -15 -35 -57 -56 -94 -36 -66 -52 -85 -63 -74 -6 6 59 127
94 174 29 38 52 33 25 -6z m-21 -641 c22 -25 60 -113 56 -130 -2 -11 -9 -4
-19 20 -9 21 -22 41 -30 45 -26 16 -88 128 -88 159 0 28 2 26 35 -25 19 -30
39 -61 46 -69z m267 -481 c42 -52 85 -103 96 -112 11 -9 18 -19 15 -23 -10 -9
-211 197 -226 232 -7 18 -13 36 -13 39 0 14 52 -42 128 -136z"></path>
<path d="M4870 4665 c-112 -32 -206 -110 -257 -213 -26 -52 -28 -66 -28 -172
0 -104 3 -121 27 -173 38 -80 115 -158 191 -193 58 -27 70 -29 187 -29 119 0
128 2 190 31 62 29 140 91 140 110 0 5 -12 17 -25 27 -25 18 -26 18 -68 -17
-77 -63 -129 -81 -237 -81 -78 0 -103 4 -141 23 -70 34 -125 87 -156 150 -24
50 -28 69 -28 147 0 78 4 97 28 147 31 63 84 115 156 150 38 19 62 23 141 23
111 0 161 -18 232 -84 l44 -40 28 23 c25 19 27 25 18 43 -17 31 -105 92 -165
115 -70 27 -204 33 -277 13z"></path>
<path d="M1070 4274 l0 -385 38 3 37 3 3 178 2 177 90 0 c107 0 178 14 222 43
100 68 114 206 31 298 -51 56 -103 69 -280 69 l-143 0 0 -386z m323 292 c96
-40 92 -194 -6 -225 -36 -12 -96 -16 -179 -13 l-58 2 0 125 0 125 105 0 c67 0
118 -5 138 -14z"></path>
<path d="M1760 4274 l0 -385 38 3 37 3 3 178 c2 164 4 177 21 177 12 0 67 -63
157 -180 l139 -180 43 0 c33 0 43 3 39 14 -3 7 -62 87 -132 177 l-127 164 49
6 c80 10 119 28 157 69 73 81 73 189 -1 271 -51 56 -103 69 -280 69 l-143 0 0
-386z m347 280 c15 -11 34 -39 42 -61 13 -35 13 -46 0 -78 -8 -21 -25 -46 -39
-57 -33 -24 -130 -39 -207 -32 l-63 7 0 124 0 125 119 -4 c102 -3 124 -6 148
-24z"></path>
<path d="M3678 4348 c-3 -330 -5 -342 -52 -380 -32 -27 -82 -22 -148 15 l-59
32 -19 -25 c-11 -14 -20 -28 -20 -33 0 -15 93 -66 138 -76 84 -17 158 8 205
71 28 37 38 173 35 463 l-3 240 -37 3 -36 3 -4 -313z"></path>
<path d="M3990 4275 l0 -385 214 0 214 0 4 35 c2 20 2 38 -1 40 -2 3 -82 5
-178 5 l-173 0 0 150 0 150 178 2 177 3 0 35 0 35 -177 3 -178 2 0 115 0 115
178 2 177 3 3 38 3 37 -220 0 -221 0 0 -385z"></path>
<path d="M5452 4623 l3 -38 82 -3 83 -3 2 -342 3 -342 38 -3 37 -3 0 345 0
346 85 0 85 0 0 40 0 40 -211 0 -210 0 3 -37z"></path>
<path d="M2919 3537 c-83 -24 -133 -71 -178 -167 -54 -117 -66 -211 -65 -515
0 -286 13 -408 55 -522 47 -125 139 -192 273 -201 183 -11 287 75 336 279 45
191 48 612 5 825 -42 205 -139 302 -310 310 -38 2 -91 -2 -116 -9z m172 -180
c69 -47 89 -162 89 -522 0 -376 -20 -478 -103 -519 -77 -37 -153 6 -181 105
-47 164 -48 685 -1 844 29 102 119 144 196 92z"></path>
<path d="M5567 3536 c-135 -50 -207 -167 -207 -337 0 -157 36 -223 232 -426
118 -122 148 -177 148 -271 0 -76 -17 -119 -59 -155 -47 -39 -126 -38 -207 3
-32 16 -62 30 -66 30 -5 0 -8 -40 -8 -89 0 -84 2 -91 26 -110 41 -33 94 -46
184 -46 73 0 93 4 142 28 67 33 111 80 147 157 22 46 27 72 29 162 5 134 -11
190 -76 284 -27 38 -96 119 -154 180 -125 133 -143 165 -143 255 0 57 4 71 28
102 16 21 40 45 54 54 39 26 109 21 171 -11 63 -32 64 -30 60 80 l-3 79 -40
19 c-52 25 -203 32 -258 12z"></path>
<path d="M3610 2841 l0 -691 148 0 c273 0 372 48 446 212 39 86 57 198 63 388
9 269 -19 476 -78 592 -30 59 -96 126 -154 156 -48 25 -58 27 -237 30 l-188 4
0 -691z m315 510 c49 -22 79 -54 100 -105 60 -143 71 -583 19 -768 -25 -86
-78 -141 -156 -158 -96 -22 -88 -71 -88 525 l0 525 43 0 c23 0 60 -9 82 -19z"></path>
<path d="M4510 2972 c0 -608 2 -639 54 -724 47 -78 113 -111 232 -116 165 -8
259 40 306 156 23 57 23 58 26 650 l3 592 -91 0 -90 0 0 -560 c0 -602 0 -608
-51 -644 -14 -10 -44 -16 -75 -16 -64 0 -108 32 -124 88 -6 23 -10 242 -10
585 l0 547 -90 0 -90 0 0 -558z"></path>
<path d="M1811 2843 c-23 -47 -43 -94 -44 -105 -2 -10 -10 -24 -19 -31 -14
-12 -98 -204 -98 -226 0 -6 8 -11 18 -11 13 0 25 17 42 58 13 31 47 108 77
171 29 63 51 116 48 119 -3 3 0 11 7 19 6 8 12 24 13 36 1 12 5 30 10 40 4 9
3 17 -3 17 -5 0 -28 -39 -51 -87z"></path>
<path d="M1926 2841 c-4 -7 -5 -15 -2 -18 9 -9 19 4 14 18 -4 11 -6 11 -12 0z"></path>
<path d="M1872 2828 c-14 -14 -16 -42 -3 -34 7 5 23 46 17 46 -1 0 -7 -5 -14
-12z"></path>
<path d="M1837 2753 c-4 -3 -7 -11 -7 -17 0 -6 5 -5 12 2 6 6 9 14 7 17 -3 3
-9 2 -12 -2z"></path>
<path d="M1815 2710 c-3 -5 -1 -10 4 -10 6 0 11 5 11 10 0 6 -2 10 -4 10 -3 0
-8 -4 -11 -10z"></path>
<path d="M1766 2614 c-9 -24 -7 -28 9 -14 17 14 20 30 6 30 -5 0 -12 -7 -15
-16z"></path>
<path d="M1696 2353 c-6 -14 -5 -15 5 -6 7 7 10 15 7 18 -3 3 -9 -2 -12 -12z"></path>
<path d="M1647 2334 c-4 -4 -7 -14 -7 -23 0 -11 3 -12 11 -4 6 6 10 16 7 23
-2 6 -7 8 -11 4z"></path>
<path d="M2673 1055 c-18 -37 -32 -54 -41 -50 -8 3 -26 5 -42 5 -25 0 -29 3
-27 27 3 41 -35 44 -59 6 -10 -15 -19 -30 -21 -32 -2 -3 -33 -8 -70 -13 -72
-8 -89 -18 -80 -42 5 -12 20 -16 57 -16 27 0 50 -4 50 -9 0 -4 -16 -43 -36
-85 -48 -104 -78 -223 -62 -245 35 -47 79 -54 122 -20 24 19 27 19 42 5 31
-31 52 -19 83 47 29 62 100 142 120 136 6 -2 -2 -31 -19 -69 -36 -80 -37 -94
-5 -125 33 -34 52 -31 92 11 l34 36 19 -25 c11 -14 36 -31 56 -37 31 -11 41
-9 89 15 58 28 172 145 160 164 -3 6 -38 -16 -78 -50 -88 -74 -119 -91 -160
-87 -29 3 -32 6 -28 33 4 42 8 45 51 45 49 0 82 13 110 42 33 35 62 97 55 119
-8 25 -55 49 -96 49 -38 0 -87 -48 -154 -150 -23 -36 -57 -78 -74 -95 l-32
-30 42 83 42 83 -23 24 c-33 35 -76 33 -123 -6 -37 -31 -62 -34 -38 -5 7 8 30
52 52 98 22 46 52 97 65 115 28 36 25 77 -6 93 -32 17 -39 12 -67 -45z m-53
-100 c0 -3 -8 -22 -18 -43 -11 -20 -32 -73 -48 -117 -20 -58 -41 -93 -73 -127
-47 -51 -81 -62 -81 -28 0 53 101 277 138 308 15 12 82 17 82 7z m400 -141 c0
-22 -58 -74 -83 -74 -18 0 -15 7 23 45 47 48 60 54 60 29z m34 -29 c-4 -8 -11
-15 -16 -15 -6 0 -5 6 2 15 7 8 14 15 16 15 2 0 1 -7 -2 -15z"></path>
<path d="M1095 1037 c-26 -30 -38 -35 -95 -41 -72 -7 -90 -17 -70 -41 8 -10
29 -15 61 -15 27 0 49 -2 49 -5 0 -3 -18 -44 -39 -92 -22 -49 -43 -100 -46
-116 -7 -28 -69 -88 -118 -113 -16 -9 -43 -14 -60 -12 -29 3 -32 6 -28 33 4
42 7 45 53 45 55 0 102 24 132 70 39 60 42 85 12 114 -38 39 -96 36 -140 -7
-23 -23 -52 -38 -97 -51 -59 -16 -67 -16 -109 -1 -25 9 -73 19 -107 22 -109
10 -106 24 20 110 64 44 74 48 130 48 33 0 62 5 63 10 8 24 -47 65 -86 65 -37
0 -140 -62 -203 -121 -50 -48 -58 -60 -52 -80 13 -44 37 -58 120 -70 116 -16
116 -17 55 -50 -81 -43 -223 -151 -239 -181 -8 -16 -11 -37 -7 -53 7 -26 9
-27 59 -23 65 5 146 42 215 97 58 46 112 122 112 157 0 20 17 34 41 34 5 0 0
-18 -11 -40 -39 -77 -17 -146 56 -170 33 -11 41 -9 100 20 l64 33 21 -27 c28
-35 76 -35 119 0 l31 26 24 -26 c33 -36 75 -34 118 4 l35 30 16 -25 c22 -34
36 -32 87 14 l44 39 10 -37 c8 -28 16 -37 37 -39 22 -3 30 5 58 55 36 64 96
143 110 143 4 0 2 -24 -6 -52 -19 -74 -17 -101 9 -126 24 -23 81 -30 92 -12 4
6 19 9 34 8 33 -2 84 35 147 106 26 30 44 44 44 35 0 -42 -27 -82 -97 -145
-87 -78 -163 -176 -163 -209 0 -27 44 -73 77 -81 13 -4 33 0 46 9 29 19 108
138 131 197 53 136 64 154 123 185 64 35 99 75 89 101 -6 15 -10 14 -39 -13
-27 -26 -68 -53 -79 -53 -2 0 -4 30 -5 68 -2 72 -17 95 -69 108 -68 17 -153
-59 -216 -192 -22 -49 -45 -84 -53 -84 -21 0 -19 19 11 99 19 52 24 80 20 106
-13 65 -57 60 -142 -17 l-58 -53 27 49 c26 46 26 50 11 68 -38 41 -73 14 -104
-78 -19 -56 -98 -164 -121 -164 -14 0 26 96 55 131 60 71 66 118 16 134 -30
10 -39 -1 -82 -92 -42 -91 -117 -183 -151 -183 -18 0 -19 5 -14 45 9 63 116
282 142 289 11 3 39 6 63 6 28 0 42 4 42 13 0 22 -23 37 -56 37 -29 0 -33 3
-31 27 2 22 -3 29 -21 31 -16 3 -27 -5 -40 -27 -15 -28 -22 -31 -64 -31 -45 0
-47 1 -45 27 3 42 -31 41 -68 0z m115 -107 c0 -6 -13 -36 -28 -68 -16 -31 -39
-83 -51 -114 -24 -59 -87 -128 -117 -128 -30 0 -10 84 49 206 l56 114 46 0
c25 0 45 -5 45 -10z m-310 -116 c0 -20 -52 -70 -80 -77 -29 -8 -25 2 22 50 45
46 58 52 58 27z m1005 -70 c-44 -40 -83 -74 -88 -74 -15 0 22 55 60 91 40 38
94 71 103 62 3 -3 -31 -38 -75 -79z m-975 36 c0 -5 -5 -10 -11 -10 -5 0 -7 5
-4 10 3 6 8 10 11 10 2 0 4 -4 4 -10z m-310 -35 c0 -7 -70 -41 -100 -49 -24
-7 -24 -6 -6 8 11 9 27 16 37 16 9 0 22 7 29 15 12 14 40 21 40 10z m950 -9
c0 -2 -8 -10 -17 -17 -16 -13 -17 -12 -4 4 13 16 21 21 21 13z m-995 -69 c-39
-45 -218 -157 -232 -143 -7 7 32 55 59 74 80 57 193 121 196 112 2 -5 -9 -25
-23 -43z m1310 -100 c-22 -18 -57 -50 -78 -72 -22 -22 -34 -31 -28 -19 13 28
132 136 140 128 3 -3 -12 -20 -34 -37z m-1345 29 c0 -3 -25 -18 -55 -34 -30
-17 -55 -26 -55 -22 0 4 21 19 48 33 46 26 62 31 62 23z m1321 -118 c-41 -71
-75 -112 -89 -107 -18 6 24 83 70 132 21 22 41 38 44 34 3 -3 -8 -30 -25 -59z"></path>
<path d="M1472 1038 c-29 -47 -38 -88 -21 -98 18 -12 63 14 90 51 l23 32 -28
24 c-35 30 -41 29 -64 -9z"></path>
<path d="M4454 1043 c-10 -15 -19 -30 -21 -32 -2 -3 -33 -8 -70 -13 -72 -8
-89 -18 -80 -42 5 -12 20 -16 57 -16 27 0 50 -5 50 -10 0 -27 -73 -151 -100
-170 -17 -12 -33 -20 -36 -18 -2 3 2 22 10 44 16 47 7 80 -29 96 -32 14 -50 5
-136 -70 -62 -56 -63 -55 -13 23 26 40 -1 84 -42 68 -8 -3 -42 -59 -74 -123
-34 -68 -71 -127 -87 -140 l-28 -22 -3 21 c-2 12 6 41 17 64 25 53 27 90 4
113 -10 9 -18 24 -20 33 -1 8 -10 21 -19 28 -41 30 -90 7 -165 -76 -65 -72
-220 -173 -259 -169 -23 3 -25 7 -25 58 0 90 61 190 161 266 19 15 37 24 40
21 11 -10 -4 -51 -35 -97 -41 -61 -23 -96 27 -50 54 51 91 172 60 198 -26 20
-76 24 -112 7 -43 -21 -127 -108 -154 -161 -26 -52 -52 -140 -52 -178 0 -43
33 -93 75 -113 34 -16 35 -16 112 23 43 21 81 40 86 42 4 2 7 -3 7 -11 0 -8 8
-25 18 -37 23 -29 42 -23 107 35 51 45 60 72 11 34 -44 -35 -36 -17 14 28 l46
42 -4 -62 c-3 -52 0 -66 18 -89 12 -16 31 -28 42 -28 17 0 19 -4 14 -27 -19
-78 -19 -113 -1 -133 29 -32 42 -24 47 29 5 46 58 172 90 215 15 19 16 19 50
-2 46 -28 80 -28 115 2 23 19 115 66 129 66 3 0 2 -11 -1 -25 -3 -14 -7 -36
-10 -49 -3 -16 3 -32 20 -50 33 -36 75 -34 119 5 l35 30 17 -25 c22 -35 37
-33 89 15 40 37 45 39 45 20 0 -73 67 -82 138 -18 14 13 20 27 17 39 -4 11 9
40 35 78 22 33 43 60 46 60 7 0 -24 -58 -35 -65 -12 -7 -43 -67 -37 -72 5 -5
36 36 59 78 l19 34 12 -30 c7 -17 20 -36 29 -44 9 -7 14 -17 12 -21 -3 -5 2
-27 11 -49 13 -32 24 -43 59 -56 40 -16 44 -16 92 5 40 17 55 19 77 10 46 -17
110 -12 141 11 26 21 29 38 11 80 -5 12 9 25 56 54 67 41 108 73 108 87 0 17
-48 7 -81 -18 -46 -35 -105 -65 -113 -57 -3 3 10 28 30 56 25 35 34 56 30 72
-6 24 -31 39 -48 29 -22 -14 -68 -99 -68 -126 0 -21 -11 -39 -37 -63 -21 -19
-44 -35 -52 -35 -8 0 -29 -16 -47 -35 -25 -28 -39 -35 -68 -35 -42 0 -51 14
-37 53 9 23 16 27 51 27 69 0 129 45 160 120 13 32 12 34 -18 61 -34 30 -77
38 -111 19 -10 -5 -42 -39 -71 -75 -30 -36 -58 -65 -63 -65 -13 0 -1 56 24
107 20 41 20 45 4 69 -24 37 -46 26 -78 -36 -34 -68 -167 -252 -186 -258 -21
-7 -9 42 35 144 31 72 35 89 26 109 -14 30 -57 34 -70 8 -5 -10 -17 -49 -27
-86 -14 -53 -29 -80 -63 -118 -24 -27 -48 -49 -53 -49 -14 0 26 97 55 131 43
51 58 86 46 108 -11 22 -44 36 -61 25 -12 -7 -69 -123 -69 -140 0 -21 -111
-134 -132 -134 -19 0 -20 4 -15 45 9 63 116 282 142 289 11 3 39 6 63 6 28 0
42 4 42 13 0 22 -23 37 -56 37 -29 0 -33 3 -31 27 3 41 -35 44 -59 6z m666
-224 c0 -18 -66 -79 -86 -79 -16 0 -16 1 1 23 25 29 68 67 78 67 4 0 7 -5 7
-11z m-930 -24 c0 -53 -105 -135 -134 -105 -8 9 6 27 53 71 35 32 68 59 72 59
5 0 9 -11 9 -25z m-443 -51 c-38 -36 -71 -63 -74 -60 -9 8 49 77 86 102 63 43
58 25 -12 -42z m373 53 c0 -2 -16 -19 -37 -38 -37 -35 -37 -23 0 19 18 19 37
29 37 19z m1030 -17 c0 -5 -8 -10 -17 -10 -15 0 -16 2 -3 10 19 12 20 12 20 0z
m94 -135 c-4 -8 -18 -15 -33 -15 -25 1 -25 1 -7 15 26 19 47 19 40 0z"></path>
<path d="M4651 1036 c-12 -18 -24 -47 -27 -65 -6 -29 -4 -31 21 -31 19 0 39
12 61 36 19 19 34 39 34 44 0 10 -49 50 -61 50 -4 0 -17 -15 -28 -34z"></path>
<path d="M5696 1038 c-9 -5 -16 -22 -16 -38 0 -41 -28 -121 -51 -146 -13 -13
-19 -35 -19 -65 0 -24 -7 -68 -15 -98 -12 -47 -12 -58 1 -82 28 -55 47 -30 63
85 6 38 15 74 21 80 6 6 46 11 89 11 71 0 82 -3 105 -24 l26 -25 -30 -31 c-30
-31 -39 -55 -20 -55 6 0 32 20 58 44 26 24 62 47 80 51 38 8 38 6 12 -45 -30
-60 -27 -96 13 -120 41 -25 40 -26 82 11 l35 31 28 -30 c49 -52 108 -51 179 4
40 30 47 30 67 -1 9 -13 34 -29 55 -36 35 -10 45 -9 85 11 48 23 152 121 162
153 11 35 -5 30 -58 -18 -76 -69 -136 -105 -175 -105 -28 0 -33 3 -33 24 0 45
10 56 51 56 63 0 105 23 139 76 37 59 38 86 4 113 -40 31 -98 28 -131 -6 -40
-43 -113 -144 -113 -157 0 -12 -76 -74 -117 -95 -12 -6 -35 -11 -52 -11 -26 0
-31 4 -31 24 0 45 10 56 51 56 63 0 105 23 139 76 16 27 30 58 30 70 0 33 -45
64 -92 64 -47 0 -78 -30 -165 -158 -55 -82 -89 -116 -104 -106 -15 9 13 61 76
139 28 36 29 38 10 52 -19 14 -35 13 -107 -3 -27 -6 -27 -6 -16 24 16 41 -2
62 -53 62 -39 0 -61 -15 -85 -56 -9 -15 -14 -17 -26 -7 -8 7 -18 10 -21 6 -4
-3 -26 0 -49 7 -24 7 -49 14 -55 16 -18 5 2 52 34 82 21 19 35 22 114 22 88 0
89 0 89 25 0 13 -8 28 -17 33 -25 13 -228 21 -247 10z m647 -225 c-10 -29 -43
-61 -74 -72 -26 -9 -28 -8 -19 8 11 22 77 81 90 81 5 0 7 -8 3 -17z m250 0
c-10 -29 -43 -61 -74 -72 -26 -9 -28 -8 -19 8 11 22 77 81 90 81 5 0 7 -8 3
-17z m-218 -33 c-3 -5 -11 -10 -16 -10 -6 0 -7 5 -4 10 3 6 11 10 16 10 6 0 7
-4 4 -10z m250 0 c-3 -5 -11 -10 -16 -10 -6 0 -7 5 -4 10 3 6 11 10 16 10 6 0
7 -4 4 -10z"></path>
</g>
</svg>