<?xml version="1.0" encoding="UTF-8"?>
<svg xmlns="http://www.w3.org/2000/svg" xmlns:xlink="http://www.w3.org/1999/xlink" width="25px" height="18px" viewBox="0 0 25 18" version="1.1">
<g id="surface1">
<path style=" stroke:none;fill-rule:nonzero;fill:rgb(0%,0%,0%);fill-opacity:1;" d="M 2.875 15.039062 C 2.820312 15.015625 2.765625 15.015625 2.699219 15.03125 C 2.585938 15.070312 2.46875 15.09375 2.351562 15.132812 C 2.304688 15.148438 2.273438 15.132812 2.226562 15.109375 C 2.132812 15.074219 2.039062 15.050781 1.945312 15.03125 C 1.84375 15.007812 1.742188 15.011719 1.640625 15 C 1.585938 14.992188 1.53125 14.984375 1.476562 14.964844 C 1.449219 14.957031 1.433594 14.933594 1.460938 14.902344 C 1.492188 14.867188 1.519531 14.824219 1.554688 14.796875 C 1.6875 14.695312 1.820312 14.589844 1.96875 14.5 C 2.101562 14.421875 2.25 14.367188 2.414062 14.441406 C 2.460938 14.460938 2.542969 14.40625 2.523438 14.367188 C 2.484375 14.308594 2.445312 14.234375 2.390625 14.203125 C 2.285156 14.15625 2.167969 14.148438 2.054688 14.203125 C 1.804688 14.332031 1.59375 14.484375 1.390625 14.683594 C 1.328125 14.742188 1.289062 14.8125 1.308594 14.898438 C 1.335938 15.011719 1.414062 15.085938 1.523438 15.109375 C 1.65625 15.140625 1.796875 15.152344 1.9375 15.171875 C 2.007812 15.179688 2.078125 15.1875 2.164062 15.199219 L 2.128906 15.226562 C 1.890625 15.339844 1.664062 15.476562 1.453125 15.640625 C 1.320312 15.75 1.179688 15.828125 1.082031 15.976562 C 1.023438 16.0625 1.019531 16.25 1.125 16.269531 C 1.222656 16.28125 1.351562 16.28125 1.632812 16.152344 C 1.714844 16.113281 1.789062 16.066406 1.867188 16.019531 C 1.929688 15.980469 1.992188 15.9375 2.046875 15.882812 C 2.109375 15.820312 2.144531 15.8125 2.203125 15.738281 C 2.203125 15.738281 2.445312 15.476562 2.421875 15.328125 C 2.421875 15.3125 2.410156 15.273438 2.417969 15.265625 C 2.476562 15.238281 2.53125 15.199219 2.59375 15.191406 C 2.679688 15.1875 2.761719 15.210938 2.847656 15.21875 C 2.902344 15.226562 2.9375 15.1875 2.949219 15.140625 C 2.960938 15.082031 2.921875 15.0625 2.875 15.039062 Z M 1.363281 15.796875 C 1.347656 15.804688 1.339844 15.820312 1.320312 15.828125 L 1.316406 15.820312 C 1.328125 15.8125 1.339844 15.796875 1.359375 15.789062 Z M 1.257812 15.871094 C 1.265625 15.867188 1.265625 15.863281 1.269531 15.859375 L 1.273438 15.867188 L 1.257812 15.875 C 1.25 15.890625 1.234375 15.902344 1.226562 15.921875 L 1.21875 15.914062 Z M 2.078125 15.738281 C 2.070312 15.742188 1.988281 15.757812 1.992188 15.773438 C 2 15.796875 1.953125 15.8125 1.929688 15.863281 C 1.910156 15.890625 1.871094 15.910156 1.832031 15.925781 C 1.804688 15.9375 1.78125 15.945312 1.757812 15.953125 L 1.6875 15.984375 L 1.617188 16.035156 L 1.5625 16.085938 C 1.546875 16.085938 1.53125 16.078125 1.523438 16.070312 C 1.503906 16.0625 1.5 16.046875 1.523438 16.023438 C 1.585938 15.976562 1.820312 15.867188 1.890625 15.828125 C 1.929688 15.804688 1.992188 15.75 2.054688 15.703125 C 2.09375 15.671875 2.125 15.640625 2.164062 15.605469 L 2.125 15.671875 C 2.101562 15.703125 2.085938 15.734375 2.078125 15.738281 Z M 2.183594 15.410156 C 2.09375 15.539062 2.011719 15.671875 1.878906 15.757812 C 1.703125 15.867188 1.53125 15.976562 1.355469 16.078125 C 1.320312 16.101562 1.28125 16.109375 1.246094 16.117188 C 1.226562 16.125 1.214844 16.113281 1.203125 16.105469 C 1.195312 16.101562 1.203125 16.078125 1.210938 16.070312 C 1.277344 15.984375 1.332031 15.890625 1.429688 15.828125 C 1.554688 15.75 1.671875 15.660156 1.808594 15.578125 C 1.847656 15.554688 1.890625 15.53125 1.929688 15.507812 C 2.007812 15.460938 2.09375 15.414062 2.179688 15.375 C 2.1875 15.390625 2.1875 15.402344 2.183594 15.410156 Z M 1.757812 15.546875 C 1.757812 15.542969 1.757812 15.539062 1.757812 15.539062 C 1.753906 15.53125 1.757812 15.527344 1.75 15.519531 C 1.796875 15.445312 1.863281 15.414062 1.949219 15.394531 C 1.953125 15.394531 1.953125 15.394531 1.953125 15.390625 C 1.953125 15.394531 1.953125 15.394531 1.953125 15.398438 C 1.96875 15.414062 1.992188 15.402344 2.011719 15.382812 C 2.03125 15.363281 2.039062 15.34375 2.0625 15.324219 C 2.109375 15.296875 2.152344 15.273438 2.195312 15.25 C 2.207031 15.25 2.214844 15.304688 2.214844 15.316406 Z M 1.757812 15.546875 "/>
<path style=" stroke:none;fill-rule:nonzero;fill:rgb(0%,0%,0%);fill-opacity:1;" d="M 3.609375 15.296875 C 3.59375 15.28125 3.574219 15.296875 3.554688 15.3125 C 3.523438 15.351562 3.492188 15.382812 3.460938 15.417969 C 3.367188 15.5 3.4375 15.4375 3.347656 15.515625 C 3.242188 15.601562 3.140625 15.683594 3.03125 15.757812 C 2.9375 15.828125 2.835938 15.84375 2.726562 15.835938 C 2.65625 15.828125 2.648438 15.820312 2.65625 15.757812 C 2.664062 15.699219 2.679688 15.648438 2.6875 15.59375 C 2.703125 15.53125 2.738281 15.507812 2.796875 15.523438 C 2.820312 15.53125 2.84375 15.542969 2.867188 15.542969 C 3.023438 15.535156 3.160156 15.496094 3.265625 15.375 C 3.351562 15.28125 3.40625 15.171875 3.453125 15.054688 C 3.46875 15.015625 3.464844 14.976562 3.4375 14.9375 C 3.351562 14.8125 3.230469 14.757812 3.074219 14.78125 C 3.003906 14.789062 2.941406 14.8125 2.898438 14.871094 C 2.8125 14.988281 2.710938 15.089844 2.625 15.214844 C 2.578125 15.273438 2.546875 15.335938 2.511719 15.402344 C 2.453125 15.527344 2.429688 15.648438 2.496094 15.773438 C 2.542969 15.859375 2.585938 15.9375 2.695312 15.953125 C 2.710938 15.953125 2.726562 15.964844 2.746094 15.972656 C 2.804688 16 2.867188 16 2.941406 15.976562 C 3.085938 15.929688 3.203125 15.835938 3.328125 15.738281 C 3.332031 15.734375 3.335938 15.730469 3.339844 15.726562 L 3.492188 15.539062 C 3.53125 15.492188 3.578125 15.453125 3.617188 15.40625 C 3.625 15.390625 3.632812 15.367188 3.632812 15.351562 C 3.632812 15.328125 3.625 15.304688 3.609375 15.296875 Z M 3.136719 15.320312 C 3.164062 15.28125 3.160156 15.28125 3.195312 15.304688 C 3.179688 15.3125 3.164062 15.3125 3.136719 15.320312 Z M 3.28125 15.15625 C 3.304688 15.148438 3.320312 15.121094 3.335938 15.101562 C 3.351562 15.085938 3.363281 15.066406 3.382812 15.054688 C 3.359375 15.140625 3.335938 15.242188 3.207031 15.25 C 3.226562 15.203125 3.234375 15.175781 3.28125 15.15625 Z M 3.234375 14.960938 C 3.242188 15.140625 3.054688 15.332031 2.820312 15.359375 C 2.945312 15.210938 3.046875 15.039062 3.234375 14.960938 Z M 3.234375 14.960938 "/>
<path style=" stroke:none;fill-rule:nonzero;fill:rgb(0%,0%,0%);fill-opacity:1;" d="M 3.699219 14.679688 C 3.644531 14.789062 3.59375 14.90625 3.539062 15.027344 C 3.445312 15.230469 3.378906 15.441406 3.34375 15.65625 C 3.316406 15.804688 3.320312 15.765625 3.421875 15.90625 C 3.476562 15.976562 3.617188 15.992188 3.710938 15.953125 C 3.789062 15.90625 3.859375 15.855469 3.914062 15.785156 C 4.003906 15.664062 4.054688 15.539062 4.164062 15.433594 C 4.210938 15.382812 4.21875 15.34375 4.273438 15.285156 C 4.304688 15.25 4.308594 15.1875 4.28125 15.164062 C 4.238281 15.140625 4.210938 15.164062 4.160156 15.210938 C 4.101562 15.277344 4.109375 15.292969 4.054688 15.355469 C 3.953125 15.46875 3.71875 15.828125 3.578125 15.765625 C 3.5625 15.730469 3.5625 15.628906 3.570312 15.570312 C 3.578125 15.492188 3.609375 15.414062 3.636719 15.335938 C 3.664062 15.277344 3.710938 15.234375 3.703125 15.164062 C 3.699219 15.160156 3.710938 15.15625 3.714844 15.148438 C 3.742188 15.101562 3.816406 14.976562 3.84375 14.929688 C 3.914062 14.792969 3.945312 14.6875 4.015625 14.554688 C 4.132812 14.515625 4.328125 14.53125 4.359375 14.53125 C 4.382812 14.53125 4.402344 14.539062 4.421875 14.53125 C 4.445312 14.523438 4.453125 14.515625 4.460938 14.496094 C 4.46875 14.476562 4.40625 14.382812 4.398438 14.367188 C 4.375 14.339844 4.335938 14.328125 4.289062 14.335938 C 4.257812 14.335938 4.140625 14.375 4.125 14.351562 C 4.128906 14.28125 4.207031 14.203125 4.167969 14.171875 C 4.085938 14.101562 4 14.097656 3.953125 14.195312 C 3.921875 14.242188 3.898438 14.273438 3.878906 14.320312 C 3.867188 14.347656 3.84375 14.359375 3.8125 14.363281 C 3.726562 14.375 3.632812 14.382812 3.546875 14.394531 L 3.382812 14.414062 C 3.339844 14.421875 3.300781 14.453125 3.296875 14.484375 C 3.289062 14.53125 3.351562 14.605469 3.402344 14.605469 C 3.460938 14.609375 3.515625 14.605469 3.574219 14.597656 C 3.625 14.59375 3.671875 14.589844 3.738281 14.582031 Z M 4.09375 15.421875 C 4.039062 15.492188 3.984375 15.554688 3.9375 15.613281 C 3.933594 15.613281 3.929688 15.609375 3.925781 15.609375 C 3.925781 15.601562 3.921875 15.59375 3.929688 15.585938 C 3.96875 15.527344 4.007812 15.476562 4.050781 15.421875 C 4.054688 15.414062 4.070312 15.414062 4.085938 15.410156 Z M 4.09375 15.421875 "/>
<path style=" stroke:none;fill-rule:nonzero;fill:rgb(0%,0%,0%);fill-opacity:1;" d="M 4.3125 14.679688 C 4.257812 14.789062 4.203125 14.90625 4.148438 15.027344 C 4.054688 15.230469 3.992188 15.441406 3.953125 15.65625 C 3.929688 15.804688 3.929688 15.765625 4.035156 15.90625 C 4.085938 15.976562 4.234375 15.992188 4.324219 15.953125 C 4.398438 15.90625 4.46875 15.855469 4.523438 15.785156 C 4.617188 15.664062 4.671875 15.539062 4.78125 15.433594 C 4.824219 15.382812 4.835938 15.34375 4.882812 15.285156 C 4.914062 15.25 4.921875 15.1875 4.890625 15.164062 C 4.851562 15.140625 4.820312 15.164062 4.773438 15.210938 C 4.714844 15.277344 4.71875 15.292969 4.664062 15.355469 C 4.5625 15.46875 4.335938 15.828125 4.1875 15.765625 C 4.171875 15.730469 4.171875 15.628906 4.1875 15.570312 C 4.191406 15.492188 4.21875 15.414062 4.25 15.335938 C 4.277344 15.277344 4.320312 15.234375 4.316406 15.164062 C 4.3125 15.160156 4.324219 15.15625 4.328125 15.148438 C 4.351562 15.101562 4.429688 14.976562 4.453125 14.929688 C 4.523438 14.792969 4.558594 14.6875 4.628906 14.554688 C 4.746094 14.515625 4.941406 14.53125 4.976562 14.53125 C 4.992188 14.53125 5.015625 14.539062 5.035156 14.53125 C 5.054688 14.523438 5.070312 14.515625 5.078125 14.496094 C 5.085938 14.476562 5.023438 14.382812 5.015625 14.367188 C 4.984375 14.339844 4.953125 14.328125 4.90625 14.335938 C 4.875 14.335938 4.757812 14.375 4.734375 14.351562 C 4.742188 14.28125 4.820312 14.203125 4.78125 14.171875 C 4.695312 14.101562 4.617188 14.097656 4.5625 14.195312 C 4.539062 14.242188 4.515625 14.273438 4.492188 14.320312 C 4.480469 14.347656 4.457031 14.359375 4.425781 14.363281 C 4.335938 14.375 4.25 14.382812 4.15625 14.394531 L 3.992188 14.414062 C 3.953125 14.421875 3.914062 14.453125 3.914062 14.484375 C 3.90625 14.53125 3.964844 14.605469 4.015625 14.605469 C 4.070312 14.609375 4.128906 14.605469 4.1875 14.597656 C 4.234375 14.59375 4.289062 14.589844 4.351562 14.582031 Z M 4.703125 15.421875 C 4.65625 15.492188 4.601562 15.554688 4.546875 15.613281 C 4.546875 15.613281 4.542969 15.609375 4.539062 15.609375 C 4.539062 15.601562 4.539062 15.59375 4.546875 15.585938 C 4.585938 15.527344 4.625 15.476562 4.664062 15.421875 C 4.671875 15.414062 4.6875 15.414062 4.695312 15.410156 Z M 4.703125 15.421875 "/>
<path style=" stroke:none;fill-rule:nonzero;fill:rgb(0%,0%,0%);fill-opacity:1;" d="M 5.351562 15.21875 C 5.320312 15.210938 5.289062 15.21875 5.269531 15.242188 C 5.195312 15.328125 5.085938 15.464844 5.007812 15.546875 C 4.960938 15.601562 4.910156 15.652344 4.851562 15.703125 C 4.835938 15.71875 4.816406 15.726562 4.796875 15.738281 C 4.789062 15.734375 4.789062 15.730469 4.78125 15.726562 C 4.8125 15.652344 4.832031 15.578125 4.859375 15.5 C 4.867188 15.476562 4.875 15.445312 4.890625 15.421875 C 4.929688 15.359375 4.945312 15.285156 5.007812 15.242188 C 5.023438 15.230469 5.039062 15.214844 5.046875 15.195312 L 5.1875 14.984375 C 5.203125 14.960938 5.207031 14.9375 5.199219 14.90625 C 5.179688 14.820312 5.125 14.773438 5.046875 14.742188 C 4.992188 14.71875 4.96875 14.726562 4.941406 14.773438 C 4.890625 14.859375 4.84375 14.945312 4.796875 15.035156 C 4.75 15.140625 4.710938 15.296875 4.664062 15.402344 C 4.617188 15.507812 4.609375 15.582031 4.585938 15.695312 C 4.578125 15.75 4.59375 15.800781 4.625 15.84375 C 4.648438 15.867188 4.664062 15.882812 4.679688 15.90625 C 4.703125 15.933594 4.734375 15.941406 4.765625 15.925781 C 4.789062 15.921875 4.898438 15.828125 4.953125 15.78125 C 5.011719 15.71875 5.027344 15.6875 5.105469 15.625 C 5.175781 15.507812 5.289062 15.457031 5.339844 15.328125 C 5.367188 15.289062 5.367188 15.226562 5.351562 15.21875 Z M 5.507812 14.210938 C 5.5 14.203125 5.492188 14.195312 5.484375 14.1875 C 5.445312 14.148438 5.398438 14.140625 5.351562 14.132812 C 5.34375 14.132812 5.328125 14.144531 5.320312 14.15625 C 5.242188 14.265625 5.175781 14.375 5.144531 14.511719 C 5.136719 14.53125 5.132812 14.550781 5.136719 14.570312 C 5.136719 14.59375 5.195312 14.609375 5.234375 14.609375 C 5.242188 14.609375 5.257812 14.609375 5.273438 14.605469 C 5.367188 14.570312 5.441406 14.507812 5.488281 14.421875 C 5.507812 14.390625 5.523438 14.359375 5.546875 14.335938 C 5.585938 14.289062 5.542969 14.25 5.507812 14.210938 Z M 5.507812 14.210938 "/>
<path style=" stroke:none;fill-rule:nonzero;fill:rgb(0%,0%,0%);fill-opacity:1;" d="M 5.46875 15.304688 C 5.46875 15.304688 5.472656 15.304688 5.472656 15.296875 C 5.523438 15.171875 5.578125 15.054688 5.65625 14.945312 C 5.679688 14.917969 5.667969 14.890625 5.648438 14.871094 C 5.628906 14.847656 5.605469 14.824219 5.578125 14.808594 C 5.507812 14.757812 5.410156 14.78125 5.363281 14.859375 C 5.289062 15 5.234375 15.140625 5.195312 15.296875 C 5.175781 15.375 5.15625 15.457031 5.140625 15.535156 C 5.125 15.632812 5.070312 15.726562 5.140625 15.824219 C 5.144531 15.832031 5.140625 15.835938 5.140625 15.835938 C 5.164062 15.921875 5.242188 15.960938 5.320312 15.933594 C 5.359375 15.914062 5.382812 15.886719 5.402344 15.847656 C 5.484375 15.671875 5.578125 15.496094 5.710938 15.351562 C 5.769531 15.28125 5.824219 15.210938 5.898438 15.164062 C 5.890625 15.210938 5.882812 15.25 5.867188 15.296875 C 5.828125 15.429688 5.796875 15.554688 5.789062 15.691406 C 5.789062 15.730469 5.789062 15.765625 5.808594 15.789062 C 5.828125 15.828125 5.859375 15.855469 5.890625 15.882812 C 5.96875 15.960938 6.101562 15.960938 6.179688 15.90625 C 6.25 15.851562 6.289062 15.828125 6.335938 15.75 C 6.382812 15.679688 6.40625 15.621094 6.453125 15.546875 C 6.511719 15.460938 6.523438 15.429688 6.585938 15.355469 C 6.609375 15.320312 6.628906 15.285156 6.601562 15.234375 C 6.59375 15.203125 6.515625 15.179688 6.46875 15.246094 C 6.453125 15.265625 6.414062 15.320312 6.40625 15.335938 C 6.3125 15.5 6.304688 15.546875 6.1875 15.6875 C 6.148438 15.726562 6.101562 15.78125 6.046875 15.765625 C 5.984375 15.75 6.054688 15.574219 6.085938 15.492188 C 6.117188 15.417969 6.148438 15.351562 6.175781 15.28125 C 6.226562 15.164062 6.226562 15.050781 6.179688 14.9375 C 6.160156 14.898438 6.167969 14.863281 6.117188 14.851562 C 6.054688 14.84375 5.984375 14.828125 5.929688 14.890625 C 5.875 14.929688 5.8125 14.96875 5.757812 15.015625 C 5.65625 15.109375 5.5625 15.210938 5.46875 15.304688 Z M 5.410156 15.566406 C 5.429688 15.460938 5.71875 15.125 5.8125 15.085938 C 5.675781 15.25 5.546875 15.410156 5.410156 15.566406 Z M 5.410156 15.566406 "/>
<path style=" stroke:none;fill-rule:nonzero;fill:rgb(0%,0%,0%);fill-opacity:1;" d="M 7.6875 15.109375 C 7.648438 15.132812 7.554688 15.285156 7.4375 15.34375 L 7.257812 15.4375 C 7.277344 15.390625 7.28125 15.34375 7.296875 15.304688 C 7.324219 15.246094 7.3125 15.1875 7.296875 15.128906 C 7.289062 15.101562 7.289062 15.070312 7.273438 15.042969 C 7.253906 15.007812 7.261719 14.984375 7.292969 14.960938 C 7.261719 14.859375 7.257812 14.867188 7.175781 14.808594 C 7.03125 14.710938 6.875 14.71875 6.738281 14.824219 C 6.691406 14.859375 6.65625 14.898438 6.617188 14.933594 C 6.464844 15.09375 6.351562 15.273438 6.257812 15.46875 C 6.222656 15.546875 6.191406 15.617188 6.222656 15.707031 C 6.242188 15.746094 6.25 15.785156 6.273438 15.816406 C 6.328125 15.886719 6.375 15.902344 6.445312 15.84375 C 6.664062 15.679688 6.570312 15.75 6.773438 15.570312 C 6.78125 15.5625 6.859375 15.476562 6.921875 15.390625 C 6.929688 15.375 7.007812 15.277344 7.03125 15.265625 C 7.03125 15.289062 7.03125 15.300781 7.03125 15.304688 C 7.003906 15.398438 6.976562 15.5 6.945312 15.597656 C 6.933594 15.648438 6.902344 15.683594 6.859375 15.710938 C 6.796875 15.757812 6.742188 15.8125 6.679688 15.867188 L 6.539062 15.996094 C 6.53125 16 6.527344 16 6.519531 16.007812 C 6.355469 16.164062 6.21875 16.332031 6.097656 16.53125 C 6.0625 16.585938 6.035156 16.65625 6.101562 16.71875 C 6.125 16.820312 6.203125 16.867188 6.289062 16.914062 C 6.34375 16.945312 6.402344 16.96875 6.46875 16.929688 C 6.539062 16.882812 6.605469 16.832031 6.644531 16.757812 C 6.695312 16.648438 6.800781 16.585938 6.835938 16.46875 C 6.835938 16.464844 6.839844 16.464844 6.84375 16.457031 C 6.859375 16.429688 6.882812 16.40625 6.898438 16.382812 C 6.929688 16.3125 6.953125 16.242188 6.984375 16.167969 C 7.015625 16.09375 7.054688 16.023438 7.0625 15.945312 C 7.0625 15.925781 7.078125 15.914062 7.085938 15.898438 C 7.101562 15.867188 7.117188 15.835938 7.132812 15.796875 C 7.148438 15.75 7.164062 15.710938 7.191406 15.671875 C 7.230469 15.59375 7.3125 15.578125 7.375 15.546875 C 7.398438 15.53125 7.5625 15.46875 7.667969 15.328125 C 7.6875 15.320312 7.710938 15.265625 7.726562 15.25 C 7.789062 15.171875 7.703125 15.101562 7.6875 15.109375 Z M 6.5 16.625 C 6.488281 16.695312 6.414062 16.765625 6.355469 16.773438 Z M 6.542969 16.578125 C 6.53125 16.539062 6.566406 16.535156 6.578125 16.507812 C 6.585938 16.484375 6.601562 16.460938 6.617188 16.4375 L 6.664062 16.359375 C 6.679688 16.335938 6.691406 16.3125 6.710938 16.289062 C 6.71875 16.292969 6.71875 16.296875 6.722656 16.300781 C 6.675781 16.402344 6.617188 16.492188 6.542969 16.578125 Z M 6.75 16.09375 C 6.6875 16.210938 6.617188 16.328125 6.546875 16.445312 C 6.496094 16.523438 6.433594 16.601562 6.359375 16.664062 C 6.335938 16.6875 6.304688 16.695312 6.273438 16.679688 C 6.257812 16.632812 6.320312 16.601562 6.324219 16.5625 C 6.3125 16.5625 6.304688 16.5625 6.296875 16.5625 C 6.34375 16.492188 6.394531 16.421875 6.441406 16.351562 C 6.445312 16.34375 6.445312 16.339844 6.453125 16.328125 C 6.535156 16.203125 6.597656 16.125 6.734375 16.039062 C 6.78125 16.046875 6.765625 16.070312 6.75 16.09375 Z M 6.855469 15.835938 C 6.820312 15.886719 6.796875 15.953125 6.710938 15.953125 C 6.695312 15.953125 6.675781 15.984375 6.667969 16 C 6.65625 16.054688 6.617188 16.039062 6.578125 16.074219 C 6.574219 16.078125 6.566406 16.085938 6.558594 16.09375 C 6.554688 16.09375 6.515625 16.140625 6.484375 16.179688 L 6.414062 16.265625 C 6.339844 16.328125 6.304688 16.421875 6.226562 16.484375 C 6.246094 16.398438 6.34375 16.359375 6.335938 16.261719 C 6.359375 16.242188 6.386719 16.214844 6.421875 16.183594 C 6.445312 16.152344 6.46875 16.117188 6.496094 16.085938 C 6.515625 16.0625 6.539062 16.050781 6.554688 16.023438 L 6.710938 15.898438 C 6.71875 15.898438 6.71875 15.898438 6.722656 15.898438 C 6.769531 15.847656 6.808594 15.804688 6.84375 15.757812 C 6.859375 15.773438 6.867188 15.785156 6.875 15.800781 C 6.867188 15.8125 6.867188 15.828125 6.855469 15.835938 Z M 6.8125 15.351562 C 6.890625 15.273438 6.976562 15.203125 7.058594 15.128906 L 7.074219 15.140625 L 6.828125 15.367188 Z M 6.53125 15.554688 C 6.5 15.585938 6.46875 15.601562 6.4375 15.625 C 6.433594 15.617188 6.429688 15.617188 6.425781 15.609375 C 6.4375 15.585938 6.453125 15.570312 6.46875 15.554688 C 6.476562 15.53125 6.496094 15.515625 6.507812 15.488281 C 6.523438 15.441406 6.542969 15.398438 6.578125 15.367188 C 6.589844 15.367188 6.59375 15.359375 6.59375 15.351562 C 6.601562 15.28125 6.675781 15.257812 6.710938 15.21875 C 6.757812 15.179688 6.804688 15.136719 6.855469 15.101562 C 6.90625 15.0625 6.960938 15.035156 7.015625 15.007812 C 7.046875 15 7.070312 15 7.101562 14.992188 C 7.101562 15.039062 7.085938 15.0625 7.058594 15.082031 Z M 6.53125 15.554688 "/>
<path style=" stroke:none;fill-rule:nonzero;fill:rgb(0%,0%,0%);fill-opacity:1;" d="M 8.710938 14.679688 C 8.65625 14.789062 8.601562 14.90625 8.546875 15.027344 C 8.453125 15.230469 8.390625 15.441406 8.351562 15.65625 C 8.328125 15.804688 8.328125 15.765625 8.433594 15.90625 C 8.484375 15.976562 8.632812 15.992188 8.722656 15.953125 C 8.796875 15.90625 8.867188 15.855469 8.921875 15.785156 C 9.015625 15.664062 9.070312 15.539062 9.179688 15.433594 C 9.222656 15.382812 9.234375 15.34375 9.28125 15.285156 C 9.3125 15.25 9.320312 15.1875 9.289062 15.164062 C 9.25 15.140625 9.21875 15.164062 9.171875 15.210938 C 9.109375 15.277344 9.117188 15.292969 9.0625 15.355469 C 8.960938 15.46875 8.734375 15.828125 8.585938 15.765625 C 8.570312 15.730469 8.570312 15.628906 8.582031 15.570312 C 8.589844 15.492188 8.617188 15.414062 8.648438 15.335938 C 8.671875 15.277344 8.71875 15.234375 8.710938 15.164062 C 8.710938 15.160156 8.722656 15.15625 8.726562 15.148438 C 8.75 15.101562 8.828125 14.976562 8.851562 14.929688 C 8.921875 14.792969 8.957031 14.6875 9.027344 14.554688 C 9.140625 14.515625 9.339844 14.53125 9.375 14.53125 C 9.390625 14.53125 9.414062 14.539062 9.433594 14.53125 C 9.453125 14.523438 9.46875 14.515625 9.476562 14.496094 C 9.480469 14.476562 9.417969 14.382812 9.414062 14.367188 C 9.382812 14.339844 9.347656 14.328125 9.304688 14.335938 C 9.273438 14.335938 9.152344 14.375 9.132812 14.351562 C 9.140625 14.28125 9.21875 14.203125 9.179688 14.171875 C 9.09375 14.101562 9.015625 14.097656 8.960938 14.195312 C 8.9375 14.242188 8.914062 14.273438 8.890625 14.320312 C 8.875 14.347656 8.855469 14.359375 8.824219 14.363281 C 8.734375 14.375 8.648438 14.382812 8.554688 14.394531 L 8.390625 14.414062 C 8.351562 14.421875 8.3125 14.453125 8.3125 14.484375 C 8.304688 14.53125 8.363281 14.605469 8.414062 14.605469 C 8.46875 14.609375 8.527344 14.605469 8.585938 14.597656 C 8.632812 14.59375 8.683594 14.589844 8.75 14.582031 Z M 9.101562 15.421875 C 9.050781 15.492188 9 15.554688 8.945312 15.613281 C 8.945312 15.613281 8.941406 15.609375 8.9375 15.609375 C 8.9375 15.601562 8.9375 15.59375 8.945312 15.585938 C 8.984375 15.527344 9.019531 15.476562 9.0625 15.421875 C 9.070312 15.414062 9.082031 15.414062 9.09375 15.410156 Z M 9.101562 15.421875 "/>
<path style=" stroke:none;fill-rule:nonzero;fill:rgb(0%,0%,0%);fill-opacity:1;" d="M 9.742188 15.78125 C 9.742188 15.761719 9.738281 15.757812 9.742188 15.75 C 9.769531 15.707031 9.78125 15.640625 9.8125 15.605469 C 9.875 15.546875 9.902344 15.46875 9.9375 15.390625 C 9.964844 15.335938 9.984375 15.277344 10.015625 15.21875 C 10.03125 15.1875 10.023438 15.132812 9.992188 15.109375 C 9.960938 15.085938 9.945312 15.054688 9.914062 15.027344 C 9.902344 15.011719 9.886719 15 9.871094 15 C 9.792969 14.984375 9.714844 14.960938 9.640625 15.015625 C 9.554688 15.085938 9.46875 15.15625 9.382812 15.234375 C 9.363281 15.246094 9.351562 15.273438 9.316406 15.273438 L 9.398438 15.078125 C 9.398438 15.082031 9.40625 15.09375 9.414062 15.109375 L 9.445312 15.046875 L 9.53125 14.851562 C 9.59375 14.726562 9.652344 14.601562 9.71875 14.476562 C 9.753906 14.414062 9.800781 14.351562 9.84375 14.289062 C 9.898438 14.234375 9.898438 14.230469 9.867188 14.15625 C 9.867188 14.140625 9.863281 14.132812 9.863281 14.132812 C 9.855469 14.0625 9.8125 14.03125 9.753906 14.007812 C 9.730469 14 9.761719 14 9.742188 13.992188 C 9.6875 13.96875 9.640625 14 9.613281 14.054688 L 9.476562 14.328125 C 9.40625 14.472656 9.335938 14.601562 9.269531 14.75 C 9.199219 14.914062 9.140625 15.082031 9.078125 15.25 C 9.015625 15.40625 8.960938 15.566406 8.933594 15.734375 C 8.925781 15.773438 8.925781 15.8125 8.933594 15.851562 C 8.9375 15.890625 8.960938 15.910156 9 15.914062 C 9.015625 15.914062 9.035156 15.914062 9.050781 15.929688 C 9.125 15.96875 9.136719 15.945312 9.171875 15.867188 C 9.195312 15.824219 9.214844 15.777344 9.226562 15.730469 C 9.234375 15.6875 9.25 15.660156 9.28125 15.625 C 9.296875 15.601562 9.324219 15.574219 9.324219 15.546875 C 9.328125 15.507812 9.34375 15.496094 9.359375 15.476562 C 9.421875 15.40625 9.484375 15.332031 9.550781 15.265625 C 9.578125 15.234375 9.660156 15.203125 9.71875 15.195312 C 9.710938 15.234375 9.703125 15.257812 9.695312 15.28125 C 9.648438 15.421875 9.570312 15.535156 9.523438 15.671875 C 9.496094 15.75 9.5 15.820312 9.558594 15.886719 L 9.65625 15.980469 C 9.664062 15.988281 9.667969 15.992188 9.671875 15.992188 C 9.761719 16 9.804688 15.992188 9.875 15.921875 C 9.929688 15.867188 9.976562 15.8125 10.027344 15.746094 C 10.097656 15.65625 10.167969 15.492188 10.21875 15.433594 C 10.257812 15.339844 10.34375 15.277344 10.398438 15.203125 C 10.414062 15.175781 10.433594 15.148438 10.457031 15.125 C 10.4375 15.082031 10.433594 15.074219 10.40625 15.070312 C 10.371094 15.070312 10.355469 15.09375 10.335938 15.121094 C 10.324219 15.140625 10.3125 15.164062 10.292969 15.179688 C 10.242188 15.246094 10.203125 15.257812 10.148438 15.324219 C 10.023438 15.488281 9.925781 15.613281 9.773438 15.757812 C 9.765625 15.765625 9.753906 15.769531 9.742188 15.78125 Z M 10.152344 15.421875 C 10.109375 15.496094 10.054688 15.554688 9.992188 15.609375 C 10.03125 15.53125 10.054688 15.484375 10.117188 15.429688 L 10.15625 15.378906 C 10.210938 15.304688 10.21875 15.34375 10.152344 15.421875 Z M 9.320312 15.148438 C 9.351562 15.050781 9.390625 14.957031 9.445312 14.875 C 9.414062 14.972656 9.375 15.0625 9.335938 15.152344 Z M 9.320312 15.023438 C 9.3125 15.054688 9.3125 15.09375 9.273438 15.101562 C 9.265625 15.054688 9.304688 15.046875 9.320312 15.023438 Z M 9.320312 15.023438 "/>
<path style=" stroke:none;fill-rule:nonzero;fill:rgb(0%,0%,0%);fill-opacity:1;" d="M 11.179688 15.296875 C 11.164062 15.28125 11.140625 15.296875 11.125 15.3125 C 11.09375 15.351562 11.0625 15.382812 11.027344 15.417969 C 10.9375 15.5 11.007812 15.4375 10.914062 15.515625 C 10.8125 15.601562 10.710938 15.683594 10.601562 15.757812 C 10.507812 15.828125 10.40625 15.84375 10.292969 15.835938 C 10.226562 15.828125 10.21875 15.820312 10.226562 15.757812 C 10.234375 15.699219 10.246094 15.648438 10.257812 15.59375 C 10.273438 15.53125 10.304688 15.507812 10.363281 15.523438 C 10.390625 15.53125 10.414062 15.542969 10.4375 15.542969 C 10.59375 15.535156 10.730469 15.496094 10.835938 15.375 C 10.917969 15.28125 10.976562 15.171875 11.023438 15.054688 C 11.039062 15.015625 11.035156 14.976562 11.007812 14.9375 C 10.921875 14.8125 10.800781 14.757812 10.640625 14.78125 C 10.570312 14.789062 10.507812 14.8125 10.46875 14.871094 C 10.382812 14.988281 10.28125 15.089844 10.195312 15.214844 C 10.148438 15.273438 10.117188 15.335938 10.078125 15.402344 C 10.023438 15.527344 10 15.648438 10.066406 15.773438 C 10.109375 15.859375 10.15625 15.9375 10.261719 15.953125 C 10.28125 15.953125 10.296875 15.964844 10.3125 15.972656 C 10.375 16 10.4375 16 10.507812 15.976562 C 10.65625 15.929688 10.773438 15.835938 10.898438 15.738281 C 10.902344 15.734375 10.90625 15.730469 10.90625 15.726562 L 11.0625 15.539062 C 11.101562 15.492188 11.144531 15.453125 11.183594 15.40625 C 11.195312 15.390625 11.203125 15.367188 11.203125 15.351562 C 11.203125 15.328125 11.195312 15.304688 11.179688 15.296875 Z M 10.703125 15.320312 C 10.734375 15.28125 10.730469 15.28125 10.765625 15.304688 C 10.746094 15.3125 10.734375 15.3125 10.703125 15.320312 Z M 10.847656 15.15625 C 10.875 15.148438 10.890625 15.121094 10.90625 15.101562 C 10.921875 15.085938 10.933594 15.066406 10.953125 15.054688 C 10.929688 15.140625 10.90625 15.242188 10.773438 15.25 C 10.792969 15.203125 10.804688 15.175781 10.847656 15.15625 Z M 10.804688 14.960938 C 10.8125 15.140625 10.625 15.332031 10.386719 15.359375 C 10.515625 15.210938 10.613281 15.039062 10.804688 14.960938 Z M 10.804688 14.960938 "/>
<path style=" stroke:none;fill-rule:nonzero;fill:rgb(0%,0%,0%);fill-opacity:1;" d="M 12.101562 15.285156 C 12.234375 14.910156 12.46875 14.625 12.8125 14.425781 C 12.9375 14.476562 12.675781 14.847656 12.601562 14.9375 C 12.59375 14.945312 12.578125 14.953125 12.578125 14.960938 C 12.578125 15.015625 12.632812 15.085938 12.679688 15.0625 C 12.734375 15.03125 12.796875 14.992188 12.828125 14.945312 C 12.925781 14.789062 13.019531 14.625 13.046875 14.4375 C 13.054688 14.398438 13.007812 14.273438 12.96875 14.257812 C 12.824219 14.203125 12.671875 14.1875 12.546875 14.273438 C 12.179688 14.527344 11.964844 14.882812 11.878906 15.324219 C 11.847656 15.492188 11.84375 15.660156 11.988281 15.789062 C 12.085938 15.875 12.195312 15.949219 12.304688 15.910156 C 12.476562 15.847656 12.640625 15.761719 12.792969 15.648438 C 12.898438 15.566406 12.984375 15.460938 13.101562 15.390625 C 13.140625 15.363281 13.132812 15.34375 13.101562 15.3125 C 13.03125 15.265625 12.960938 15.273438 12.894531 15.320312 C 12.796875 15.390625 12.707031 15.460938 12.601562 15.523438 C 12.480469 15.601562 12.355469 15.671875 12.21875 15.734375 C 12.191406 15.75 12.101562 15.734375 12.097656 15.71875 C 12.070312 15.644531 12.058594 15.5625 12.058594 15.484375 C 12.0625 15.421875 12.085938 15.351562 12.101562 15.289062 Z M 12.109375 15.125 C 12.117188 15.109375 12.109375 15.132812 12.117188 15.148438 C 12.070312 15.226562 11.988281 15.5625 12.027344 15.625 C 11.945312 15.59375 12.039062 15.25 12.109375 15.125 Z M 12.628906 14.320312 C 12.492188 14.378906 12.164062 14.722656 12.070312 14.929688 C 12.054688 14.882812 12.113281 14.785156 12.210938 14.648438 C 12.222656 14.640625 12.53125 14.289062 12.628906 14.320312 Z M 12.628906 14.320312 "/>
<path style=" stroke:none;fill-rule:nonzero;fill:rgb(0%,0%,0%);fill-opacity:1;" d="M 13.445312 15.5 C 13.378906 15.554688 13.320312 15.601562 13.253906 15.652344 C 13.234375 15.671875 13.207031 15.6875 13.164062 15.679688 C 13.195312 15.625 13.242188 15.613281 13.28125 15.582031 L 13.390625 15.476562 C 13.421875 15.4375 13.445312 15.402344 13.484375 15.367188 C 13.519531 15.328125 13.554688 15.300781 13.59375 15.265625 C 13.59375 15.320312 13.5625 15.371094 13.539062 15.429688 C 13.539062 15.449219 13.542969 15.46875 13.539062 15.492188 C 13.507812 15.640625 13.515625 15.773438 13.613281 15.898438 C 13.695312 16 13.808594 16.003906 13.90625 15.9375 C 13.988281 15.886719 14.015625 15.835938 14.070312 15.75 C 14.101562 15.695312 14.148438 15.636719 14.171875 15.570312 C 14.21875 15.492188 14.347656 15.257812 14.367188 15.179688 C 14.367188 15.160156 14.359375 15.132812 14.34375 15.125 C 14.328125 15.117188 14.304688 15.128906 14.289062 15.140625 C 14.273438 15.148438 14.273438 15.160156 14.265625 15.171875 C 14.21875 15.273438 14.070312 15.519531 13.960938 15.617188 C 13.890625 15.703125 13.84375 15.703125 13.746094 15.765625 C 13.742188 15.75 13.742188 15.738281 13.742188 15.726562 C 13.757812 15.601562 13.773438 15.476562 13.855469 15.375 C 13.90625 15.304688 13.910156 15.242188 13.898438 15.164062 C 13.898438 15.125 13.867188 15.109375 13.855469 15.074219 C 13.84375 15.035156 13.816406 15.015625 13.78125 15.011719 C 13.75 15.003906 13.71875 15.003906 13.691406 15 C 13.585938 15.109375 13.492188 15.207031 13.390625 15.304688 C 13.3125 15.382812 13.242188 15.449219 13.164062 15.515625 L 13.074219 15.59375 C 13.078125 15.5625 13.070312 15.546875 13.078125 15.539062 C 13.121094 15.5 13.117188 15.429688 13.179688 15.414062 C 13.1875 15.410156 13.195312 15.398438 13.195312 15.390625 C 13.214844 15.3125 13.273438 15.277344 13.324219 15.230469 C 13.398438 15.15625 13.46875 15.097656 13.574219 15.0625 C 13.613281 15.046875 13.652344 15.023438 13.691406 15 C 13.703125 14.992188 13.707031 14.984375 13.71875 14.984375 C 13.742188 14.976562 13.761719 14.984375 13.765625 14.960938 C 13.777344 14.929688 13.773438 14.902344 13.75 14.882812 C 13.734375 14.867188 13.726562 14.851562 13.707031 14.835938 C 13.691406 14.820312 13.671875 14.8125 13.65625 14.804688 C 13.632812 14.796875 13.609375 14.792969 13.582031 14.789062 C 13.527344 14.78125 13.46875 14.78125 13.421875 14.8125 C 13.367188 14.851562 13.304688 14.890625 13.257812 14.9375 C 13.1875 15.007812 13.132812 15.082031 13.066406 15.148438 C 12.957031 15.269531 12.898438 15.414062 12.855469 15.570312 C 12.828125 15.679688 12.867188 15.757812 12.921875 15.835938 C 12.945312 15.882812 12.984375 15.898438 13.039062 15.882812 C 13.097656 15.875 13.140625 15.84375 13.183594 15.804688 C 13.25 15.746094 13.320312 15.683594 13.382812 15.617188 C 13.425781 15.578125 13.476562 15.546875 13.484375 15.476562 Z M 13.445312 15.5 "/>
<path style=" stroke:none;fill-rule:nonzero;fill:rgb(0%,0%,0%);fill-opacity:1;" d="M 14.414062 15.265625 C 14.453125 15.160156 14.519531 15.070312 14.589844 14.984375 C 14.632812 14.929688 14.65625 14.875 14.621094 14.8125 C 14.59375 14.761719 14.582031 14.734375 14.53125 14.71875 C 14.488281 14.699219 14.449219 14.714844 14.421875 14.746094 C 14.390625 14.773438 14.367188 14.804688 14.351562 14.835938 C 14.296875 14.9375 14.242188 15.035156 14.195312 15.136719 C 14.128906 15.265625 14.070312 15.390625 14.015625 15.515625 C 13.960938 15.65625 13.914062 15.789062 13.863281 15.921875 C 13.820312 16.050781 13.757812 16.242188 13.742188 16.382812 C 13.730469 16.433594 13.734375 16.476562 13.773438 16.515625 C 13.804688 16.542969 13.824219 16.578125 13.855469 16.601562 C 13.886719 16.617188 13.898438 16.625 13.9375 16.632812 C 13.964844 16.640625 13.996094 16.609375 13.984375 16.589844 C 13.957031 16.53125 13.984375 16.480469 13.976562 16.421875 C 13.96875 16.359375 13.976562 16.292969 14.007812 16.234375 C 14.039062 16.171875 14.070312 16.046875 14.105469 15.988281 C 14.164062 15.867188 14.226562 15.75 14.3125 15.648438 C 14.324219 15.625 14.335938 15.609375 14.359375 15.59375 C 14.375 15.582031 14.390625 15.585938 14.394531 15.601562 C 14.453125 15.671875 14.476562 15.671875 14.542969 15.71875 C 14.628906 15.785156 14.726562 15.765625 14.796875 15.730469 C 14.871094 15.671875 14.9375 15.617188 15.015625 15.558594 C 15.101562 15.523438 15.171875 15.507812 15.25 15.46875 C 15.265625 15.453125 15.296875 15.453125 15.3125 15.433594 C 15.367188 15.398438 15.414062 15.355469 15.460938 15.324219 C 15.5625 15.265625 15.578125 15.234375 15.664062 15.15625 C 15.710938 15.117188 15.746094 15.011719 15.722656 14.960938 C 15.679688 14.9375 15.609375 15 15.574219 15.03125 C 15.554688 15.054688 15.53125 15.074219 15.511719 15.101562 C 15.4375 15.179688 15.40625 15.1875 15.324219 15.246094 L 15.164062 15.359375 C 15.160156 15.335938 15.164062 15.320312 15.171875 15.304688 L 15.25 15.085938 C 15.28125 15 15.273438 14.925781 15.203125 14.859375 C 15.175781 14.832031 15.136719 14.820312 15.105469 14.800781 C 15.039062 14.757812 14.992188 14.773438 14.9375 14.8125 C 14.855469 14.875 14.773438 14.9375 14.695312 15.007812 C 14.601562 15.101562 14.507812 15.195312 14.40625 15.300781 Z M 14.144531 15.78125 C 14.15625 15.722656 14.160156 15.71875 14.203125 15.691406 C 14.226562 15.613281 14.28125 15.53125 14.328125 15.507812 C 14.324219 15.546875 14.28125 15.617188 14.203125 15.691406 Z M 14.972656 14.992188 C 15.011719 15.066406 14.972656 15.214844 14.867188 15.34375 C 14.796875 15.4375 14.703125 15.5 14.585938 15.53125 C 14.546875 15.546875 14.488281 15.527344 14.441406 15.496094 C 14.453125 15.476562 14.460938 15.457031 14.476562 15.4375 C 14.632812 15.28125 14.78125 15.117188 14.972656 14.992188 Z M 14.417969 15.40625 C 14.425781 15.390625 14.425781 15.375 14.4375 15.359375 C 14.53125 15.210938 14.855469 14.929688 14.976562 14.875 C 14.96875 14.921875 14.929688 14.9375 14.898438 14.964844 C 14.839844 15.015625 14.773438 15.0625 14.71875 15.121094 C 14.632812 15.207031 14.554688 15.289062 14.472656 15.375 L 14.429688 15.417969 Z M 14.417969 15.40625 "/>
<path style=" stroke:none;fill-rule:nonzero;fill:rgb(0%,0%,0%);fill-opacity:1;" d="M 15.671875 14.679688 C 15.617188 14.789062 15.5625 14.90625 15.507812 15.027344 C 15.414062 15.230469 15.351562 15.441406 15.3125 15.65625 C 15.289062 15.804688 15.289062 15.765625 15.394531 15.90625 C 15.445312 15.976562 15.59375 15.992188 15.683594 15.953125 C 15.757812 15.90625 15.828125 15.855469 15.882812 15.785156 C 15.976562 15.664062 16.03125 15.539062 16.136719 15.433594 C 16.183594 15.382812 16.195312 15.34375 16.242188 15.285156 C 16.273438 15.25 16.28125 15.1875 16.25 15.164062 C 16.210938 15.140625 16.179688 15.164062 16.132812 15.210938 C 16.070312 15.277344 16.078125 15.292969 16.023438 15.355469 C 15.921875 15.46875 15.695312 15.828125 15.546875 15.765625 C 15.53125 15.730469 15.53125 15.628906 15.542969 15.570312 C 15.550781 15.492188 15.578125 15.414062 15.609375 15.335938 C 15.632812 15.277344 15.679688 15.234375 15.671875 15.164062 C 15.671875 15.160156 15.683594 15.15625 15.6875 15.148438 C 15.710938 15.101562 15.789062 14.976562 15.8125 14.929688 C 15.882812 14.792969 15.917969 14.6875 15.988281 14.554688 C 16.101562 14.515625 16.296875 14.53125 16.335938 14.53125 C 16.351562 14.53125 16.375 14.539062 16.390625 14.53125 C 16.414062 14.523438 16.429688 14.515625 16.433594 14.496094 C 16.441406 14.476562 16.378906 14.382812 16.371094 14.367188 C 16.34375 14.339844 16.308594 14.328125 16.265625 14.335938 C 16.234375 14.335938 16.113281 14.375 16.09375 14.351562 C 16.101562 14.28125 16.179688 14.203125 16.140625 14.171875 C 16.054688 14.101562 15.972656 14.097656 15.921875 14.195312 C 15.898438 14.242188 15.871094 14.273438 15.851562 14.320312 C 15.835938 14.347656 15.816406 14.359375 15.785156 14.363281 C 15.695312 14.375 15.605469 14.382812 15.515625 14.394531 L 15.351562 14.414062 C 15.3125 14.421875 15.273438 14.453125 15.269531 14.484375 C 15.265625 14.53125 15.324219 14.605469 15.375 14.605469 C 15.429688 14.609375 15.488281 14.605469 15.546875 14.597656 C 15.59375 14.59375 15.644531 14.589844 15.710938 14.582031 Z M 16.0625 15.421875 C 16.011719 15.492188 15.960938 15.554688 15.90625 15.613281 C 15.90625 15.613281 15.898438 15.609375 15.898438 15.609375 C 15.898438 15.601562 15.898438 15.59375 15.902344 15.585938 C 15.941406 15.527344 15.980469 15.476562 16.023438 15.421875 C 16.03125 15.414062 16.042969 15.414062 16.054688 15.410156 Z M 16.0625 15.421875 "/>
<path style=" stroke:none;fill-rule:nonzero;fill:rgb(0%,0%,0%);fill-opacity:1;" d="M 16.707031 15.21875 C 16.675781 15.210938 16.648438 15.21875 16.625 15.242188 C 16.554688 15.328125 16.441406 15.464844 16.367188 15.546875 C 16.320312 15.601562 16.265625 15.652344 16.210938 15.703125 C 16.195312 15.71875 16.171875 15.726562 16.15625 15.738281 C 16.148438 15.734375 16.148438 15.730469 16.140625 15.726562 C 16.167969 15.652344 16.191406 15.578125 16.21875 15.5 C 16.226562 15.476562 16.234375 15.445312 16.25 15.421875 C 16.289062 15.359375 16.304688 15.285156 16.367188 15.242188 C 16.382812 15.230469 16.398438 15.214844 16.40625 15.195312 L 16.542969 14.984375 C 16.5625 14.960938 16.5625 14.9375 16.558594 14.90625 C 16.539062 14.820312 16.484375 14.773438 16.40625 14.742188 C 16.351562 14.71875 16.328125 14.726562 16.296875 14.773438 C 16.25 14.859375 16.203125 14.945312 16.15625 15.035156 C 16.105469 15.140625 16.070312 15.296875 16.023438 15.402344 C 15.976562 15.507812 15.96875 15.582031 15.945312 15.695312 C 15.9375 15.75 15.949219 15.800781 15.984375 15.84375 C 16.003906 15.867188 16.023438 15.882812 16.039062 15.90625 C 16.0625 15.933594 16.09375 15.941406 16.125 15.925781 C 16.148438 15.921875 16.257812 15.828125 16.308594 15.78125 C 16.367188 15.71875 16.386719 15.6875 16.460938 15.625 C 16.53125 15.507812 16.648438 15.457031 16.695312 15.328125 C 16.726562 15.289062 16.726562 15.226562 16.707031 15.21875 Z M 16.867188 14.210938 C 16.859375 14.203125 16.851562 14.195312 16.839844 14.1875 C 16.804688 14.148438 16.757812 14.140625 16.710938 14.132812 C 16.699219 14.132812 16.6875 14.144531 16.679688 14.15625 C 16.601562 14.265625 16.53125 14.375 16.5 14.511719 C 16.492188 14.53125 16.492188 14.550781 16.492188 14.570312 C 16.492188 14.59375 16.554688 14.609375 16.59375 14.609375 C 16.601562 14.609375 16.613281 14.609375 16.632812 14.605469 C 16.726562 14.570312 16.796875 14.507812 16.847656 14.421875 C 16.867188 14.390625 16.882812 14.359375 16.90625 14.335938 C 16.941406 14.289062 16.898438 14.25 16.867188 14.210938 Z M 16.867188 14.210938 "/>
<path style=" stroke:none;fill-rule:nonzero;fill:rgb(0%,0%,0%);fill-opacity:1;" d="M 16.679688 15.648438 C 16.679688 15.640625 16.675781 15.640625 16.679688 15.632812 C 16.71875 15.570312 16.71875 15.5 16.75 15.4375 C 16.824219 15.28125 16.867188 15.117188 16.960938 14.972656 C 16.96875 14.953125 16.972656 14.929688 16.96875 14.90625 C 16.960938 14.824219 16.898438 14.773438 16.84375 14.742188 C 16.796875 14.707031 16.695312 14.75 16.679688 14.8125 C 16.632812 14.988281 16.582031 15.164062 16.53125 15.339844 C 16.492188 15.46875 16.476562 15.59375 16.460938 15.730469 C 16.457031 15.796875 16.476562 15.851562 16.53125 15.898438 C 16.570312 15.9375 16.640625 15.960938 16.691406 15.945312 C 16.8125 15.898438 16.914062 15.820312 16.980469 15.75 C 17.078125 15.628906 17.132812 15.574219 17.203125 15.429688 C 17.210938 15.410156 17.222656 15.382812 17.238281 15.367188 C 17.273438 15.316406 17.296875 15.261719 17.34375 15.214844 C 17.355469 15.234375 17.367188 15.335938 17.375 15.351562 C 17.429688 15.46875 17.460938 15.546875 17.574219 15.480469 C 17.585938 15.476562 17.605469 15.46875 17.609375 15.460938 C 17.65625 15.402344 17.695312 15.390625 17.726562 15.34375 C 17.789062 15.289062 17.828125 15.234375 17.890625 15.1875 C 17.914062 15.171875 17.929688 15.148438 17.949219 15.132812 L 17.921875 15.082031 C 17.890625 15.023438 17.84375 15.023438 17.804688 15.082031 C 17.796875 15.09375 17.796875 15.101562 17.785156 15.109375 C 17.71875 15.1875 17.664062 15.296875 17.5625 15.363281 C 17.523438 15.382812 17.523438 15.238281 17.546875 15.203125 C 17.554688 15.148438 17.574219 15.097656 17.59375 15.039062 C 17.605469 14.976562 17.632812 14.914062 17.675781 14.863281 C 17.710938 14.820312 17.71875 14.78125 17.695312 14.730469 C 17.6875 14.707031 17.671875 14.6875 17.664062 14.664062 C 17.605469 14.578125 17.53125 14.578125 17.460938 14.65625 C 17.417969 14.710938 17.390625 14.773438 17.375 14.851562 C 17.367188 14.898438 17.351562 14.929688 17.320312 14.96875 C 17.273438 15.015625 17.234375 15.0625 17.195312 15.121094 C 17.089844 15.273438 16.992188 15.417969 16.890625 15.574219 C 16.859375 15.621094 16.828125 15.664062 16.789062 15.703125 C 16.757812 15.742188 16.734375 15.769531 16.6875 15.789062 Z M 17.320312 15.089844 C 17.320312 15.226562 17.226562 15.296875 17.1875 15.390625 C 17.144531 15.410156 17.140625 15.445312 17.132812 15.480469 C 17.125 15.5 17.109375 15.515625 17.097656 15.535156 C 17.070312 15.570312 17.050781 15.601562 17.023438 15.632812 C 17 15.664062 16.980469 15.710938 16.914062 15.6875 C 16.9375 15.671875 16.953125 15.664062 16.964844 15.644531 C 16.988281 15.625 17.023438 15.609375 17 15.5625 C 17 15.554688 17.007812 15.539062 17.015625 15.53125 L 17.242188 15.195312 C 17.269531 15.160156 17.296875 15.132812 17.320312 15.089844 Z M 17.320312 15.089844 "/>
<path style=" stroke:none;fill-rule:nonzero;fill:rgb(0%,0%,0%);fill-opacity:1;" d="M 18.671875 15.296875 C 18.65625 15.28125 18.632812 15.296875 18.617188 15.3125 C 18.585938 15.351562 18.554688 15.382812 18.519531 15.417969 C 18.429688 15.5 18.496094 15.4375 18.40625 15.515625 C 18.304688 15.601562 18.203125 15.683594 18.09375 15.757812 C 18 15.828125 17.898438 15.84375 17.785156 15.835938 C 17.71875 15.828125 17.710938 15.820312 17.71875 15.757812 C 17.726562 15.699219 17.738281 15.648438 17.75 15.59375 C 17.765625 15.53125 17.796875 15.507812 17.855469 15.523438 C 17.882812 15.53125 17.902344 15.542969 17.929688 15.542969 C 18.085938 15.535156 18.21875 15.496094 18.328125 15.375 C 18.410156 15.28125 18.46875 15.171875 18.515625 15.054688 C 18.53125 15.015625 18.523438 14.976562 18.5 14.9375 C 18.414062 14.8125 18.289062 14.757812 18.132812 14.78125 C 18.0625 14.789062 18 14.8125 17.960938 14.871094 C 17.875 14.988281 17.769531 15.089844 17.6875 15.214844 C 17.640625 15.273438 17.609375 15.335938 17.570312 15.402344 C 17.515625 15.527344 17.492188 15.648438 17.554688 15.773438 C 17.601562 15.859375 17.648438 15.9375 17.753906 15.953125 C 17.773438 15.953125 17.789062 15.964844 17.804688 15.972656 C 17.863281 16 17.929688 16 18 15.976562 C 18.148438 15.929688 18.265625 15.835938 18.390625 15.738281 C 18.390625 15.734375 18.398438 15.730469 18.398438 15.726562 L 18.554688 15.539062 C 18.59375 15.492188 18.636719 15.453125 18.675781 15.40625 C 18.6875 15.390625 18.695312 15.367188 18.695312 15.351562 C 18.695312 15.328125 18.6875 15.304688 18.671875 15.296875 Z M 18.195312 15.320312 C 18.226562 15.28125 18.21875 15.28125 18.257812 15.304688 C 18.238281 15.3125 18.226562 15.3125 18.195312 15.320312 Z M 18.339844 15.15625 C 18.367188 15.148438 18.382812 15.121094 18.398438 15.101562 C 18.414062 15.085938 18.421875 15.066406 18.445312 15.054688 C 18.421875 15.140625 18.398438 15.242188 18.265625 15.25 C 18.285156 15.203125 18.296875 15.175781 18.339844 15.15625 Z M 18.296875 14.960938 C 18.304688 15.140625 18.117188 15.332031 17.878906 15.359375 C 18.007812 15.210938 18.105469 15.039062 18.296875 14.960938 Z M 18.296875 14.960938 "/>
<path style=" stroke:none;fill-rule:nonzero;fill:rgb(0%,0%,0%);fill-opacity:1;" d="M 19.5 15.082031 C 19.5 15.0625 19.503906 15.03125 19.472656 15.023438 C 19.449219 15.015625 19.429688 15.015625 19.40625 15.015625 C 19.382812 15.015625 19.359375 15.027344 19.34375 15.039062 C 19.269531 15.078125 19.300781 15.066406 19.234375 15.113281 C 19.117188 15.203125 18.984375 15.277344 18.851562 15.355469 C 18.839844 15.363281 18.820312 15.363281 18.804688 15.371094 C 18.78125 15.324219 18.796875 15.289062 18.816406 15.257812 C 18.835938 15.226562 18.859375 15.199219 18.875 15.171875 C 18.90625 15.121094 18.9375 15.078125 18.984375 15.039062 C 19.015625 15.015625 19.03125 14.992188 19.046875 14.96875 C 19.070312 14.894531 18.984375 14.757812 18.910156 14.746094 C 18.882812 14.742188 18.828125 14.765625 18.8125 14.785156 L 18.675781 15 C 18.609375 15.109375 18.585938 15.21875 18.640625 15.34375 C 18.65625 15.378906 18.664062 15.410156 18.679688 15.453125 C 18.621094 15.476562 18.570312 15.507812 18.515625 15.523438 C 18.421875 15.554688 18.328125 15.601562 18.222656 15.585938 C 18.195312 15.585938 18.152344 15.625 18.15625 15.648438 C 18.175781 15.707031 18.179688 15.761719 18.226562 15.808594 C 18.28125 15.859375 18.332031 15.890625 18.398438 15.910156 C 18.53125 15.945312 18.65625 15.960938 18.78125 15.921875 C 18.859375 15.898438 18.917969 15.84375 18.953125 15.773438 C 18.984375 15.707031 18.949219 15.648438 18.921875 15.59375 C 18.910156 15.566406 18.894531 15.542969 18.878906 15.515625 C 18.898438 15.496094 18.914062 15.488281 18.929688 15.476562 C 19.046875 15.414062 19.164062 15.34375 19.273438 15.265625 C 19.34375 15.21875 19.332031 15.234375 19.402344 15.1875 C 19.441406 15.167969 19.5 15.09375 19.5 15.082031 Z M 18.726562 15.527344 C 18.703125 15.539062 18.675781 15.546875 18.632812 15.570312 C 18.671875 15.523438 18.675781 15.519531 18.726562 15.527344 Z M 18.511719 15.679688 C 18.574219 15.65625 18.695312 15.601562 18.75 15.585938 C 18.75 15.59375 18.75 15.59375 18.757812 15.601562 C 18.730469 15.75 18.613281 15.777344 18.511719 15.679688 Z M 18.851562 15.449219 C 18.875 15.410156 18.910156 15.402344 18.949219 15.394531 C 18.921875 15.429688 18.890625 15.4375 18.851562 15.449219 Z M 18.851562 15.449219 "/>
<path style=" stroke:none;fill-rule:nonzero;fill:rgb(0%,0%,0%);fill-opacity:1;" d="M 21.125 14.242188 C 21.09375 14.242188 21.054688 14.242188 21.015625 14.242188 C 20.859375 14.234375 20.710938 14.234375 20.554688 14.226562 C 20.523438 14.226562 20.492188 14.210938 20.464844 14.210938 C 20.421875 14.210938 20.375 14.226562 20.328125 14.238281 C 20.3125 14.238281 20.304688 14.242188 20.304688 14.25 C 20.292969 14.308594 20.269531 14.363281 20.277344 14.414062 C 20.296875 14.578125 20.207031 14.714844 20.160156 14.863281 C 20.15625 14.882812 20.132812 14.890625 20.117188 14.898438 C 20.03125 14.957031 20.007812 15.042969 20.046875 15.140625 C 20.0625 15.171875 20.0625 15.203125 20.054688 15.238281 L 19.945312 15.679688 C 19.9375 15.695312 19.9375 15.71875 19.945312 15.722656 C 19.992188 15.757812 19.980469 15.828125 20.03125 15.867188 C 20.078125 15.90625 20.085938 15.90625 20.113281 15.851562 C 20.109375 15.847656 20.109375 15.847656 20.109375 15.84375 C 20.109375 15.847656 20.113281 15.847656 20.113281 15.851562 C 20.140625 15.875 20.15625 15.882812 20.15625 15.828125 C 20.15625 15.796875 20.160156 15.765625 20.160156 15.734375 C 20.160156 15.625 20.226562 15.46875 20.226562 15.390625 C 20.226562 15.351562 20.226562 15.273438 20.230469 15.257812 C 20.25 15.238281 20.261719 15.21875 20.28125 15.195312 C 20.296875 15.179688 20.308594 15.164062 20.328125 15.164062 C 20.382812 15.15625 20.449219 15.15625 20.507812 15.148438 C 20.644531 15.128906 20.761719 15.132812 20.882812 15.179688 C 20.894531 15.179688 20.921875 15.171875 20.925781 15.152344 C 20.960938 15.074219 20.914062 14.945312 20.84375 14.9375 C 20.6875 14.90625 20.53125 14.894531 20.378906 14.871094 C 20.421875 14.789062 20.460938 14.636719 20.542969 14.558594 C 20.609375 14.453125 20.851562 14.5 21.007812 14.5 C 21.007812 14.5 21.007812 14.5 21.011719 14.5 C 21.011719 14.5 21.007812 14.5 21.007812 14.503906 C 21.035156 14.496094 21.066406 14.492188 21.09375 14.492188 C 21.144531 14.492188 21.195312 14.5 21.246094 14.5 C 21.261719 14.5 21.296875 14.484375 21.296875 14.476562 C 21.304688 14.359375 21.269531 14.257812 21.125 14.242188 Z M 20.085938 15.726562 L 20.085938 15.734375 Z M 20.1875 15.335938 C 20.1875 15.328125 20.1875 15.328125 20.1875 15.324219 C 20.195312 15.328125 20.195312 15.328125 20.195312 15.332031 C 20.195312 15.335938 20.195312 15.335938 20.1875 15.335938 Z M 20.792969 14.945312 C 20.820312 14.949219 20.867188 14.972656 20.867188 14.976562 C 20.820312 14.976562 20.640625 14.9375 20.59375 14.929688 C 20.597656 14.917969 20.628906 14.921875 20.640625 14.921875 Z M 20.558594 14.921875 C 20.566406 14.921875 20.5625 14.925781 20.570312 14.925781 C 20.5625 14.929688 20.554688 14.929688 20.558594 14.929688 C 20.554688 14.933594 20.554688 14.929688 20.550781 14.925781 C 20.554688 14.925781 20.554688 14.921875 20.558594 14.921875 Z M 20.71875 14.976562 C 20.773438 14.976562 20.867188 15 20.867188 15.007812 L 20.335938 14.96875 C 20.335938 14.960938 20.351562 14.957031 20.371094 14.953125 Z M 21 14.296875 C 20.984375 14.296875 20.71875 14.289062 20.707031 14.289062 C 20.675781 14.289062 20.574219 14.257812 20.65625 14.265625 C 20.667969 14.265625 21.140625 14.289062 21.148438 14.289062 C 21.148438 14.289062 21.03125 14.304688 21 14.296875 Z M 21 14.296875 "/>
<path style=" stroke:none;fill-rule:nonzero;fill:rgb(0%,0%,0%);fill-opacity:1;" d="M 21.5625 15.75 C 21.578125 15.664062 21.59375 15.625 21.679688 15.476562 C 21.75 15.363281 21.851562 15.277344 21.914062 15.179688 C 21.96875 15.101562 21.964844 15.082031 21.882812 15.03125 C 21.828125 14.996094 21.773438 14.976562 21.703125 15.003906 C 21.632812 15.03125 21.5625 15.050781 21.492188 15.078125 L 21.414062 15.101562 C 21.421875 15.066406 21.433594 15.054688 21.441406 15.035156 C 21.457031 15 21.472656 14.96875 21.484375 14.933594 C 21.515625 14.828125 21.449219 14.734375 21.34375 14.734375 C 21.296875 14.734375 21.25 14.746094 21.199219 14.746094 C 21.164062 14.742188 21.144531 14.757812 21.117188 14.773438 C 21.011719 14.859375 20.960938 14.96875 20.933594 15.097656 C 20.914062 15.195312 20.996094 15.265625 21.078125 15.3125 C 21.09375 15.328125 20.800781 15.574219 20.851562 15.621094 C 20.914062 15.691406 21.105469 15.515625 21.234375 15.34375 C 21.304688 15.3125 21.457031 15.28125 21.542969 15.257812 C 21.53125 15.273438 21.527344 15.285156 21.523438 15.304688 C 21.484375 15.375 21.492188 15.359375 21.453125 15.429688 C 21.394531 15.542969 21.375 15.570312 21.351562 15.6875 C 21.339844 15.746094 21.359375 15.796875 21.394531 15.835938 C 21.4375 15.875 21.492188 15.910156 21.542969 15.9375 C 21.585938 15.964844 21.625 15.960938 21.667969 15.9375 C 21.789062 15.851562 21.8125 15.820312 21.902344 15.703125 C 21.972656 15.613281 22.03125 15.554688 22.089844 15.445312 C 22.15625 15.375 22.257812 15.226562 22.222656 15.1875 C 22.15625 15.125 22.074219 15.226562 22.066406 15.242188 C 21.996094 15.359375 21.835938 15.5625 21.75 15.671875 C 21.71875 15.703125 21.628906 15.78125 21.5625 15.75 Z M 21.140625 15.171875 C 21.179688 15.085938 21.207031 15.015625 21.273438 14.960938 C 21.261719 15.023438 21.195312 15.140625 21.140625 15.171875 Z M 21.140625 15.171875 "/>
<path style=" stroke:none;fill-rule:nonzero;fill:rgb(0%,0%,0%);fill-opacity:1;" d="M 23.046875 15.296875 C 23.03125 15.28125 23.011719 15.296875 22.992188 15.3125 C 22.960938 15.351562 22.929688 15.382812 22.894531 15.417969 C 22.804688 15.5 22.875 15.4375 22.78125 15.515625 C 22.679688 15.601562 22.578125 15.683594 22.46875 15.757812 C 22.375 15.828125 22.273438 15.84375 22.160156 15.835938 C 22.09375 15.828125 22.085938 15.820312 22.09375 15.757812 C 22.101562 15.699219 22.117188 15.648438 22.125 15.59375 C 22.140625 15.53125 22.175781 15.507812 22.230469 15.523438 C 22.257812 15.53125 22.28125 15.542969 22.304688 15.542969 C 22.460938 15.535156 22.597656 15.496094 22.703125 15.375 C 22.789062 15.28125 22.84375 15.171875 22.890625 15.054688 C 22.90625 15.015625 22.902344 14.976562 22.875 14.9375 C 22.789062 14.8125 22.667969 14.757812 22.511719 14.78125 C 22.441406 14.789062 22.378906 14.8125 22.335938 14.871094 C 22.25 14.988281 22.148438 15.089844 22.0625 15.214844 C 22.015625 15.273438 21.984375 15.335938 21.945312 15.402344 C 21.890625 15.527344 21.867188 15.648438 21.933594 15.773438 C 21.980469 15.859375 22.023438 15.9375 22.128906 15.953125 C 22.148438 15.953125 22.164062 15.964844 22.179688 15.972656 C 22.242188 16 22.304688 16 22.378906 15.976562 C 22.523438 15.929688 22.640625 15.835938 22.765625 15.738281 C 22.769531 15.734375 22.773438 15.730469 22.777344 15.726562 L 22.929688 15.539062 C 22.96875 15.492188 23.015625 15.453125 23.054688 15.40625 C 23.0625 15.390625 23.070312 15.367188 23.070312 15.351562 C 23.070312 15.328125 23.0625 15.304688 23.046875 15.296875 Z M 22.574219 15.320312 C 22.601562 15.28125 22.597656 15.28125 22.632812 15.304688 C 22.617188 15.3125 22.601562 15.3125 22.574219 15.320312 Z M 22.71875 15.15625 C 22.742188 15.148438 22.757812 15.121094 22.773438 15.101562 C 22.789062 15.085938 22.800781 15.066406 22.820312 15.054688 C 22.796875 15.140625 22.773438 15.242188 22.644531 15.25 C 22.660156 15.203125 22.671875 15.175781 22.71875 15.15625 Z M 22.671875 14.960938 C 22.679688 15.140625 22.492188 15.332031 22.257812 15.359375 C 22.382812 15.210938 22.484375 15.039062 22.671875 14.960938 Z M 22.671875 14.960938 "/>
<path style=" stroke:none;fill-rule:nonzero;fill:rgb(0%,0%,0%);fill-opacity:1;" d="M 23.941406 15.296875 C 23.921875 15.28125 23.90625 15.296875 23.886719 15.3125 C 23.855469 15.351562 23.824219 15.382812 23.789062 15.417969 C 23.695312 15.5 23.765625 15.4375 23.679688 15.515625 C 23.574219 15.601562 23.472656 15.683594 23.363281 15.757812 C 23.269531 15.828125 23.167969 15.84375 23.054688 15.835938 C 22.984375 15.828125 22.976562 15.820312 22.984375 15.757812 C 22.992188 15.699219 23.007812 15.648438 23.023438 15.59375 C 23.03125 15.53125 23.070312 15.507812 23.125 15.523438 C 23.148438 15.53125 23.171875 15.542969 23.199219 15.542969 C 23.351562 15.535156 23.492188 15.496094 23.59375 15.375 C 23.679688 15.28125 23.738281 15.171875 23.78125 15.054688 C 23.800781 15.015625 23.796875 14.976562 23.769531 14.9375 C 23.6875 14.8125 23.5625 14.757812 23.40625 14.78125 C 23.335938 14.789062 23.273438 14.8125 23.230469 14.871094 C 23.144531 14.988281 23.039062 15.089844 22.953125 15.214844 C 22.910156 15.273438 22.878906 15.335938 22.84375 15.402344 C 22.78125 15.527344 22.761719 15.648438 22.828125 15.773438 C 22.875 15.859375 22.921875 15.9375 23.023438 15.953125 C 23.042969 15.953125 23.054688 15.964844 23.078125 15.972656 C 23.132812 16 23.199219 16 23.273438 15.976562 C 23.421875 15.929688 23.535156 15.835938 23.65625 15.738281 C 23.664062 15.734375 23.667969 15.730469 23.671875 15.726562 L 23.820312 15.539062 C 23.863281 15.492188 23.90625 15.453125 23.945312 15.40625 C 23.957031 15.390625 23.964844 15.367188 23.964844 15.351562 C 23.964844 15.328125 23.957031 15.304688 23.941406 15.296875 Z M 23.46875 15.320312 C 23.492188 15.28125 23.492188 15.28125 23.527344 15.304688 C 23.507812 15.3125 23.492188 15.3125 23.46875 15.320312 Z M 23.609375 15.15625 C 23.636719 15.148438 23.648438 15.121094 23.667969 15.101562 C 23.6875 15.085938 23.695312 15.066406 23.710938 15.054688 C 23.6875 15.140625 23.664062 15.242188 23.539062 15.25 C 23.554688 15.203125 23.5625 15.175781 23.609375 15.15625 Z M 23.566406 14.960938 C 23.574219 15.140625 23.386719 15.332031 23.148438 15.359375 C 23.277344 15.210938 23.375 15.039062 23.566406 14.960938 Z M 23.566406 14.960938 "/>
<path style=" stroke:none;fill-rule:nonzero;fill:rgb(0%,0%,0%);fill-opacity:1;" d="M 20.964844 5.640625 C 20.964844 5.722656 20.96875 5.804688 20.964844 5.886719 C 20.960938 5.914062 20.953125 5.9375 20.945312 5.964844 C 20.917969 5.957031 20.890625 5.953125 20.867188 5.941406 C 20.78125 5.898438 20.695312 5.84375 20.601562 5.804688 C 20.1875 5.648438 19.820312 6 19.820312 6.378906 C 19.8125 6.652344 19.914062 6.875 20.09375 7.066406 C 20.257812 7.238281 20.425781 7.40625 20.578125 7.585938 C 20.757812 7.785156 20.933594 7.988281 21.054688 8.234375 C 21.132812 8.394531 21.171875 8.570312 21.183594 8.746094 C 21.199219 9 21.199219 9.25 21.109375 9.492188 C 21 9.78125 20.835938 10.015625 20.5625 10.15625 C 20.28125 10.296875 19.992188 10.304688 19.6875 10.238281 C 19.5625 10.210938 19.453125 10.148438 19.351562 10.078125 C 19.320312 10.0625 19.289062 10.019531 19.289062 9.988281 C 19.285156 9.800781 19.289062 9.613281 19.296875 9.425781 C 19.296875 9.351562 19.3125 9.351562 19.367188 9.390625 C 19.496094 9.484375 19.632812 9.566406 19.785156 9.597656 C 20.085938 9.65625 20.324219 9.597656 20.46875 9.257812 C 20.523438 9.136719 20.53125 8.992188 20.515625 8.84375 C 20.492188 8.664062 20.433594 8.5 20.328125 8.351562 C 20.269531 8.273438 20.207031 8.195312 20.140625 8.125 C 19.957031 7.929688 19.765625 7.742188 19.589844 7.539062 C 19.449219 7.378906 19.300781 7.210938 19.234375 7 C 19.191406 6.859375 19.144531 6.714844 19.148438 6.5625 C 19.148438 6.515625 19.148438 6.464844 19.148438 6.414062 C 19.132812 6.140625 19.195312 5.882812 19.332031 5.648438 C 19.453125 5.4375 19.621094 5.289062 19.847656 5.207031 C 20.089844 5.117188 20.335938 5.117188 20.585938 5.167969 C 20.695312 5.1875 20.804688 5.242188 20.914062 5.289062 C 20.9375 5.300781 20.960938 5.351562 20.960938 5.382812 C 20.96875 5.46875 20.964844 5.554688 20.964844 5.640625 "/>
<path style=" stroke:none;fill-rule:nonzero;fill:rgb(0%,0%,0%);fill-opacity:1;" d="M 3.8125 10.226562 L 3.8125 5.21875 L 5.585938 5.21875 L 5.585938 5.789062 L 4.480469 5.789062 L 4.480469 7.378906 L 5.460938 7.378906 L 5.460938 7.953125 L 4.480469 7.953125 L 4.480469 9.65625 L 5.585938 9.65625 L 5.585938 10.101562 L 5.523438 10.226562 Z M 3.8125 10.226562 "/>
<path style=" stroke:none;fill-rule:nonzero;fill:rgb(0%,0%,0%);fill-opacity:1;" d="M 4.085938 1.394531 L 4.085938 2.335938 L 4.546875 2.34375 C 4.734375 2.34375 4.875 2.324219 4.960938 2.289062 C 5.046875 2.253906 5.117188 2.199219 5.164062 2.121094 C 5.214844 2.046875 5.238281 1.960938 5.238281 1.863281 C 5.238281 1.773438 5.214844 1.6875 5.164062 1.609375 C 5.117188 1.53125 5.046875 1.476562 4.96875 1.445312 C 4.886719 1.414062 4.753906 1.394531 4.570312 1.394531 Z M 3.8125 1.125 L 4.359375 1.125 C 4.671875 1.125 4.882812 1.140625 4.992188 1.164062 C 5.148438 1.203125 5.273438 1.285156 5.375 1.40625 C 5.472656 1.527344 5.523438 1.679688 5.523438 1.863281 C 5.523438 2.046875 5.472656 2.199219 5.375 2.320312 C 5.28125 2.4375 5.148438 2.519531 4.976562 2.5625 C 4.851562 2.59375 4.621094 2.609375 4.28125 2.609375 L 4.085938 2.609375 L 4.085938 3.894531 L 3.8125 3.894531 Z M 3.8125 1.125 "/>
<path style=" stroke:none;fill-rule:nonzero;fill:rgb(0%,0%,0%);fill-opacity:1;" d="M 6.554688 1.394531 L 6.554688 2.335938 L 7.023438 2.34375 C 7.203125 2.34375 7.34375 2.324219 7.429688 2.289062 C 7.515625 2.253906 7.585938 2.195312 7.632812 2.117188 C 7.679688 2.042969 7.707031 1.957031 7.707031 1.859375 C 7.707031 1.765625 7.679688 1.683594 7.632812 1.609375 C 7.582031 1.53125 7.515625 1.476562 7.4375 1.445312 C 7.355469 1.414062 7.222656 1.394531 7.035156 1.394531 Z M 6.28125 1.125 L 6.824219 1.125 C 7.125 1.125 7.335938 1.136719 7.441406 1.164062 C 7.601562 1.199219 7.734375 1.28125 7.835938 1.40625 C 7.9375 1.527344 7.992188 1.679688 7.992188 1.859375 C 7.992188 2.011719 7.953125 2.144531 7.882812 2.257812 C 7.8125 2.375 7.714844 2.460938 7.585938 2.519531 C 7.453125 2.578125 7.273438 2.609375 7.046875 2.609375 L 8.027344 3.894531 L 7.6875 3.894531 L 6.707031 2.609375 L 6.554688 2.609375 L 6.554688 3.894531 L 6.28125 3.894531 Z M 6.28125 1.125 "/>
<path style=" stroke:none;fill-rule:nonzero;fill:rgb(0%,0%,0%);fill-opacity:1;" d="M 10.066406 1.324219 C 9.867188 1.324219 9.671875 1.375 9.492188 1.484375 C 9.3125 1.59375 9.171875 1.734375 9.066406 1.914062 C 8.964844 2.097656 8.914062 2.296875 8.914062 2.523438 C 8.914062 2.851562 9.027344 3.128906 9.25 3.355469 C 9.476562 3.582031 9.75 3.695312 10.066406 3.695312 C 10.28125 3.695312 10.476562 3.640625 10.65625 3.539062 C 10.835938 3.4375 10.976562 3.292969 11.078125 3.109375 C 11.179688 2.929688 11.230469 2.726562 11.230469 2.507812 C 11.230469 2.289062 11.179688 2.089844 11.078125 1.910156 C 10.976562 1.734375 10.835938 1.59375 10.652344 1.484375 C 10.46875 1.375 10.273438 1.324219 10.066406 1.324219 M 10.054688 1.054688 C 10.46875 1.054688 10.816406 1.195312 11.09375 1.476562 C 11.375 1.753906 11.515625 2.101562 11.515625 2.507812 C 11.515625 2.914062 11.375 3.257812 11.09375 3.539062 C 10.816406 3.824219 10.476562 3.964844 10.078125 3.964844 C 9.671875 3.964844 9.328125 3.824219 9.050781 3.542969 C 8.773438 3.261719 8.632812 2.921875 8.632812 2.523438 C 8.632812 2.257812 8.695312 2.007812 8.820312 1.78125 C 8.949219 1.554688 9.125 1.375 9.34375 1.25 C 9.5625 1.117188 9.796875 1.054688 10.054688 1.054688 "/>
<path style=" stroke:none;fill-rule:nonzero;fill:rgb(0%,0%,0%);fill-opacity:1;" d="M 13.132812 1.125 L 13.40625 1.125 L 13.40625 2.992188 C 13.40625 3.28125 13.386719 3.484375 13.34375 3.59375 C 13.296875 3.707031 13.226562 3.796875 13.125 3.863281 C 13.019531 3.929688 12.894531 3.964844 12.75 3.964844 C 12.640625 3.964844 12.53125 3.945312 12.421875 3.898438 C 12.316406 3.859375 12.195312 3.78125 12.066406 3.671875 L 12.210938 3.453125 C 12.355469 3.554688 12.472656 3.625 12.570312 3.664062 C 12.628906 3.695312 12.691406 3.707031 12.75 3.707031 C 12.828125 3.707031 12.898438 3.683594 12.960938 3.632812 C 13.027344 3.585938 13.070312 3.523438 13.097656 3.445312 C 13.125 3.367188 13.132812 3.210938 13.132812 2.984375 Z M 13.132812 1.125 "/>
<path style=" stroke:none;fill-rule:nonzero;fill:rgb(0%,0%,0%);fill-opacity:1;" d="M 14.242188 1.125 L 15.8125 1.125 L 15.8125 1.394531 L 14.515625 1.394531 L 14.515625 2.265625 L 15.800781 2.265625 L 15.800781 2.535156 L 14.515625 2.535156 L 14.515625 3.625 L 15.800781 3.625 L 15.800781 3.894531 L 14.242188 3.894531 Z M 14.242188 1.125 "/>
<path style=" stroke:none;fill-rule:nonzero;fill:rgb(0%,0%,0%);fill-opacity:1;" d="M 19.015625 1.640625 L 18.804688 1.804688 C 18.683594 1.648438 18.539062 1.53125 18.375 1.449219 C 18.207031 1.367188 18.023438 1.328125 17.824219 1.328125 C 17.609375 1.328125 17.40625 1.382812 17.21875 1.484375 C 17.03125 1.59375 16.890625 1.734375 16.789062 1.914062 C 16.683594 2.09375 16.632812 2.296875 16.632812 2.515625 C 16.632812 2.855469 16.75 3.140625 16.976562 3.363281 C 17.203125 3.589844 17.492188 3.703125 17.84375 3.703125 C 18.226562 3.703125 18.546875 3.550781 18.804688 3.25 L 19.015625 3.414062 C 18.882812 3.585938 18.710938 3.726562 18.507812 3.820312 C 18.304688 3.914062 18.078125 3.964844 17.824219 3.964844 C 17.34375 3.964844 16.96875 3.804688 16.695312 3.480469 C 16.460938 3.210938 16.34375 2.878906 16.34375 2.492188 C 16.34375 2.085938 16.484375 1.746094 16.765625 1.46875 C 17.046875 1.195312 17.398438 1.054688 17.820312 1.054688 C 18.078125 1.054688 18.304688 1.105469 18.511719 1.207031 C 18.71875 1.3125 18.886719 1.453125 19.015625 1.640625 "/>
<path style=" stroke:none;fill-rule:nonzero;fill:rgb(0%,0%,0%);fill-opacity:1;" d="M 19.476562 1.394531 L 19.476562 1.125 L 20.972656 1.125 L 20.972656 1.394531 L 20.363281 1.394531 L 20.363281 3.894531 L 20.085938 3.894531 L 20.085938 1.394531 Z M 19.476562 1.394531 "/>
<path style=" stroke:none;fill-rule:nonzero;fill:rgb(0%,0%,0%);fill-opacity:1;" d="M 11.273438 6.230469 C 11.210938 5.960938 11.085938 5.757812 10.792969 5.757812 C 10.617188 5.757812 10.507812 5.824219 10.414062 5.96875 C 10.21875 6.253906 10.21875 7.070312 10.21875 7.425781 C 10.21875 7.953125 10.203125 8.492188 10.285156 9.011719 C 10.335938 9.320312 10.4375 9.664062 10.800781 9.664062 C 11.03125 9.664062 11.171875 9.523438 11.25 9.304688 C 11.382812 8.921875 11.375 8.054688 11.375 7.621094 C 11.375 7.164062 11.375 6.679688 11.273438 6.230469 M 11.984375 8.992188 C 11.867188 9.726562 11.613281 10.289062 10.808594 10.289062 C 10.394531 10.289062 10.039062 10.109375 9.835938 9.726562 C 9.5625 9.207031 9.539062 8.195312 9.539062 7.601562 C 9.539062 7.011719 9.554688 6.289062 9.800781 5.757812 C 10.003906 5.320312 10.328125 5.148438 10.792969 5.148438 C 11.199219 5.148438 11.53125 5.3125 11.742188 5.679688 C 12.039062 6.214844 12.054688 7.195312 12.054688 7.808594 C 12.054688 8.207031 12.039062 8.601562 11.984375 8.992188 "/>
<path style=" stroke:none;fill-rule:nonzero;fill:rgb(0%,0%,0%);fill-opacity:1;" d="M 13.59375 9.636719 C 14.210938 9.636719 14.417969 9.34375 14.511719 8.742188 C 14.554688 8.433594 14.5625 8.117188 14.5625 7.808594 C 14.5625 7.484375 14.554688 7.15625 14.519531 6.832031 C 14.445312 6.253906 14.304688 5.78125 13.640625 5.78125 L 13.5625 5.78125 L 13.5625 9.636719 Z M 13.714844 5.207031 C 14.1875 5.207031 14.507812 5.273438 14.8125 5.664062 C 15.230469 6.203125 15.242188 7.125 15.242188 7.789062 C 15.242188 8.417969 15.222656 9.335938 14.78125 9.824219 C 14.4375 10.203125 13.90625 10.222656 13.4375 10.222656 L 12.910156 10.222656 L 12.910156 5.207031 Z M 13.714844 5.207031 "/>
<path style=" stroke:none;fill-rule:nonzero;fill:rgb(0%,0%,0%);fill-opacity:1;" d="M 18.328125 8.890625 C 18.328125 9.757812 18.144531 10.289062 17.203125 10.289062 C 16.320312 10.289062 16.101562 9.71875 16.101562 8.914062 L 16.101562 5.207031 L 16.738281 5.207031 L 16.738281 8.890625 C 16.738281 9.257812 16.765625 9.652344 17.226562 9.652344 C 17.703125 9.652344 17.6875 9.265625 17.6875 8.890625 L 17.6875 5.207031 L 18.328125 5.207031 Z M 18.328125 8.890625 "/>
<path style=" stroke:none;fill-rule:nonzero;fill:rgb(0%,0%,0%);fill-opacity:1;" d="M 6.546875 8.140625 L 6.539062 8.132812 L 6.542969 8.132812 Z M 6.226562 8.800781 C 6.226562 8.796875 6.21875 8.796875 6.21875 8.796875 C 6.21875 8.796875 6.210938 8.796875 6.207031 8.789062 C 6.226562 8.753906 6.257812 8.710938 6.296875 8.664062 C 6.296875 8.695312 6.289062 8.71875 6.273438 8.734375 C 6.261719 8.757812 6.246094 8.777344 6.226562 8.800781 Z M 6.40625 8.386719 C 6.421875 8.359375 6.429688 8.335938 6.4375 8.324219 C 6.4375 8.320312 6.445312 8.328125 6.460938 8.335938 C 6.449219 8.351562 6.4375 8.371094 6.429688 8.398438 Z M 6.542969 8.132812 C 6.535156 8.097656 6.535156 8.070312 6.546875 8.042969 C 6.554688 8.015625 6.578125 8 6.621094 7.984375 Z M 6.5 8.265625 C 6.484375 8.230469 6.476562 8.207031 6.480469 8.195312 C 6.484375 8.1875 6.503906 8.167969 6.539062 8.140625 C 6.535156 8.164062 6.53125 8.1875 6.519531 8.203125 C 6.511719 8.21875 6.503906 8.242188 6.5 8.265625 Z M 6.65625 7.917969 C 6.640625 7.875 6.640625 7.839844 6.644531 7.820312 C 6.652344 7.804688 6.679688 7.765625 6.726562 7.703125 C 6.734375 7.710938 6.742188 7.710938 6.742188 7.710938 C 6.726562 7.742188 6.714844 7.773438 6.703125 7.808594 C 6.6875 7.84375 6.675781 7.875 6.65625 7.917969 Z M 6.539062 8.140625 L 6.539062 8.132812 L 6.546875 8.140625 Z M 6.296875 8.210938 C 6.320312 8.195312 6.328125 8.179688 6.324219 8.160156 C 6.320312 8.140625 6.3125 8.117188 6.296875 8.085938 C 6.34375 7.984375 6.390625 7.882812 6.4375 7.777344 C 6.484375 7.671875 6.535156 7.566406 6.585938 7.460938 C 6.59375 7.433594 6.601562 7.414062 6.609375 7.40625 C 6.625 7.390625 6.648438 7.390625 6.6875 7.40625 L 6.574219 7.605469 C 6.589844 7.609375 6.601562 7.617188 6.609375 7.617188 C 6.621094 7.625 6.632812 7.628906 6.640625 7.632812 C 6.648438 7.675781 6.628906 7.703125 6.585938 7.710938 C 6.523438 7.71875 6.511719 7.742188 6.546875 7.789062 C 6.570312 7.816406 6.570312 7.839844 6.550781 7.863281 C 6.539062 7.898438 6.523438 7.929688 6.507812 7.960938 C 6.496094 7.988281 6.484375 8.015625 6.46875 8.042969 C 6.460938 8.054688 6.453125 8.0625 6.445312 8.070312 C 6.4375 8.074219 6.429688 8.085938 6.425781 8.09375 C 6.386719 8.191406 6.34375 8.285156 6.304688 8.382812 C 6.261719 8.476562 6.21875 8.570312 6.175781 8.671875 C 6.15625 8.71875 6.132812 8.769531 6.109375 8.816406 C 6.085938 8.863281 6.066406 8.914062 6.050781 8.976562 C 6.039062 9.03125 6.015625 9.0625 5.996094 9.070312 C 5.972656 9.078125 5.929688 9.066406 5.871094 9.039062 C 5.925781 8.898438 5.984375 8.757812 6.042969 8.617188 C 6.101562 8.476562 6.164062 8.335938 6.21875 8.1875 C 6.261719 8.199219 6.289062 8.203125 6.296875 8.210938 Z M 6.164062 8.542969 C 6.171875 8.53125 6.175781 8.523438 6.175781 8.519531 C 6.179688 8.515625 6.179688 8.507812 6.1875 8.496094 C 6.179688 8.492188 6.171875 8.484375 6.171875 8.480469 C 6.164062 8.492188 6.160156 8.5 6.160156 8.507812 C 6.160156 8.515625 6.15625 8.523438 6.148438 8.53125 C 6.160156 8.539062 6.164062 8.542969 6.164062 8.542969 Z M 6.914062 7.664062 C 6.929688 7.707031 6.933594 7.742188 6.914062 7.757812 C 6.898438 7.773438 6.871094 7.796875 6.835938 7.828125 C 6.851562 7.796875 6.867188 7.765625 6.875 7.742188 C 6.882812 7.714844 6.898438 7.6875 6.914062 7.664062 Z M 6.390625 8.453125 C 6.382812 8.492188 6.371094 8.53125 6.351562 8.5625 C 6.335938 8.59375 6.316406 8.625 6.300781 8.652344 C 6.296875 8.609375 6.296875 8.578125 6.304688 8.539062 C 6.316406 8.507812 6.34375 8.476562 6.390625 8.453125 Z M 9.765625 3.867188 C 9.78125 3.921875 9.773438 3.984375 9.742188 4.054688 C 9.71875 4.09375 9.695312 4.136719 9.671875 4.179688 C 9.648438 4.21875 9.617188 4.25 9.574219 4.273438 C 9.554688 4.289062 9.539062 4.304688 9.53125 4.320312 C 9.464844 4.398438 9.402344 4.480469 9.34375 4.5625 C 9.289062 4.648438 9.226562 4.730469 9.167969 4.8125 C 9.140625 4.835938 9.125 4.867188 9.113281 4.898438 C 9.078125 4.945312 9.039062 5 9.007812 5.046875 C 8.972656 5.101562 8.9375 5.15625 8.890625 5.203125 C 8.84375 5.285156 8.796875 5.367188 8.746094 5.445312 C 8.695312 5.523438 8.644531 5.601562 8.585938 5.6875 C 8.570312 5.710938 8.554688 5.734375 8.546875 5.757812 C 8.53125 5.78125 8.515625 5.800781 8.5 5.824219 C 8.453125 5.894531 8.414062 5.960938 8.367188 6.03125 C 8.328125 6.09375 8.28125 6.160156 8.234375 6.226562 C 8.234375 6.234375 8.230469 6.234375 8.226562 6.234375 C 8.226562 6.234375 8.222656 6.238281 8.21875 6.242188 C 8.195312 6.332031 8.15625 6.410156 8.101562 6.476562 C 8.046875 6.546875 8 6.617188 7.953125 6.695312 C 7.945312 6.703125 7.941406 6.714844 7.9375 6.726562 C 7.929688 6.734375 7.921875 6.75 7.921875 6.757812 C 7.917969 6.78125 7.914062 6.800781 7.902344 6.816406 C 7.890625 6.832031 7.875 6.84375 7.851562 6.859375 C 7.828125 6.867188 7.804688 6.898438 7.773438 6.945312 C 7.75 6.992188 7.738281 7.027344 7.742188 7.046875 C 7.75 7.078125 7.773438 7.121094 7.804688 7.175781 C 7.839844 7.230469 7.859375 7.273438 7.859375 7.296875 C 7.867188 7.320312 7.878906 7.335938 7.886719 7.351562 C 7.894531 7.363281 7.898438 7.378906 7.90625 7.398438 C 7.898438 7.445312 7.917969 7.484375 7.960938 7.523438 C 7.96875 7.53125 7.976562 7.539062 7.984375 7.546875 C 7.988281 7.550781 7.992188 7.554688 7.992188 7.566406 C 8 7.617188 8.015625 7.664062 8.046875 7.703125 C 8.082031 7.75 8.101562 7.796875 8.105469 7.851562 C 8.109375 7.898438 8.125 7.929688 8.148438 7.957031 C 8.175781 7.984375 8.203125 8.007812 8.226562 8.039062 C 8.242188 8.0625 8.257812 8.085938 8.273438 8.113281 C 8.289062 8.140625 8.304688 8.164062 8.3125 8.1875 C 8.335938 8.265625 8.367188 8.335938 8.410156 8.398438 C 8.453125 8.464844 8.492188 8.53125 8.53125 8.597656 C 8.570312 8.652344 8.59375 8.703125 8.613281 8.757812 C 8.632812 8.8125 8.628906 8.867188 8.609375 8.933594 C 8.625 8.957031 8.640625 8.96875 8.65625 8.964844 C 8.671875 8.960938 8.695312 8.960938 8.71875 8.960938 C 8.726562 8.960938 8.742188 8.96875 8.757812 8.976562 C 8.773438 8.980469 8.78125 8.988281 8.789062 9 C 8.789062 9.050781 8.808594 9.09375 8.839844 9.132812 C 8.871094 9.164062 8.898438 9.210938 8.917969 9.257812 C 8.9375 9.304688 8.957031 9.34375 8.976562 9.382812 C 8.992188 9.421875 9.023438 9.460938 9.058594 9.5 C 9.070312 9.515625 9.078125 9.527344 9.078125 9.546875 C 9.082031 9.5625 9.085938 9.578125 9.089844 9.597656 C 9.113281 9.695312 9.148438 9.789062 9.203125 9.867188 C 9.25 9.953125 9.3125 10.03125 9.378906 10.109375 C 9.414062 10.164062 9.449219 10.210938 9.484375 10.261719 C 9.515625 10.3125 9.554688 10.367188 9.59375 10.417969 C 9.601562 10.425781 9.609375 10.4375 9.613281 10.460938 C 9.617188 10.484375 9.625 10.492188 9.648438 10.488281 C 9.667969 10.484375 9.679688 10.492188 9.671875 10.515625 C 9.648438 10.53125 9.625 10.539062 9.601562 10.539062 C 9.578125 10.535156 9.554688 10.53125 9.527344 10.523438 C 9.414062 10.484375 9.3125 10.433594 9.222656 10.367188 C 9.132812 10.304688 9.046875 10.234375 8.960938 10.148438 C 8.90625 10.09375 8.855469 10.039062 8.800781 9.984375 C 8.746094 9.925781 8.695312 9.867188 8.644531 9.8125 C 8.578125 9.75 8.515625 9.679688 8.453125 9.609375 C 8.398438 9.542969 8.339844 9.472656 8.289062 9.40625 C 8.226562 9.328125 8.171875 9.25 8.117188 9.164062 C 8.066406 9.078125 8.015625 9 7.960938 8.921875 C 7.914062 8.859375 7.875 8.796875 7.832031 8.742188 C 7.789062 8.683594 7.75 8.625 7.710938 8.558594 C 7.675781 8.5 7.640625 8.441406 7.609375 8.382812 C 7.578125 8.328125 7.546875 8.265625 7.511719 8.207031 C 7.492188 8.175781 7.457031 8.132812 7.414062 8.078125 C 7.367188 8.023438 7.324219 7.984375 7.28125 7.960938 C 7.277344 7.976562 7.273438 7.992188 7.265625 8.007812 C 7.257812 8.023438 7.25 8.035156 7.25 8.046875 C 7.242188 8.078125 7.226562 8.109375 7.210938 8.132812 C 7.199219 8.15625 7.179688 8.1875 7.15625 8.210938 C 7.105469 8.265625 7.0625 8.335938 7.023438 8.421875 C 7.015625 8.460938 7 8.488281 6.976562 8.511719 C 6.953125 8.53125 6.929688 8.550781 6.90625 8.566406 C 6.902344 8.589844 6.898438 8.617188 6.898438 8.640625 C 6.894531 8.664062 6.886719 8.6875 6.875 8.710938 C 6.851562 8.765625 6.828125 8.820312 6.804688 8.882812 C 6.773438 8.9375 6.746094 8.992188 6.71875 9.054688 C 6.667969 9.167969 6.617188 9.289062 6.5625 9.40625 C 6.511719 9.53125 6.460938 9.648438 6.40625 9.765625 C 6.382812 9.835938 6.359375 9.898438 6.335938 9.960938 C 6.308594 10.023438 6.28125 10.085938 6.253906 10.15625 C 6.25 10.164062 6.242188 10.179688 6.242188 10.195312 C 6.238281 10.210938 6.234375 10.222656 6.226562 10.226562 C 6.195312 10.246094 6.171875 10.269531 6.15625 10.296875 C 6.144531 10.328125 6.132812 10.351562 6.117188 10.382812 C 6.078125 10.453125 6.046875 10.527344 6.023438 10.601562 C 6 10.675781 5.96875 10.746094 5.921875 10.8125 C 5.910156 10.84375 5.898438 10.875 5.898438 10.917969 C 5.890625 10.957031 5.886719 10.992188 5.875 11.03125 C 5.859375 11.109375 5.835938 11.195312 5.820312 11.28125 C 5.804688 11.367188 5.773438 11.449219 5.730469 11.523438 C 5.71875 11.546875 5.714844 11.566406 5.710938 11.59375 C 5.710938 11.617188 5.703125 11.644531 5.695312 11.667969 C 5.6875 11.707031 5.691406 11.757812 5.707031 11.8125 C 5.71875 11.871094 5.722656 11.917969 5.714844 11.953125 C 5.703125 11.972656 5.695312 11.992188 5.699219 12 C 5.703125 12.054688 5.710938 12.101562 5.722656 12.148438 C 5.734375 12.199219 5.746094 12.253906 5.757812 12.3125 C 5.757812 12.3125 5.753906 12.320312 5.75 12.335938 C 5.707031 12.351562 5.671875 12.351562 5.640625 12.351562 C 5.605469 12.351562 5.570312 12.332031 5.535156 12.289062 C 5.445312 12.195312 5.382812 12.089844 5.335938 11.976562 C 5.296875 11.859375 5.265625 11.734375 5.257812 11.601562 C 5.253906 11.480469 5.253906 11.359375 5.257812 11.242188 C 5.265625 11.125 5.273438 11.007812 5.296875 10.882812 C 5.308594 10.773438 5.332031 10.667969 5.363281 10.5625 C 5.398438 10.460938 5.421875 10.351562 5.445312 10.242188 C 5.449219 10.21875 5.453125 10.195312 5.460938 10.171875 C 5.464844 10.148438 5.472656 10.121094 5.484375 10.09375 C 5.503906 10.027344 5.523438 9.960938 5.550781 9.898438 C 5.574219 9.835938 5.601562 9.773438 5.625 9.710938 C 5.636719 9.6875 5.644531 9.664062 5.648438 9.644531 C 5.652344 9.625 5.65625 9.605469 5.664062 9.585938 L 5.71875 9.4375 C 5.785156 9.449219 5.820312 9.46875 5.832031 9.484375 C 5.84375 9.503906 5.828125 9.535156 5.796875 9.578125 C 5.785156 9.59375 5.777344 9.609375 5.769531 9.625 C 5.761719 9.636719 5.757812 9.648438 5.757812 9.664062 C 5.75 9.707031 5.742188 9.742188 5.726562 9.78125 C 5.710938 9.8125 5.691406 9.851562 5.671875 9.890625 C 5.664062 9.902344 5.660156 9.917969 5.65625 9.9375 C 5.65625 9.953125 5.648438 9.972656 5.632812 9.992188 C 5.585938 10.152344 5.515625 10.320312 5.4375 10.5 C 5.429688 10.515625 5.429688 10.53125 5.429688 10.546875 C 5.433594 10.5625 5.429688 10.582031 5.425781 10.59375 C 5.421875 10.609375 5.417969 10.617188 5.421875 10.625 C 5.421875 10.632812 5.421875 10.640625 5.414062 10.65625 C 5.375 10.734375 5.359375 10.808594 5.363281 10.882812 C 5.363281 10.9375 5.351562 11 5.335938 11.0625 C 5.316406 11.121094 5.304688 11.179688 5.296875 11.238281 C 5.296875 11.292969 5.296875 11.347656 5.296875 11.40625 C 5.300781 11.460938 5.320312 11.515625 5.351562 11.570312 C 5.355469 11.554688 5.359375 11.542969 5.367188 11.53125 C 5.375 11.515625 5.375 11.503906 5.375 11.492188 C 5.390625 11.441406 5.398438 11.398438 5.40625 11.351562 C 5.414062 11.3125 5.414062 11.265625 5.421875 11.226562 C 5.433594 11.082031 5.453125 10.945312 5.484375 10.8125 C 5.515625 10.679688 5.5625 10.546875 5.617188 10.417969 C 5.632812 10.378906 5.640625 10.339844 5.648438 10.300781 C 5.652344 10.265625 5.664062 10.226562 5.671875 10.183594 C 5.679688 10.171875 5.6875 10.164062 5.6875 10.148438 C 5.695312 10.136719 5.699219 10.121094 5.710938 10.101562 C 5.722656 10.105469 5.734375 10.113281 5.75 10.121094 C 5.765625 10.128906 5.78125 10.132812 5.796875 10.140625 C 5.78125 10.207031 5.757812 10.277344 5.726562 10.351562 C 5.695312 10.421875 5.6875 10.492188 5.695312 10.570312 C 5.71875 10.5625 5.726562 10.5625 5.726562 10.5625 C 5.765625 10.484375 5.804688 10.402344 5.839844 10.324219 C 5.875 10.242188 5.890625 10.15625 5.890625 10.070312 C 5.890625 10.039062 5.894531 10.023438 5.902344 10.007812 C 5.96875 9.929688 6.015625 9.84375 6.046875 9.75 C 6.082031 9.65625 6.125 9.566406 6.167969 9.476562 C 6.1875 9.453125 6.195312 9.429688 6.203125 9.40625 C 6.210938 9.382812 6.222656 9.359375 6.238281 9.328125 C 6.210938 9.328125 6.195312 9.320312 6.1875 9.304688 C 6.183594 9.289062 6.179688 9.273438 6.179688 9.257812 C 6.175781 9.242188 6.171875 9.222656 6.171875 9.203125 C 6.167969 9.1875 6.15625 9.171875 6.136719 9.164062 C 6.117188 9.179688 6.101562 9.195312 6.089844 9.207031 C 6.078125 9.222656 6.0625 9.234375 6.050781 9.25 C 6.046875 9.25 6.039062 9.25 6.035156 9.246094 C 6.050781 9.195312 6.066406 9.148438 6.078125 9.097656 C 6.09375 9.046875 6.109375 9 6.125 8.953125 L 6.152344 8.949219 L 6.195312 9.046875 C 6.226562 9.035156 6.246094 9.019531 6.261719 8.996094 C 6.273438 8.976562 6.289062 8.953125 6.296875 8.925781 C 6.304688 8.898438 6.316406 8.875 6.328125 8.84375 C 6.339844 8.820312 6.355469 8.796875 6.378906 8.773438 C 6.394531 8.820312 6.390625 8.855469 6.375 8.878906 C 6.355469 8.902344 6.339844 8.929688 6.328125 8.953125 C 6.320312 8.976562 6.3125 9.003906 6.304688 9.03125 C 6.296875 9.0625 6.285156 9.09375 6.273438 9.125 C 6.3125 9.125 6.335938 9.117188 6.34375 9.101562 C 6.351562 9.089844 6.359375 9.070312 6.367188 9.054688 C 6.382812 9 6.40625 8.953125 6.433594 8.90625 C 6.460938 8.859375 6.484375 8.8125 6.507812 8.765625 C 6.519531 8.746094 6.53125 8.734375 6.539062 8.726562 C 6.554688 8.71875 6.566406 8.710938 6.582031 8.695312 C 6.546875 8.664062 6.515625 8.628906 6.480469 8.59375 C 6.492188 8.585938 6.503906 8.578125 6.515625 8.570312 C 6.523438 8.5625 6.53125 8.558594 6.539062 8.554688 C 6.5625 8.546875 6.585938 8.539062 6.609375 8.535156 C 6.640625 8.53125 6.667969 8.523438 6.695312 8.507812 C 6.742188 8.492188 6.761719 8.445312 6.757812 8.382812 C 6.742188 8.382812 6.722656 8.375 6.703125 8.375 C 6.6875 8.375 6.664062 8.371094 6.640625 8.367188 C 6.648438 8.351562 6.664062 8.335938 6.679688 8.328125 C 6.695312 8.320312 6.710938 8.3125 6.722656 8.304688 C 6.734375 8.289062 6.746094 8.28125 6.75 8.265625 C 6.757812 8.25 6.757812 8.230469 6.75 8.210938 C 6.773438 8.203125 6.796875 8.203125 6.820312 8.203125 C 6.839844 8.203125 6.859375 8.195312 6.875 8.1875 C 6.886719 8.171875 6.898438 8.15625 6.90625 8.136719 C 6.910156 8.117188 6.921875 8.097656 6.941406 8.078125 C 6.964844 8.015625 6.992188 7.953125 7.015625 7.898438 C 7.042969 7.839844 7.070312 7.78125 7.101562 7.726562 C 7.117188 7.695312 7.128906 7.671875 7.132812 7.652344 C 7.132812 7.632812 7.125 7.609375 7.09375 7.582031 C 7.074219 7.570312 7.058594 7.550781 7.050781 7.523438 C 7.039062 7.5 7.03125 7.476562 7.015625 7.460938 C 6.992188 7.421875 6.960938 7.390625 6.921875 7.359375 L 6.898438 7.25 C 6.867188 7.25 6.851562 7.257812 6.84375 7.273438 C 6.835938 7.289062 6.820312 7.3125 6.8125 7.335938 C 6.804688 7.34375 6.796875 7.351562 6.785156 7.363281 C 6.773438 7.375 6.765625 7.382812 6.757812 7.394531 C 6.734375 7.367188 6.714844 7.34375 6.707031 7.328125 C 6.6875 7.289062 6.6875 7.25 6.71875 7.199219 L 6.78125 7.085938 C 6.8125 7.046875 6.8125 7.011719 6.789062 6.976562 C 6.703125 6.816406 6.617188 6.65625 6.53125 6.5 C 6.445312 6.34375 6.359375 6.191406 6.273438 6.039062 C 6.222656 5.9375 6.164062 5.84375 6.101562 5.746094 C 6.042969 5.648438 5.984375 5.554688 5.929688 5.460938 C 5.898438 5.40625 5.867188 5.359375 5.84375 5.3125 C 5.8125 5.265625 5.78125 5.210938 5.75 5.164062 C 5.710938 5.109375 5.679688 5.054688 5.644531 4.992188 C 5.613281 4.9375 5.574219 4.882812 5.523438 4.835938 C 5.476562 4.796875 5.464844 4.75 5.492188 4.679688 C 5.523438 4.617188 5.570312 4.589844 5.632812 4.605469 C 5.644531 4.585938 5.65625 4.570312 5.664062 4.554688 C 5.671875 4.539062 5.679688 4.523438 5.6875 4.515625 C 5.714844 4.472656 5.753906 4.449219 5.804688 4.445312 C 5.835938 4.445312 5.867188 4.441406 5.898438 4.429688 C 5.929688 4.421875 5.960938 4.410156 5.984375 4.398438 C 6.027344 4.378906 6.0625 4.375 6.089844 4.390625 C 6.117188 4.410156 6.152344 4.429688 6.195312 4.460938 C 6.210938 4.472656 6.222656 4.476562 6.230469 4.472656 C 6.320312 4.46875 6.382812 4.492188 6.425781 4.550781 C 6.46875 4.605469 6.503906 4.664062 6.539062 4.71875 C 6.589844 4.785156 6.632812 4.851562 6.671875 4.921875 C 6.710938 4.992188 6.75 5.054688 6.789062 5.125 L 6.796875 5.148438 C 6.820312 5.25 6.859375 5.347656 6.917969 5.433594 C 6.972656 5.519531 7.023438 5.609375 7.070312 5.695312 C 7.097656 5.742188 7.121094 5.789062 7.140625 5.828125 L 7.222656 5.988281 C 7.226562 6 7.234375 6.007812 7.242188 6.023438 C 7.257812 6.039062 7.285156 6.035156 7.320312 6.007812 C 7.359375 5.980469 7.386719 5.953125 7.40625 5.921875 C 7.414062 5.90625 7.421875 5.886719 7.429688 5.871094 C 7.4375 5.855469 7.445312 5.835938 7.460938 5.820312 C 7.515625 5.726562 7.574219 5.632812 7.632812 5.539062 C 7.6875 5.445312 7.734375 5.351562 7.78125 5.25 C 7.800781 5.195312 7.828125 5.140625 7.851562 5.09375 C 7.882812 5.046875 7.914062 4.996094 7.953125 4.945312 C 8.046875 4.796875 8.140625 4.648438 8.242188 4.496094 C 8.335938 4.34375 8.4375 4.195312 8.546875 4.046875 C 8.59375 3.976562 8.640625 3.90625 8.683594 3.839844 C 8.730469 3.773438 8.777344 3.707031 8.824219 3.644531 C 8.882812 3.566406 8.9375 3.507812 8.984375 3.472656 C 9.015625 3.453125 9.046875 3.4375 9.078125 3.425781 C 9.109375 3.414062 9.140625 3.421875 9.179688 3.445312 C 9.214844 3.460938 9.242188 3.453125 9.253906 3.429688 C 9.269531 3.410156 9.296875 3.40625 9.335938 3.414062 C 9.335938 3.425781 9.339844 3.4375 9.34375 3.453125 C 9.347656 3.46875 9.347656 3.488281 9.34375 3.511719 C 9.371094 3.515625 9.398438 3.515625 9.421875 3.519531 C 9.449219 3.523438 9.617188 3.632812 9.625 3.640625 C 9.667969 3.664062 9.695312 3.695312 9.710938 3.742188 C 9.726562 3.78125 9.742188 3.824219 9.765625 3.867188 Z M 5.601562 10.730469 C 5.601562 10.714844 5.609375 10.703125 5.617188 10.695312 C 5.609375 10.679688 5.597656 10.675781 5.59375 10.675781 C 5.59375 10.679688 5.585938 10.6875 5.578125 10.6875 C 5.574219 10.695312 5.570312 10.703125 5.570312 10.710938 C 5.570312 10.714844 5.574219 10.71875 5.578125 10.71875 C 5.585938 10.71875 5.59375 10.722656 5.601562 10.730469 Z M 6.269531 9.480469 C 6.277344 9.476562 6.285156 9.472656 6.289062 9.464844 C 6.292969 9.457031 6.304688 9.449219 6.3125 9.441406 C 6.304688 9.4375 6.292969 9.429688 6.285156 9.421875 C 6.277344 9.421875 6.273438 9.417969 6.265625 9.417969 C 6.25 9.421875 6.242188 9.433594 6.25 9.453125 C 6.246094 9.457031 6.246094 9.460938 6.253906 9.46875 C 6.257812 9.476562 6.265625 9.480469 6.269531 9.480469 Z M 8.0625 8.558594 C 8.125 8.5625 8.144531 8.539062 8.125 8.488281 C 8.117188 8.460938 8.105469 8.4375 8.09375 8.40625 C 8.082031 8.378906 8.070312 8.351562 8.054688 8.320312 C 8.039062 8.296875 8.023438 8.273438 8.015625 8.246094 C 8.007812 8.21875 8 8.191406 7.984375 8.164062 C 7.976562 8.132812 7.960938 8.109375 7.945312 8.085938 C 7.929688 8.0625 7.90625 8.039062 7.878906 8.023438 C 7.867188 8.019531 7.859375 8.007812 7.859375 8 C 7.855469 7.988281 7.851562 7.976562 7.851562 7.96875 C 7.820312 7.929688 7.796875 7.882812 7.777344 7.839844 L 7.710938 7.75 C 7.695312 7.726562 7.679688 7.699219 7.664062 7.671875 C 7.652344 7.648438 7.640625 7.617188 7.625 7.59375 C 7.605469 7.59375 7.59375 7.601562 7.585938 7.609375 C 7.578125 7.667969 7.585938 7.726562 7.601562 7.785156 C 7.621094 7.84375 7.648438 7.890625 7.679688 7.9375 C 7.710938 7.984375 7.738281 8.023438 7.765625 8.0625 C 7.789062 8.105469 7.8125 8.152344 7.835938 8.203125 C 7.859375 8.242188 7.882812 8.265625 7.898438 8.273438 C 7.972656 8.296875 8.015625 8.351562 8.03125 8.445312 C 8.035156 8.46875 8.039062 8.484375 8.042969 8.503906 C 8.046875 8.519531 8.054688 8.539062 8.0625 8.558594 Z M 7.65625 6.648438 C 7.6875 6.625 7.703125 6.609375 7.710938 6.59375 C 7.722656 6.578125 7.722656 6.554688 7.714844 6.523438 C 7.691406 6.550781 7.679688 6.570312 7.671875 6.578125 C 7.667969 6.585938 7.664062 6.609375 7.65625 6.648438 Z M 8.871094 9.804688 C 8.789062 9.703125 8.710938 9.597656 8.636719 9.492188 C 8.558594 9.390625 8.464844 9.300781 8.359375 9.222656 C 8.390625 9.28125 8.410156 9.335938 8.421875 9.402344 C 8.429688 9.464844 8.464844 9.519531 8.523438 9.5625 C 8.546875 9.578125 8.570312 9.601562 8.582031 9.632812 C 8.59375 9.65625 8.613281 9.679688 8.636719 9.699219 C 8.703125 9.757812 8.761719 9.828125 8.816406 9.898438 C 8.875 9.96875 8.9375 10.03125 9.011719 10.074219 C 9.035156 10.09375 9.054688 10.109375 9.074219 10.132812 C 9.09375 10.148438 9.109375 10.171875 9.128906 10.1875 C 9.148438 10.203125 9.171875 10.226562 9.195312 10.25 C 9.214844 10.273438 9.25 10.292969 9.289062 10.304688 C 9.28125 10.289062 9.273438 10.277344 9.265625 10.265625 C 9.265625 10.257812 9.261719 10.246094 9.257812 10.238281 C 9.226562 10.210938 9.195312 10.183594 9.167969 10.15625 C 9.140625 10.132812 9.109375 10.101562 9.085938 10.0625 C 9.042969 10.023438 9.007812 9.976562 8.984375 9.921875 C 8.960938 9.871094 8.921875 9.828125 8.871094 9.804688 Z M 8.269531 8.84375 C 8.273438 8.808594 8.269531 8.789062 8.25 8.773438 C 8.234375 8.765625 8.21875 8.75 8.195312 8.742188 C 8.199219 8.765625 8.203125 8.789062 8.207031 8.8125 C 8.210938 8.832031 8.234375 8.84375 8.269531 8.84375 Z M 7.996094 5.695312 C 8.023438 5.664062 8.039062 5.640625 8.039062 5.632812 C 8.039062 5.617188 8.019531 5.59375 7.984375 5.554688 C 7.945312 5.585938 7.917969 5.617188 7.902344 5.640625 C 7.863281 5.703125 7.824219 5.765625 7.785156 5.832031 C 7.742188 5.898438 7.707031 5.960938 7.671875 6.023438 L 7.554688 6.242188 C 7.546875 6.265625 7.539062 6.289062 7.535156 6.308594 C 7.53125 6.328125 7.539062 6.34375 7.570312 6.359375 C 7.601562 6.34375 7.625 6.324219 7.640625 6.296875 C 7.65625 6.273438 7.671875 6.246094 7.6875 6.214844 L 7.777344 6.0625 C 7.78125 6.054688 7.789062 6.039062 7.804688 6.023438 C 7.8125 6.011719 7.820312 6 7.824219 5.984375 C 7.835938 5.921875 7.859375 5.875 7.890625 5.828125 C 7.921875 5.78125 7.957031 5.738281 7.996094 5.695312 Z M 8.234375 5.273438 C 8.238281 5.265625 8.238281 5.257812 8.234375 5.246094 C 8.234375 5.234375 8.234375 5.222656 8.234375 5.210938 C 8.175781 5.234375 8.128906 5.273438 8.09375 5.328125 C 8.054688 5.386719 8.039062 5.445312 8.039062 5.511719 C 8.070312 5.492188 8.089844 5.46875 8.101562 5.453125 C 8.125 5.425781 8.148438 5.398438 8.171875 5.367188 C 8.195312 5.335938 8.21875 5.304688 8.234375 5.273438 Z M 6.820312 7.625 C 6.800781 7.59375 6.796875 7.570312 6.8125 7.554688 C 6.828125 7.539062 6.847656 7.53125 6.875 7.523438 C 6.863281 7.535156 6.851562 7.546875 6.847656 7.566406 C 6.84375 7.585938 6.835938 7.601562 6.820312 7.625 Z M 6.800781 7.867188 C 6.84375 7.871094 6.859375 7.894531 6.859375 7.9375 C 6.832031 7.9375 6.816406 7.933594 6.8125 7.921875 C 6.804688 7.90625 6.804688 7.890625 6.800781 7.867188 Z M 6.300781 8.652344 C 6.300781 8.65625 6.300781 8.65625 6.296875 8.660156 C 6.296875 8.660156 6.296875 8.65625 6.300781 8.652344 Z M 6.09375 9.375 C 6.113281 9.414062 6.117188 9.449219 6.101562 9.476562 C 6.085938 9.5 6.0625 9.53125 6.03125 9.5625 C 6.042969 9.523438 6.054688 9.492188 6.0625 9.464844 C 6.074219 9.433594 6.085938 9.40625 6.09375 9.375 Z M 5.867188 9.679688 C 5.851562 9.648438 5.84375 9.625 5.84375 9.609375 C 5.851562 9.59375 5.867188 9.558594 5.90625 9.503906 C 5.929688 9.542969 5.929688 9.578125 5.914062 9.601562 C 5.898438 9.625 5.882812 9.648438 5.867188 9.679688 Z M 5.8125 9.40625 C 5.742188 9.414062 5.71875 9.382812 5.75 9.3125 C 5.757812 9.28125 5.765625 9.253906 5.78125 9.226562 C 5.800781 9.179688 5.816406 9.148438 5.828125 9.144531 C 5.84375 9.140625 5.878906 9.148438 5.941406 9.164062 C 5.941406 9.203125 5.9375 9.234375 5.921875 9.265625 C 5.910156 9.296875 5.890625 9.332031 5.871094 9.367188 C 5.859375 9.382812 5.84375 9.398438 5.8125 9.40625 Z M 5.8125 9.40625 "/>
</g>
</svg>
