<?xml version="1.0" encoding="UTF-8"?>
<svg xmlns="http://www.w3.org/2000/svg" xmlns:xlink="http://www.w3.org/1999/xlink" width="50px" height="31px" viewBox="0 0 49 31" version="1.1">
<g id="surface1">
<path style=" stroke:none;fill-rule:nonzero;fill:rgb(0%,0%,0%);fill-opacity:1;" d="M 45.398438 12.875 C 45.398438 13.078125 45.402344 13.285156 45.394531 13.488281 C 45.390625 13.550781 45.359375 13.617188 45.34375 13.679688 C 45.28125 13.664062 45.214844 13.652344 45.160156 13.625 C 44.9375 13.515625 44.726562 13.378906 44.496094 13.289062 C 43.476562 12.894531 42.578125 13.761719 42.5625 14.703125 C 42.554688 15.378906 42.804688 15.925781 43.25 16.398438 C 43.648438 16.824219 44.0625 17.242188 44.449219 17.679688 C 44.882812 18.175781 45.316406 18.675781 45.613281 19.28125 C 45.808594 19.683594 45.90625 20.117188 45.933594 20.554688 C 45.976562 21.175781 45.976562 21.804688 45.75 22.402344 C 45.488281 23.105469 45.085938 23.679688 44.398438 24.03125 C 43.703125 24.386719 42.992188 24.40625 42.25 24.234375 C 41.9375 24.164062 41.667969 24.019531 41.410156 23.847656 C 41.339844 23.800781 41.261719 23.695312 41.261719 23.617188 C 41.25 23.15625 41.257812 22.691406 41.273438 22.226562 C 41.277344 22.050781 41.316406 22.042969 41.453125 22.144531 C 41.769531 22.371094 42.105469 22.578125 42.484375 22.65625 C 43.226562 22.804688 43.816406 22.65625 44.171875 21.820312 C 44.300781 21.515625 44.328125 21.160156 44.285156 20.796875 C 44.226562 20.34375 44.085938 19.945312 43.824219 19.582031 C 43.679688 19.386719 43.527344 19.199219 43.363281 19.019531 C 42.910156 18.535156 42.433594 18.074219 42 17.574219 C 41.652344 17.171875 41.289062 16.765625 41.125 16.234375 C 41.019531 15.882812 40.902344 15.53125 40.90625 15.15625 C 40.910156 15.035156 40.914062 14.914062 40.90625 14.796875 C 40.871094 14.113281 41.027344 13.476562 41.367188 12.890625 C 41.660156 12.382812 42.078125 12.011719 42.640625 11.804688 C 43.238281 11.589844 43.847656 11.589844 44.453125 11.710938 C 44.734375 11.765625 45.003906 11.890625 45.265625 12.007812 C 45.332031 12.039062 45.382812 12.160156 45.390625 12.246094 C 45.410156 12.453125 45.398438 12.664062 45.398438 12.875 "/>
<path style=" stroke:none;fill-rule:nonzero;fill:rgb(0%,0%,0%);fill-opacity:1;" d="M 3.054688 24.207031 L 3.054688 11.832031 L 7.429688 11.832031 L 7.429688 13.242188 L 4.703125 13.242188 L 4.703125 17.175781 L 7.117188 17.175781 L 7.117188 18.585938 L 4.703125 18.585938 L 4.703125 22.796875 L 7.429688 22.796875 L 7.429688 23.90625 L 7.277344 24.207031 Z M 3.054688 24.207031 "/>
<path style=" stroke:none;fill-rule:nonzero;fill:rgb(0%,0%,0%);fill-opacity:1;" d="M 3.730469 2.390625 L 3.730469 4.714844 L 4.875 4.726562 C 5.335938 4.726562 5.671875 4.6875 5.886719 4.601562 C 6.101562 4.515625 6.269531 4.378906 6.390625 4.1875 C 6.515625 3.996094 6.574219 3.785156 6.574219 3.546875 C 6.574219 3.320312 6.515625 3.109375 6.390625 2.917969 C 6.269531 2.730469 6.109375 2.59375 5.90625 2.511719 C 5.707031 2.433594 5.378906 2.390625 4.921875 2.390625 Z M 3.054688 1.722656 L 4.402344 1.722656 C 5.171875 1.722656 5.691406 1.757812 5.960938 1.824219 C 6.347656 1.921875 6.660156 2.117188 6.90625 2.417969 C 7.148438 2.71875 7.273438 3.09375 7.273438 3.546875 C 7.273438 4.003906 7.152344 4.378906 6.914062 4.675781 C 6.675781 4.972656 6.347656 5.171875 5.929688 5.273438 C 5.621094 5.347656 5.050781 5.382812 4.210938 5.382812 L 3.730469 5.382812 L 3.730469 8.566406 L 3.054688 8.566406 Z M 3.054688 1.722656 "/>
<path style=" stroke:none;fill-rule:nonzero;fill:rgb(0%,0%,0%);fill-opacity:1;" d="M 9.816406 2.390625 L 9.816406 4.71875 L 10.980469 4.730469 C 11.429688 4.730469 11.765625 4.683594 11.980469 4.597656 C 12.195312 4.511719 12.363281 4.371094 12.484375 4.179688 C 12.605469 3.992188 12.667969 3.777344 12.667969 3.542969 C 12.667969 3.3125 12.605469 3.101562 12.484375 2.914062 C 12.359375 2.726562 12.199219 2.59375 12 2.511719 C 11.800781 2.433594 11.472656 2.390625 11.007812 2.390625 Z M 9.144531 1.722656 L 10.488281 1.722656 C 11.238281 1.722656 11.746094 1.753906 12.011719 1.816406 C 12.410156 1.910156 12.738281 2.109375 12.988281 2.414062 C 13.238281 2.71875 13.363281 3.097656 13.363281 3.542969 C 13.363281 3.917969 13.277344 4.246094 13.105469 4.527344 C 12.933594 4.808594 12.6875 5.023438 12.363281 5.167969 C 12.042969 5.3125 11.601562 5.386719 11.035156 5.390625 L 13.460938 8.566406 L 12.625 8.566406 L 10.199219 5.390625 L 9.816406 5.390625 L 9.816406 8.566406 L 9.144531 8.566406 Z M 9.144531 1.722656 "/>
<path style=" stroke:none;fill-rule:nonzero;fill:rgb(0%,0%,0%);fill-opacity:1;" d="M 18.496094 2.214844 C 17.996094 2.214844 17.519531 2.347656 17.074219 2.609375 C 16.625 2.875 16.277344 3.230469 16.027344 3.679688 C 15.773438 4.125 15.648438 4.625 15.648438 5.171875 C 15.648438 5.988281 15.925781 6.671875 16.484375 7.234375 C 17.039062 7.792969 17.710938 8.074219 18.496094 8.074219 C 19.019531 8.074219 19.503906 7.945312 19.949219 7.6875 C 20.394531 7.429688 20.742188 7.078125 20.992188 6.632812 C 21.242188 6.183594 21.367188 5.6875 21.367188 5.140625 C 21.367188 4.597656 21.242188 4.105469 20.992188 3.667969 C 20.742188 3.226562 20.390625 2.875 19.9375 2.609375 C 19.484375 2.347656 19.003906 2.214844 18.496094 2.214844 M 18.464844 1.550781 C 19.488281 1.550781 20.34375 1.894531 21.03125 2.585938 C 21.71875 3.28125 22.0625 4.132812 22.0625 5.144531 C 22.0625 6.144531 21.71875 6.996094 21.03125 7.691406 C 20.347656 8.390625 19.507812 8.738281 18.519531 8.738281 C 17.519531 8.738281 16.671875 8.394531 15.984375 7.699219 C 15.296875 7.003906 14.953125 6.160156 14.953125 5.175781 C 14.953125 4.515625 15.109375 3.90625 15.421875 3.347656 C 15.734375 2.785156 16.164062 2.34375 16.707031 2.027344 C 17.246094 1.707031 17.832031 1.550781 18.464844 1.550781 "/>
<path style=" stroke:none;fill-rule:nonzero;fill:rgb(0%,0%,0%);fill-opacity:1;" d="M 26.070312 1.722656 L 26.742188 1.722656 L 26.742188 6.34375 C 26.742188 7.054688 26.6875 7.546875 26.582031 7.824219 C 26.472656 8.101562 26.289062 8.324219 26.035156 8.492188 C 25.78125 8.65625 25.476562 8.738281 25.113281 8.738281 C 24.84375 8.738281 24.574219 8.6875 24.308594 8.578125 C 24.042969 8.472656 23.75 8.285156 23.429688 8.015625 L 23.789062 7.46875 C 24.140625 7.722656 24.433594 7.898438 24.667969 8 C 24.820312 8.070312 24.96875 8.101562 25.117188 8.101562 C 25.308594 8.101562 25.484375 8.042969 25.644531 7.925781 C 25.800781 7.808594 25.910156 7.652344 25.976562 7.457031 C 26.039062 7.261719 26.070312 6.882812 26.070312 6.320312 Z M 26.070312 1.722656 "/>
<path style=" stroke:none;fill-rule:nonzero;fill:rgb(0%,0%,0%);fill-opacity:1;" d="M 28.804688 1.722656 L 32.675781 1.722656 L 32.675781 2.390625 L 29.480469 2.390625 L 29.480469 4.539062 L 32.648438 4.539062 L 32.648438 5.207031 L 29.480469 5.207031 L 29.480469 7.898438 L 32.648438 7.898438 L 32.648438 8.566406 L 28.804688 8.566406 Z M 28.804688 1.722656 "/>
<path style=" stroke:none;fill-rule:nonzero;fill:rgb(0%,0%,0%);fill-opacity:1;" d="M 40.589844 2.992188 L 40.058594 3.40625 C 39.765625 3.019531 39.410156 2.726562 39 2.523438 C 38.589844 2.324219 38.136719 2.226562 37.644531 2.226562 C 37.105469 2.226562 36.609375 2.355469 36.148438 2.617188 C 35.691406 2.878906 35.335938 3.230469 35.082031 3.675781 C 34.828125 4.117188 34.703125 4.613281 34.703125 5.164062 C 34.703125 6 34.984375 6.695312 35.550781 7.253906 C 36.113281 7.8125 36.824219 8.09375 37.6875 8.09375 C 38.632812 8.09375 39.421875 7.71875 40.058594 6.96875 L 40.589844 7.375 C 40.253906 7.8125 39.832031 8.148438 39.332031 8.382812 C 38.828125 8.621094 38.265625 8.738281 37.644531 8.738281 C 36.464844 8.738281 35.53125 8.339844 34.851562 7.542969 C 34.277344 6.871094 33.992188 6.058594 33.992188 5.105469 C 33.992188 4.101562 34.339844 3.261719 35.03125 2.574219 C 35.722656 1.890625 36.59375 1.550781 37.636719 1.550781 C 38.265625 1.550781 38.835938 1.675781 39.34375 1.929688 C 39.851562 2.183594 40.265625 2.535156 40.589844 2.992188 "/>
<path style=" stroke:none;fill-rule:nonzero;fill:rgb(0%,0%,0%);fill-opacity:1;" d="M 41.714844 2.390625 L 41.714844 1.722656 L 45.414062 1.722656 L 45.414062 2.390625 L 43.910156 2.390625 L 43.910156 8.566406 L 43.21875 8.566406 L 43.21875 2.390625 Z M 41.714844 2.390625 "/>
<path style=" stroke:none;fill-rule:nonzero;fill:rgb(0%,0%,0%);fill-opacity:1;" d="M 21.46875 14.335938 C 21.324219 13.667969 21.003906 13.167969 20.285156 13.167969 C 19.855469 13.167969 19.589844 13.332031 19.355469 13.6875 C 18.871094 14.390625 18.871094 16.417969 18.871094 17.289062 C 18.871094 18.589844 18.835938 19.925781 19.035156 21.210938 C 19.160156 21.972656 19.410156 22.824219 20.304688 22.824219 C 20.878906 22.824219 21.21875 22.472656 21.414062 21.933594 C 21.738281 20.988281 21.71875 18.851562 21.71875 17.773438 C 21.71875 16.640625 21.71875 15.449219 21.46875 14.335938 M 23.222656 21.152344 C 22.9375 22.972656 22.308594 24.367188 20.324219 24.367188 C 19.300781 24.367188 18.425781 23.921875 17.925781 22.972656 C 17.246094 21.691406 17.191406 19.183594 17.191406 17.71875 C 17.191406 16.269531 17.226562 14.484375 17.835938 13.167969 C 18.335938 12.089844 19.140625 11.660156 20.285156 11.660156 C 21.289062 11.660156 22.113281 12.070312 22.632812 12.980469 C 23.367188 14.300781 23.402344 16.714844 23.402344 18.238281 C 23.402344 19.222656 23.367188 20.1875 23.222656 21.152344 "/>
<path style=" stroke:none;fill-rule:nonzero;fill:rgb(0%,0%,0%);fill-opacity:1;" d="M 27.195312 22.75 C 28.714844 22.75 29.234375 22.027344 29.46875 20.539062 C 29.574219 19.777344 29.59375 19 29.59375 18.238281 C 29.59375 17.4375 29.574219 16.621094 29.484375 15.824219 C 29.308594 14.390625 28.949219 13.222656 27.320312 13.222656 L 27.125 13.222656 L 27.125 22.75 Z M 27.5 11.808594 C 28.664062 11.808594 29.449219 11.976562 30.203125 12.945312 C 31.238281 14.261719 31.277344 16.546875 31.277344 18.179688 C 31.277344 19.742188 31.222656 22.007812 30.128906 23.214844 C 29.289062 24.144531 27.964844 24.199219 26.820312 24.199219 L 25.511719 24.199219 L 25.511719 11.808594 Z M 27.5 11.808594 "/>
<path style=" stroke:none;fill-rule:nonzero;fill:rgb(0%,0%,0%);fill-opacity:1;" d="M 38.882812 20.914062 C 38.882812 23.046875 38.433594 24.367188 36.109375 24.367188 C 33.925781 24.367188 33.386719 22.957031 33.386719 20.96875 L 33.386719 11.808594 L 34.960938 11.808594 L 34.960938 20.914062 C 34.960938 21.824219 35.035156 22.789062 36.160156 22.789062 C 37.34375 22.789062 37.308594 21.839844 37.308594 20.914062 L 37.308594 11.808594 L 38.882812 11.808594 Z M 38.882812 20.914062 "/>
<path style=" stroke:none;fill-rule:nonzero;fill:rgb(0%,0%,0%);fill-opacity:1;" d="M 9.796875 19.050781 L 9.777344 19.039062 L 9.792969 19.035156 Z M 9.019531 20.683594 C 9.007812 20.675781 8.996094 20.671875 8.992188 20.675781 C 8.988281 20.675781 8.976562 20.671875 8.964844 20.664062 C 9.019531 20.570312 9.09375 20.46875 9.1875 20.355469 C 9.183594 20.421875 9.164062 20.480469 9.132812 20.527344 C 9.097656 20.578125 9.0625 20.628906 9.019531 20.683594 Z M 9.449219 19.664062 C 9.488281 19.597656 9.515625 19.546875 9.527344 19.507812 C 9.539062 19.503906 9.558594 19.515625 9.585938 19.542969 C 9.5625 19.574219 9.535156 19.625 9.507812 19.699219 Z M 9.792969 19.035156 C 9.773438 18.949219 9.773438 18.878906 9.796875 18.816406 C 9.820312 18.753906 9.882812 18.703125 9.984375 18.664062 Z M 9.691406 19.363281 C 9.648438 19.273438 9.632812 19.21875 9.640625 19.191406 C 9.652344 19.167969 9.699219 19.121094 9.78125 19.054688 C 9.773438 19.113281 9.757812 19.164062 9.738281 19.210938 C 9.714844 19.253906 9.699219 19.308594 9.691406 19.363281 Z M 10.078125 18.507812 C 10.039062 18.394531 10.03125 18.3125 10.046875 18.269531 C 10.0625 18.226562 10.128906 18.128906 10.246094 17.976562 C 10.273438 17.992188 10.285156 18 10.285156 18 C 10.25 18.074219 10.21875 18.152344 10.1875 18.234375 C 10.15625 18.316406 10.121094 18.40625 10.078125 18.507812 Z M 9.78125 19.054688 L 9.777344 19.039062 L 9.796875 19.050781 Z M 9.191406 19.222656 C 9.238281 19.1875 9.257812 19.148438 9.253906 19.105469 C 9.25 19.0625 9.226562 19 9.183594 18.921875 C 9.296875 18.667969 9.414062 18.410156 9.535156 18.15625 C 9.65625 17.898438 9.777344 17.636719 9.898438 17.371094 C 9.917969 17.308594 9.9375 17.265625 9.964844 17.234375 C 9.992188 17.207031 10.054688 17.207031 10.148438 17.238281 L 9.871094 17.734375 C 9.910156 17.746094 9.9375 17.757812 9.964844 17.769531 C 9.988281 17.777344 10.015625 17.792969 10.039062 17.808594 C 10.054688 17.90625 10.007812 17.96875 9.902344 17.996094 C 9.75 18.011719 9.71875 18.074219 9.800781 18.1875 C 9.863281 18.253906 9.867188 18.3125 9.8125 18.371094 C 9.78125 18.460938 9.746094 18.539062 9.714844 18.609375 C 9.679688 18.679688 9.644531 18.746094 9.605469 18.8125 C 9.589844 18.839844 9.574219 18.859375 9.554688 18.875 C 9.535156 18.890625 9.519531 18.914062 9.503906 18.941406 C 9.40625 19.179688 9.308594 19.414062 9.207031 19.648438 C 9.101562 19.882812 8.996094 20.121094 8.890625 20.363281 C 8.832031 20.488281 8.777344 20.609375 8.722656 20.726562 C 8.667969 20.839844 8.621094 20.972656 8.578125 21.117188 C 8.542969 21.25 8.5 21.324219 8.441406 21.34375 C 8.386719 21.367188 8.285156 21.34375 8.136719 21.28125 C 8.269531 20.929688 8.414062 20.582031 8.558594 20.234375 C 8.707031 19.886719 8.851562 19.535156 8.996094 19.171875 C 9.101562 19.199219 9.167969 19.21875 9.191406 19.222656 Z M 8.863281 20.046875 C 8.878906 20.023438 8.886719 20.003906 8.890625 19.992188 C 8.894531 19.980469 8.902344 19.960938 8.917969 19.933594 C 8.890625 19.917969 8.878906 19.90625 8.875 19.894531 C 8.859375 19.921875 8.851562 19.941406 8.847656 19.960938 C 8.847656 19.976562 8.839844 20 8.824219 20.023438 C 8.851562 20.039062 8.863281 20.046875 8.863281 20.046875 Z M 10.707031 17.875 C 10.753906 17.984375 10.757812 18.0625 10.714844 18.109375 C 10.667969 18.15625 10.605469 18.210938 10.523438 18.277344 C 10.558594 18.199219 10.589844 18.128906 10.613281 18.066406 C 10.636719 18.003906 10.667969 17.941406 10.707031 17.875 Z M 9.421875 19.820312 C 9.40625 19.929688 9.371094 20.019531 9.324219 20.101562 C 9.277344 20.179688 9.234375 20.253906 9.195312 20.320312 C 9.183594 20.21875 9.1875 20.128906 9.210938 20.042969 C 9.234375 19.960938 9.304688 19.886719 9.421875 19.820312 Z M 17.746094 8.503906 C 17.789062 8.640625 17.769531 8.792969 17.691406 8.957031 C 17.628906 9.0625 17.570312 9.167969 17.515625 9.265625 C 17.460938 9.363281 17.382812 9.441406 17.277344 9.503906 C 17.226562 9.539062 17.191406 9.574219 17.167969 9.613281 C 17.007812 9.8125 16.855469 10.015625 16.710938 10.21875 C 16.570312 10.425781 16.421875 10.632812 16.273438 10.835938 C 16.210938 10.898438 16.167969 10.964844 16.140625 11.039062 C 16.050781 11.164062 15.960938 11.292969 15.875 11.421875 C 15.792969 11.546875 15.699219 11.675781 15.597656 11.804688 C 15.480469 12.003906 15.359375 12.199219 15.234375 12.394531 C 15.109375 12.589844 14.980469 12.789062 14.84375 12.992188 C 14.804688 13.058594 14.769531 13.117188 14.734375 13.171875 C 14.703125 13.222656 14.667969 13.277344 14.625 13.332031 C 14.515625 13.507812 14.40625 13.675781 14.300781 13.835938 C 14.199219 14 14.089844 14.164062 13.972656 14.328125 C 13.964844 14.339844 13.960938 14.347656 13.953125 14.347656 C 13.949219 14.347656 13.941406 14.355469 13.933594 14.371094 C 13.878906 14.585938 13.78125 14.78125 13.644531 14.949219 C 13.507812 15.121094 13.386719 15.296875 13.277344 15.484375 C 13.261719 15.507812 13.246094 15.535156 13.230469 15.5625 C 13.214844 15.589844 13.203125 15.613281 13.199219 15.636719 C 13.191406 15.695312 13.175781 15.746094 13.152344 15.785156 C 13.128906 15.824219 13.085938 15.855469 13.027344 15.882812 C 12.964844 15.910156 12.902344 15.984375 12.839844 16.101562 C 12.773438 16.21875 12.746094 16.304688 12.761719 16.355469 C 12.777344 16.429688 12.828125 16.535156 12.914062 16.671875 C 12.996094 16.808594 13.042969 16.910156 13.046875 16.976562 C 13.070312 17.027344 13.09375 17.070312 13.113281 17.101562 C 13.132812 17.136719 13.144531 17.175781 13.15625 17.21875 C 13.140625 17.335938 13.191406 17.441406 13.300781 17.535156 C 13.316406 17.554688 13.332031 17.570312 13.347656 17.582031 C 13.359375 17.597656 13.371094 17.613281 13.375 17.636719 C 13.382812 17.757812 13.429688 17.871094 13.511719 17.980469 C 13.59375 18.089844 13.640625 18.210938 13.652344 18.34375 C 13.667969 18.449219 13.703125 18.535156 13.765625 18.601562 C 13.824219 18.664062 13.886719 18.730469 13.949219 18.804688 C 13.984375 18.863281 14.023438 18.925781 14.066406 18.988281 C 14.113281 19.050781 14.140625 19.113281 14.15625 19.175781 C 14.214844 19.363281 14.296875 19.535156 14.402344 19.695312 C 14.507812 19.855469 14.609375 20.015625 14.707031 20.183594 C 14.792969 20.320312 14.859375 20.453125 14.902344 20.582031 C 14.945312 20.710938 14.941406 20.855469 14.894531 21.015625 C 14.929688 21.074219 14.96875 21.097656 15.011719 21.09375 C 15.054688 21.089844 15.105469 21.085938 15.160156 21.082031 C 15.183594 21.085938 15.21875 21.097656 15.261719 21.113281 C 15.304688 21.132812 15.328125 21.152344 15.332031 21.171875 C 15.34375 21.304688 15.386719 21.414062 15.464844 21.503906 C 15.539062 21.589844 15.605469 21.695312 15.65625 21.816406 C 15.707031 21.925781 15.753906 22.03125 15.800781 22.125 C 15.847656 22.222656 15.914062 22.320312 16.007812 22.417969 C 16.035156 22.445312 16.050781 22.480469 16.058594 22.523438 C 16.0625 22.566406 16.070312 22.609375 16.082031 22.652344 C 16.140625 22.898438 16.234375 23.121094 16.355469 23.328125 C 16.476562 23.53125 16.625 23.730469 16.792969 23.925781 C 16.878906 24.046875 16.96875 24.171875 17.054688 24.296875 C 17.140625 24.421875 17.230469 24.550781 17.332031 24.683594 C 17.347656 24.699219 17.363281 24.738281 17.375 24.789062 C 17.378906 24.84375 17.40625 24.867188 17.457031 24.851562 C 17.507812 24.839844 17.53125 24.863281 17.523438 24.921875 C 17.464844 24.957031 17.40625 24.976562 17.34375 24.972656 C 17.285156 24.972656 17.222656 24.964844 17.164062 24.945312 C 16.882812 24.847656 16.632812 24.71875 16.410156 24.5625 C 16.1875 24.40625 15.976562 24.222656 15.769531 24.015625 C 15.636719 23.882812 15.5 23.742188 15.367188 23.601562 C 15.234375 23.464844 15.105469 23.324219 14.980469 23.1875 C 14.820312 23.023438 14.664062 22.859375 14.515625 22.6875 C 14.371094 22.519531 14.230469 22.347656 14.097656 22.179688 C 13.953125 21.992188 13.816406 21.792969 13.6875 21.582031 C 13.558594 21.375 13.425781 21.171875 13.289062 20.984375 C 13.183594 20.828125 13.082031 20.679688 12.980469 20.539062 C 12.875 20.394531 12.777344 20.246094 12.683594 20.089844 C 12.59375 19.945312 12.507812 19.800781 12.429688 19.65625 C 12.347656 19.515625 12.269531 19.367188 12.1875 19.21875 C 12.132812 19.144531 12.054688 19.039062 11.941406 18.902344 C 11.832031 18.769531 11.722656 18.667969 11.617188 18.605469 C 11.609375 18.652344 11.59375 18.691406 11.574219 18.726562 C 11.554688 18.757812 11.542969 18.792969 11.539062 18.828125 C 11.515625 18.902344 11.484375 18.972656 11.449219 19.035156 C 11.417969 19.101562 11.367188 19.164062 11.304688 19.226562 C 11.183594 19.359375 11.078125 19.53125 10.984375 19.746094 C 10.964844 19.839844 10.925781 19.914062 10.867188 19.96875 C 10.808594 20.023438 10.75 20.070312 10.691406 20.105469 C 10.683594 20.164062 10.675781 20.226562 10.671875 20.289062 C 10.664062 20.351562 10.644531 20.410156 10.613281 20.464844 C 10.558594 20.601562 10.5 20.742188 10.433594 20.882812 C 10.367188 21.023438 10.296875 21.164062 10.222656 21.308594 C 10.105469 21.59375 9.980469 21.890625 9.847656 22.1875 C 9.71875 22.484375 9.585938 22.78125 9.460938 23.070312 C 9.402344 23.242188 9.34375 23.40625 9.28125 23.554688 C 9.21875 23.707031 9.152344 23.863281 9.082031 24.027344 C 9.066406 24.054688 9.054688 24.089844 9.046875 24.128906 C 9.039062 24.171875 9.027344 24.199219 9.011719 24.214844 C 8.933594 24.257812 8.875 24.3125 8.84375 24.382812 C 8.8125 24.453125 8.777344 24.523438 8.738281 24.589844 C 8.648438 24.769531 8.574219 24.949219 8.511719 25.132812 C 8.453125 25.320312 8.371094 25.492188 8.265625 25.652344 C 8.230469 25.730469 8.207031 25.816406 8.199219 25.914062 C 8.191406 26.011719 8.171875 26.105469 8.148438 26.1875 C 8.101562 26.394531 8.054688 26.601562 8.011719 26.816406 C 7.972656 27.027344 7.894531 27.226562 7.785156 27.414062 C 7.765625 27.464844 7.75 27.519531 7.746094 27.582031 C 7.738281 27.648438 7.726562 27.710938 7.707031 27.769531 C 7.6875 27.867188 7.695312 27.984375 7.730469 28.128906 C 7.765625 28.269531 7.769531 28.382812 7.746094 28.46875 C 7.714844 28.523438 7.703125 28.566406 7.710938 28.597656 C 7.71875 28.71875 7.738281 28.839844 7.769531 28.960938 C 7.800781 29.082031 7.828125 29.214844 7.851562 29.355469 C 7.851562 29.355469 7.84375 29.378906 7.835938 29.425781 C 7.730469 29.453125 7.640625 29.464844 7.5625 29.460938 C 7.480469 29.460938 7.398438 29.40625 7.304688 29.308594 C 7.089844 29.070312 6.929688 28.808594 6.820312 28.527344 C 6.714844 28.246094 6.644531 27.9375 6.621094 27.609375 C 6.613281 27.304688 6.613281 27.011719 6.625 26.71875 C 6.636719 26.429688 6.664062 26.132812 6.710938 25.828125 C 6.746094 25.5625 6.804688 25.300781 6.882812 25.042969 C 6.964844 24.785156 7.03125 24.519531 7.085938 24.246094 C 7.09375 24.191406 7.105469 24.128906 7.117188 24.070312 C 7.132812 24.011719 7.152344 23.949219 7.179688 23.886719 C 7.226562 23.71875 7.28125 23.554688 7.34375 23.398438 C 7.40625 23.242188 7.464844 23.085938 7.527344 22.9375 C 7.558594 22.875 7.578125 22.816406 7.589844 22.769531 C 7.597656 22.722656 7.609375 22.675781 7.621094 22.628906 L 7.761719 22.253906 C 7.925781 22.289062 8.019531 22.332031 8.039062 22.375 C 8.0625 22.421875 8.03125 22.5 7.949219 22.609375 C 7.925781 22.652344 7.902344 22.6875 7.882812 22.71875 C 7.863281 22.753906 7.851562 22.785156 7.851562 22.820312 C 7.84375 22.925781 7.820312 23.019531 7.777344 23.101562 C 7.738281 23.183594 7.691406 23.277344 7.640625 23.382812 C 7.625 23.40625 7.613281 23.445312 7.609375 23.492188 C 7.601562 23.539062 7.582031 23.582031 7.550781 23.625 C 7.425781 24.027344 7.265625 24.445312 7.0625 24.878906 C 7.046875 24.917969 7.042969 24.957031 7.050781 25 C 7.054688 25.042969 7.050781 25.085938 7.039062 25.121094 C 7.023438 25.148438 7.015625 25.171875 7.023438 25.191406 C 7.027344 25.214844 7.023438 25.238281 7.007812 25.265625 C 6.910156 25.457031 6.867188 25.648438 6.882812 25.835938 C 6.882812 25.972656 6.859375 26.117188 6.8125 26.265625 C 6.765625 26.417969 6.734375 26.566406 6.714844 26.707031 C 6.714844 26.839844 6.714844 26.980469 6.722656 27.117188 C 6.730469 27.257812 6.773438 27.394531 6.851562 27.53125 C 6.863281 27.496094 6.878906 27.460938 6.890625 27.429688 C 6.90625 27.398438 6.914062 27.363281 6.917969 27.328125 C 6.941406 27.210938 6.964844 27.097656 6.984375 26.992188 C 7 26.886719 7.015625 26.78125 7.023438 26.679688 C 7.054688 26.320312 7.109375 25.976562 7.183594 25.648438 C 7.257812 25.320312 7.367188 25 7.511719 24.679688 C 7.542969 24.582031 7.566406 24.488281 7.582031 24.390625 C 7.597656 24.296875 7.621094 24.203125 7.652344 24.105469 C 7.667969 24.078125 7.679688 24.050781 7.6875 24.019531 C 7.699219 23.988281 7.710938 23.949219 7.734375 23.898438 C 7.769531 23.910156 7.804688 23.925781 7.835938 23.949219 C 7.871094 23.96875 7.910156 23.984375 7.957031 23.992188 C 7.910156 24.164062 7.851562 24.335938 7.777344 24.511719 C 7.703125 24.6875 7.679688 24.867188 7.703125 25.054688 C 7.753906 25.039062 7.78125 25.035156 7.78125 25.035156 C 7.878906 24.839844 7.972656 24.644531 8.0625 24.449219 C 8.152344 24.25 8.191406 24.039062 8.179688 23.816406 C 8.183594 23.75 8.195312 23.703125 8.210938 23.675781 C 8.371094 23.476562 8.496094 23.261719 8.578125 23.035156 C 8.660156 22.804688 8.757812 22.578125 8.867188 22.359375 C 8.910156 22.304688 8.941406 22.246094 8.957031 22.183594 C 8.976562 22.125 9.003906 22.0625 9.042969 21.996094 C 8.976562 21.988281 8.933594 21.96875 8.921875 21.933594 C 8.90625 21.898438 8.898438 21.859375 8.890625 21.8125 C 8.886719 21.769531 8.878906 21.726562 8.875 21.683594 C 8.871094 21.640625 8.84375 21.605469 8.792969 21.585938 C 8.746094 21.621094 8.707031 21.65625 8.679688 21.691406 C 8.648438 21.726562 8.613281 21.761719 8.578125 21.792969 C 8.566406 21.796875 8.554688 21.792969 8.542969 21.785156 C 8.578125 21.664062 8.617188 21.539062 8.652344 21.417969 C 8.6875 21.296875 8.726562 21.179688 8.765625 21.070312 L 8.828125 21.054688 L 8.9375 21.296875 C 9.007812 21.265625 9.0625 21.226562 9.097656 21.171875 C 9.136719 21.117188 9.164062 21.058594 9.1875 20.996094 C 9.210938 20.933594 9.238281 20.867188 9.265625 20.800781 C 9.292969 20.730469 9.332031 20.671875 9.386719 20.625 C 9.425781 20.738281 9.421875 20.824219 9.375 20.878906 C 9.328125 20.9375 9.292969 20.996094 9.261719 21.0625 C 9.246094 21.121094 9.226562 21.1875 9.203125 21.261719 C 9.183594 21.335938 9.160156 21.40625 9.132812 21.480469 C 9.222656 21.480469 9.277344 21.464844 9.296875 21.433594 C 9.316406 21.398438 9.335938 21.359375 9.355469 21.308594 C 9.402344 21.183594 9.460938 21.0625 9.523438 20.945312 C 9.589844 20.824219 9.652344 20.707031 9.710938 20.59375 C 9.738281 20.550781 9.761719 20.523438 9.792969 20.503906 C 9.820312 20.484375 9.851562 20.460938 9.890625 20.429688 C 9.804688 20.351562 9.71875 20.265625 9.640625 20.171875 C 9.671875 20.152344 9.695312 20.136719 9.71875 20.117188 C 9.742188 20.101562 9.765625 20.089844 9.785156 20.082031 C 9.835938 20.058594 9.894531 20.042969 9.964844 20.03125 C 10.035156 20.019531 10.105469 19.996094 10.175781 19.96875 C 10.285156 19.917969 10.335938 19.816406 10.332031 19.660156 C 10.285156 19.648438 10.238281 19.640625 10.191406 19.636719 C 10.144531 19.628906 10.09375 19.621094 10.039062 19.613281 C 10.0625 19.574219 10.09375 19.542969 10.132812 19.523438 C 10.171875 19.503906 10.207031 19.480469 10.238281 19.453125 C 10.273438 19.429688 10.292969 19.398438 10.308594 19.359375 C 10.320312 19.324219 10.320312 19.277344 10.308594 19.226562 C 10.371094 19.210938 10.425781 19.203125 10.476562 19.207031 C 10.527344 19.210938 10.570312 19.199219 10.609375 19.164062 C 10.644531 19.132812 10.671875 19.09375 10.6875 19.042969 C 10.703125 18.996094 10.734375 18.949219 10.777344 18.902344 C 10.835938 18.742188 10.898438 18.589844 10.964844 18.449219 C 11.03125 18.308594 11.101562 18.167969 11.175781 18.027344 C 11.214844 17.960938 11.238281 17.898438 11.25 17.847656 C 11.257812 17.792969 11.226562 17.738281 11.15625 17.675781 C 11.105469 17.644531 11.066406 17.597656 11.046875 17.535156 C 11.027344 17.472656 10.996094 17.417969 10.964844 17.371094 C 10.910156 17.28125 10.832031 17.199219 10.738281 17.125 L 10.671875 16.855469 C 10.601562 16.847656 10.558594 16.867188 10.535156 16.914062 C 10.511719 16.960938 10.484375 17.007812 10.453125 17.0625 C 10.4375 17.085938 10.417969 17.113281 10.390625 17.136719 C 10.363281 17.160156 10.339844 17.183594 10.324219 17.210938 C 10.261719 17.136719 10.222656 17.082031 10.199219 17.042969 C 10.144531 16.953125 10.152344 16.851562 10.222656 16.730469 L 10.386719 16.453125 C 10.453125 16.359375 10.457031 16.265625 10.402344 16.179688 C 10.183594 15.785156 9.972656 15.394531 9.765625 15.007812 C 9.558594 14.621094 9.347656 14.242188 9.132812 13.867188 C 9.003906 13.621094 8.863281 13.378906 8.710938 13.140625 C 8.558594 12.902344 8.414062 12.667969 8.277344 12.429688 C 8.203125 12.304688 8.132812 12.183594 8.0625 12.0625 C 7.996094 11.945312 7.917969 11.824219 7.832031 11.699219 C 7.742188 11.566406 7.660156 11.425781 7.578125 11.285156 C 7.5 11.140625 7.402344 11.011719 7.285156 10.894531 C 7.160156 10.800781 7.132812 10.675781 7.203125 10.511719 C 7.273438 10.34375 7.386719 10.285156 7.542969 10.324219 C 7.574219 10.28125 7.605469 10.238281 7.628906 10.199219 C 7.652344 10.160156 7.671875 10.125 7.6875 10.101562 C 7.75 9.996094 7.84375 9.9375 7.976562 9.925781 C 8.054688 9.929688 8.132812 9.917969 8.207031 9.890625 C 8.285156 9.867188 8.355469 9.839844 8.414062 9.8125 C 8.523438 9.761719 8.609375 9.757812 8.675781 9.796875 C 8.742188 9.835938 8.828125 9.894531 8.933594 9.96875 C 8.972656 9.992188 9.003906 10 9.023438 9.996094 C 9.246094 9.984375 9.40625 10.050781 9.503906 10.1875 C 9.605469 10.324219 9.699219 10.460938 9.789062 10.59375 C 9.910156 10.769531 10.019531 10.9375 10.113281 11.105469 C 10.210938 11.269531 10.308594 11.4375 10.40625 11.605469 L 10.421875 11.667969 C 10.484375 11.921875 10.582031 12.15625 10.71875 12.367188 C 10.855469 12.582031 10.980469 12.796875 11.101562 13.011719 C 11.164062 13.132812 11.222656 13.242188 11.273438 13.339844 L 11.472656 13.738281 C 11.484375 13.761719 11.5 13.789062 11.519531 13.820312 C 11.5625 13.863281 11.628906 13.851562 11.71875 13.785156 C 11.804688 13.71875 11.875 13.648438 11.925781 13.582031 C 11.945312 13.53125 11.964844 13.484375 11.984375 13.449219 C 12 13.410156 12.027344 13.367188 12.0625 13.328125 C 12.203125 13.089844 12.34375 12.855469 12.480469 12.628906 C 12.617188 12.402344 12.738281 12.164062 12.84375 11.914062 C 12.898438 11.773438 12.960938 11.644531 13.03125 11.527344 C 13.101562 11.40625 13.183594 11.285156 13.273438 11.160156 C 13.507812 10.796875 13.742188 10.429688 13.984375 10.054688 C 14.222656 9.675781 14.476562 9.308594 14.742188 8.949219 C 14.855469 8.773438 14.964844 8.601562 15.078125 8.433594 C 15.195312 8.261719 15.308594 8.101562 15.425781 7.945312 C 15.566406 7.753906 15.699219 7.613281 15.820312 7.527344 C 15.898438 7.472656 15.972656 7.433594 16.050781 7.410156 C 16.128906 7.382812 16.210938 7.398438 16.304688 7.453125 C 16.390625 7.488281 16.449219 7.476562 16.488281 7.425781 C 16.523438 7.371094 16.589844 7.351562 16.683594 7.375 C 16.691406 7.40625 16.699219 7.441406 16.707031 7.476562 C 16.71875 7.515625 16.71875 7.5625 16.710938 7.621094 C 16.777344 7.625 16.84375 7.632812 16.90625 7.636719 C 16.96875 7.644531 17.378906 7.917969 17.402344 7.933594 C 17.507812 7.996094 17.578125 8.082031 17.617188 8.183594 C 17.652344 8.289062 17.695312 8.394531 17.746094 8.503906 Z M 7.46875 25.449219 C 7.472656 25.417969 7.488281 25.390625 7.515625 25.371094 C 7.484375 25.335938 7.460938 25.316406 7.453125 25.320312 C 7.445312 25.332031 7.433594 25.34375 7.417969 25.355469 C 7.40625 25.363281 7.394531 25.378906 7.390625 25.402344 C 7.390625 25.414062 7.402344 25.417969 7.417969 25.421875 C 7.4375 25.421875 7.453125 25.433594 7.46875 25.449219 Z M 9.117188 22.363281 C 9.140625 22.359375 9.15625 22.347656 9.167969 22.328125 C 9.179688 22.304688 9.199219 22.289062 9.226562 22.269531 C 9.203125 22.253906 9.179688 22.238281 9.160156 22.226562 C 9.140625 22.214844 9.125 22.210938 9.113281 22.214844 C 9.074219 22.222656 9.058594 22.25 9.066406 22.292969 C 9.058594 22.304688 9.0625 22.320312 9.078125 22.339844 C 9.09375 22.359375 9.109375 22.367188 9.117188 22.363281 Z M 13.550781 20.089844 C 13.695312 20.097656 13.75 20.039062 13.707031 19.914062 C 13.679688 19.855469 13.652344 19.789062 13.625 19.714844 C 13.59375 19.644531 13.5625 19.574219 13.523438 19.503906 C 13.484375 19.449219 13.457031 19.382812 13.433594 19.316406 C 13.410156 19.25 13.386719 19.179688 13.359375 19.109375 C 13.328125 19.039062 13.296875 18.972656 13.257812 18.914062 C 13.222656 18.855469 13.167969 18.808594 13.089844 18.769531 C 13.066406 18.753906 13.046875 18.734375 13.042969 18.707031 C 13.035156 18.679688 13.03125 18.65625 13.023438 18.636719 C 12.945312 18.53125 12.882812 18.425781 12.84375 18.3125 L 12.671875 18.085938 C 12.636719 18.027344 12.601562 17.964844 12.566406 17.898438 C 12.535156 17.835938 12.5 17.769531 12.460938 17.699219 C 12.417969 17.710938 12.386719 17.722656 12.371094 17.738281 C 12.351562 17.890625 12.367188 18.035156 12.410156 18.175781 C 12.457031 18.316406 12.523438 18.441406 12.605469 18.558594 C 12.675781 18.664062 12.742188 18.765625 12.808594 18.867188 C 12.871094 18.96875 12.929688 19.082031 12.980469 19.203125 C 13.050781 19.300781 13.101562 19.359375 13.140625 19.382812 C 13.324219 19.4375 13.429688 19.578125 13.464844 19.808594 C 13.476562 19.859375 13.488281 19.90625 13.5 19.949219 C 13.507812 19.992188 13.527344 20.039062 13.550781 20.089844 Z M 12.546875 15.363281 C 12.613281 15.3125 12.660156 15.269531 12.683594 15.230469 C 12.707031 15.1875 12.707031 15.132812 12.691406 15.058594 C 12.628906 15.128906 12.59375 15.175781 12.582031 15.195312 C 12.570312 15.214844 12.558594 15.269531 12.546875 15.363281 Z M 15.542969 23.164062 C 15.34375 22.910156 15.152344 22.652344 14.960938 22.398438 C 14.769531 22.144531 14.539062 21.917969 14.273438 21.730469 C 14.351562 21.867188 14.402344 22.015625 14.429688 22.171875 C 14.457031 22.328125 14.539062 22.460938 14.679688 22.570312 C 14.746094 22.609375 14.792969 22.664062 14.828125 22.734375 C 14.863281 22.804688 14.90625 22.863281 14.960938 22.90625 C 15.121094 23.054688 15.269531 23.21875 15.40625 23.398438 C 15.546875 23.578125 15.707031 23.722656 15.890625 23.832031 C 15.945312 23.875 15.996094 23.921875 16.039062 23.972656 C 16.085938 24.023438 16.132812 24.070312 16.175781 24.113281 C 16.230469 24.15625 16.285156 24.207031 16.339844 24.269531 C 16.390625 24.328125 16.472656 24.371094 16.578125 24.402344 C 16.546875 24.363281 16.527344 24.332031 16.523438 24.304688 C 16.515625 24.277344 16.503906 24.257812 16.488281 24.238281 C 16.417969 24.167969 16.34375 24.101562 16.273438 24.039062 C 16.203125 23.980469 16.132812 23.902344 16.066406 23.804688 C 15.964844 23.707031 15.882812 23.59375 15.824219 23.460938 C 15.761719 23.332031 15.667969 23.230469 15.542969 23.164062 Z M 14.054688 20.789062 C 14.070312 20.707031 14.054688 20.652344 14.015625 20.621094 C 13.972656 20.59375 13.929688 20.566406 13.878906 20.546875 C 13.882812 20.601562 13.890625 20.65625 13.902344 20.707031 C 13.914062 20.761719 13.96875 20.789062 14.054688 20.789062 Z M 13.382812 13.007812 C 13.453125 12.933594 13.488281 12.882812 13.484375 12.855469 C 13.484375 12.828125 13.4375 12.761719 13.347656 12.664062 C 13.253906 12.742188 13.1875 12.816406 13.148438 12.882812 C 13.054688 13.03125 12.957031 13.1875 12.859375 13.351562 C 12.761719 13.515625 12.667969 13.671875 12.582031 13.820312 L 12.285156 14.367188 C 12.265625 14.429688 12.253906 14.480469 12.242188 14.53125 C 12.230469 14.578125 12.261719 14.621094 12.324219 14.660156 C 12.402344 14.617188 12.460938 14.566406 12.503906 14.507812 C 12.542969 14.445312 12.582031 14.375 12.617188 14.300781 L 12.839844 13.921875 C 12.855469 13.894531 12.878906 13.863281 12.902344 13.832031 C 12.925781 13.796875 12.945312 13.761719 12.957031 13.722656 C 12.988281 13.582031 13.042969 13.453125 13.125 13.34375 C 13.203125 13.234375 13.289062 13.121094 13.382812 13.007812 Z M 13.976562 11.980469 C 13.980469 11.957031 13.980469 11.929688 13.972656 11.902344 C 13.96875 11.878906 13.964844 11.847656 13.96875 11.8125 C 13.828125 11.871094 13.710938 11.96875 13.617188 12.113281 C 13.523438 12.253906 13.480469 12.402344 13.488281 12.558594 C 13.5625 12.507812 13.613281 12.460938 13.636719 12.421875 C 13.695312 12.347656 13.753906 12.273438 13.8125 12.199219 C 13.871094 12.121094 13.925781 12.046875 13.976562 11.980469 Z M 10.484375 17.78125 C 10.429688 17.703125 10.421875 17.644531 10.457031 17.609375 C 10.492188 17.570312 10.546875 17.542969 10.621094 17.527344 C 10.582031 17.558594 10.558594 17.59375 10.546875 17.636719 C 10.535156 17.679688 10.515625 17.726562 10.484375 17.78125 Z M 10.433594 18.382812 C 10.535156 18.390625 10.582031 18.445312 10.574219 18.550781 C 10.507812 18.554688 10.46875 18.542969 10.457031 18.511719 C 10.441406 18.480469 10.433594 18.4375 10.433594 18.382812 Z M 9.195312 20.320312 C 9.199219 20.328125 9.195312 20.335938 9.183594 20.339844 C 9.183594 20.339844 9.1875 20.332031 9.195312 20.320312 Z M 8.6875 22.101562 C 8.734375 22.203125 8.738281 22.285156 8.699219 22.351562 C 8.660156 22.417969 8.605469 22.488281 8.535156 22.5625 C 8.558594 22.476562 8.582031 22.398438 8.609375 22.324219 C 8.636719 22.25 8.660156 22.175781 8.6875 22.101562 Z M 8.125 22.851562 C 8.082031 22.773438 8.066406 22.714844 8.074219 22.679688 C 8.082031 22.644531 8.128906 22.558594 8.21875 22.425781 C 8.277344 22.523438 8.285156 22.601562 8.242188 22.664062 C 8.203125 22.722656 8.164062 22.785156 8.125 22.851562 Z M 7.992188 22.179688 C 7.820312 22.199219 7.765625 22.121094 7.835938 21.949219 C 7.851562 21.875 7.878906 21.808594 7.917969 21.742188 C 7.964844 21.617188 8 21.546875 8.03125 21.535156 C 8.0625 21.519531 8.15625 21.539062 8.3125 21.589844 C 8.3125 21.679688 8.296875 21.761719 8.265625 21.839844 C 8.234375 21.914062 8.191406 21.996094 8.136719 22.089844 C 8.113281 22.128906 8.0625 22.160156 7.992188 22.179688 Z M 7.992188 22.179688 "/>
</g>
</svg>
