<?xml version="1.0" standalone="no"?>
<!DOCTYPE svg PUBLIC "-//W3C//DTD SVG 20010904//EN"
 "http://www.w3.org/TR/2001/REC-SVG-20010904/DTD/svg10.dtd">
<svg version="1.0" xmlns="http://www.w3.org/2000/svg"
 width="24.000000pt" height="24.000000pt" viewBox="0 0 24.000000 24.000000"
 preserveAspectRatio="xMidYMid meet">
<metadata>
Created by potrace 1.16, written by Peter Selinger 2001-2019
</metadata>
<g transform="translate(0.000000,24.000000) scale(0.002400,-0.002400)"
fill="#000000" stroke="none">
<path d="M4562 8684 c-1027 -112 -1948 -635 -2568 -1459 -346 -459 -586 -1015
-684 -1580 -68 -400 -68 -880 0 -1280 263 -1526 1479 -2742 3005 -3005 400
-68 880 -68 1280 0 816 141 1581 568 2129 1190 498 565 800 1232 903 1990 26
194 26 736 0 930 -79 581 -279 1119 -590 1585 -617 924 -1594 1513 -2702 1630
-174 18 -601 18 -773 -1z m60 -2478 c61 -29 154 -113 178 -161 8 -17 20 -37
27 -46 22 -26 36 -163 24 -237 -14 -92 -44 -146 -127 -228 -89 -88 -154 -114
-287 -114 -67 0 -87 -3 -87 -14 0 -7 -21 -36 -46 -62 -25 -27 -57 -67 -72 -89
-33 -49 -34 -50 -78 -105 -20 -25 -43 -58 -50 -75 -7 -16 -26 -49 -43 -72 -17
-24 -31 -47 -31 -53 0 -5 -4 -10 -9 -10 -8 0 -47 -58 -91 -138 -8 -15 -32 -49
-53 -76 -20 -27 -37 -54 -37 -61 0 -6 -9 -20 -20 -30 -11 -10 -20 -23 -20 -29
0 -16 42 -116 66 -156 11 -20 24 -49 28 -65 4 -17 18 -41 31 -55 12 -14 26
-36 30 -50 4 -14 18 -39 31 -56 13 -17 20 -34 17 -38 -3 -3 2 -8 11 -12 9 -4
19 -22 22 -45 5 -29 11 -39 25 -39 11 0 19 -7 19 -16 0 -17 44 -100 66 -125 8
-9 20 -34 26 -55 5 -22 25 -60 44 -87 19 -26 34 -50 34 -53 0 -3 16 -25 36
-49 56 -69 18 -89 -66 -34 -25 16 -54 33 -65 38 -30 13 -189 187 -257 281 -18
25 -51 72 -73 105 -22 33 -42 62 -45 65 -11 10 -60 90 -60 97 -1 14 -59 78
-60 65 0 -14 -40 -75 -52 -80 -5 -2 -8 -9 -8 -16 0 -7 -9 -21 -20 -31 -11 -10
-20 -24 -20 -31 0 -7 -11 -38 -25 -68 -14 -30 -25 -58 -25 -61 0 -8 -46 -104
-60 -125 -16 -25 -50 -108 -50 -122 0 -8 -13 -34 -28 -59 -24 -38 -44 -79 -43
-86 1 -2 -9 -20 -21 -40 -12 -21 -25 -58 -29 -83 -15 -83 -20 -103 -31 -124
-11 -21 -13 -159 -2 -208 5 -27 4 -28 -35 -28 -34 0 -44 5 -64 33 -43 56 -52
102 -51 242 1 116 11 183 40 278 5 16 -10 17 -210 17 l-216 0 0 690 0 690 248
-2 247 -3 3 -82 3 -82 -153 -3 -153 -3 -3 -202 -2 -203 135 0 135 0 0 -95 0
-95 -135 0 -135 0 2 -217 3 -218 149 0 150 0 8 35 c17 70 29 90 54 90 19 0 24
-5 24 -24 0 -14 -7 -32 -16 -40 -14 -15 -14 -16 0 -16 21 0 21 -53 1 -70 -8
-7 -15 -9 -15 -4 0 16 -37 -50 -44 -77 -5 -24 -2 -27 25 -31 23 -4 29 -1 24 9
-4 13 10 51 24 63 20 17 31 52 21 65 -15 18 9 70 32 69 10 -1 14 5 11 17 -6
20 -23 26 -23 9 0 -5 -7 -10 -15 -10 -18 0 -18 5 -4 31 8 16 7 20 -3 18 -20
-3 -48 12 -48 25 0 7 9 31 20 54 28 58 43 96 42 104 -1 3 5 12 13 18 8 7 15
18 15 25 0 7 6 18 14 24 8 7 17 24 21 39 13 53 77 174 95 179 11 3 16 11 13
23 -3 10 2 31 11 47 8 17 11 34 7 39 -5 5 -29 47 -54 94 -24 47 -54 101 -65
120 -12 19 -28 50 -36 68 -8 17 -20 32 -27 32 -7 0 -10 3 -6 6 3 3 -8 24 -24
47 -16 22 -29 44 -29 49 0 5 -13 29 -30 53 -16 24 -30 48 -30 53 0 4 -11 19
-25 32 -15 14 -25 35 -25 52 0 23 9 34 47 57 107 67 203 42 278 -74 26 -40 64
-117 65 -130 0 -6 15 -33 33 -60 17 -28 41 -69 52 -92 11 -24 24 -42 28 -40 5
1 16 16 25 32 9 17 23 41 31 55 9 14 14 28 13 33 -1 4 2 7 7 7 5 0 25 34 46
75 20 42 51 92 68 113 18 21 41 55 52 75 11 20 23 37 27 37 5 0 8 6 8 14 0 8
17 36 38 63 20 26 49 66 63 88 15 22 38 52 51 66 l25 27 -28 40 c-15 22 -30
50 -35 63 -4 13 -10 31 -13 39 -7 22 -6 221 1 246 38 127 156 243 280 275 18
4 80 7 138 5 90 -3 114 -8 162 -30z m2138 -6 c67 -34 159 -116 144 -128 -5 -4
-21 -18 -36 -31 l-28 -24 -49 46 c-28 26 -56 47 -63 47 -7 0 -26 8 -43 17 -22
12 -56 16 -125 17 -84 0 -101 -2 -145 -26 -63 -33 -128 -100 -154 -158 -24
-52 -28 -178 -9 -243 16 -54 101 -145 163 -174 41 -19 66 -23 145 -23 111 0
154 16 223 79 50 46 52 47 73 26 8 -8 24 -21 35 -29 20 -14 19 -15 -26 -57
-99 -92 -171 -120 -304 -120 -57 0 -117 6 -146 15 -101 31 -207 127 -258 236
-17 38 -21 65 -21 165 -1 108 1 124 23 165 48 90 95 142 169 186 74 45 117 54
247 51 113 -3 124 -5 185 -37z m-3638 -10 c66 -47 91 -87 96 -151 6 -87 -3
-120 -49 -168 -51 -53 -69 -60 -177 -66 -48 -3 -106 -8 -129 -11 l-43 -5 -2
-172 -3 -172 -47 -3 -48 -3 0 391 0 392 184 -4 c177 -3 185 -4 218 -28z m628
17 c43 -15 90 -46 90 -59 0 -5 9 -17 20 -26 30 -24 39 -144 16 -194 -31 -64
-85 -107 -151 -119 -89 -16 -89 -16 -71 -35 9 -8 16 -21 16 -27 0 -7 14 -28
31 -47 54 -62 73 -87 114 -144 22 -31 43 -56 47 -56 11 0 38 -56 31 -64 -12
-11 -102 -6 -113 7 -5 6 -25 31 -42 53 -18 23 -45 57 -60 75 -15 19 -28 37
-28 41 0 4 -10 18 -22 31 -35 35 -68 76 -68 83 0 17 -44 64 -60 64 -18 0 -20
-10 -22 -177 l-3 -178 -42 -3 -43 -3 0 395 0 396 163 0 c104 0 174 -5 197 -13z
m1610 -304 c-1 -334 -6 -392 -43 -432 -66 -71 -200 -73 -305 -4 l-52 34 26 35
c30 39 36 41 72 16 38 -26 108 -44 141 -37 16 3 35 19 47 38 18 30 19 56 22
350 l3 317 45 0 44 0 0 -317z m670 267 l0 -50 -180 0 -180 0 0 -105 0 -105
175 0 175 0 0 -50 0 -50 -175 0 -175 0 0 -140 0 -140 175 0 175 0 0 -50 0 -50
-225 0 -225 0 0 395 0 395 230 0 230 0 0 -50z m1395 0 l0 -45 -87 -3 -88 -3 0
-344 0 -345 -40 0 -40 0 0 345 0 345 -95 0 -95 0 0 50 0 50 223 -2 222 -3 0
-45z m-2652 -1074 c85 -42 157 -146 172 -249 4 -26 11 -50 16 -53 5 -3 7 -10
3 -15 -3 -5 -2 -15 3 -22 14 -18 18 -102 18 -347 0 -242 -5 -329 -17 -336 -5
-3 -6 -10 -2 -15 3 -5 1 -15 -4 -22 -5 -7 -13 -32 -17 -57 -17 -104 -83 -196
-170 -236 -41 -19 -67 -24 -139 -24 -49 0 -107 5 -129 12 -51 15 -143 99 -167
152 -24 52 -50 151 -50 191 0 17 -6 37 -12 43 -17 17 -19 612 -2 633 7 8 14
32 18 54 23 156 77 243 181 292 44 21 62 23 155 21 78 -2 115 -8 143 -22z
m2622 -2 l40 -19 3 -89 c2 -49 -1 -93 -6 -98 -5 -5 -33 4 -66 22 -119 62 -216
23 -245 -98 -21 -88 10 -149 159 -307 184 -196 201 -227 208 -379 5 -114 -6
-192 -34 -247 -22 -43 -76 -99 -124 -127 -42 -25 -53 -27 -160 -27 -105 0
-119 2 -160 26 l-45 26 -3 102 c-1 57 1 101 5 99 4 -2 36 -18 70 -36 119 -62
224 -32 250 71 10 39 15 107 9 122 -3 8 -6 17 -6 20 0 3 -12 26 -27 52 -28 51
-59 87 -175 208 -115 118 -142 159 -156 230 -8 38 -8 210 -1 250 15 79 88 167
169 205 39 18 60 20 150 17 78 -2 115 -8 145 -23z m-1837 2 c34 -8 81 -26 103
-42 43 -29 109 -103 109 -121 0 -6 6 -16 14 -23 41 -34 86 -296 86 -505 0
-130 -26 -339 -52 -419 -20 -60 -33 -80 -93 -141 -93 -94 -127 -105 -362 -112
l-173 -6 0 692 0 691 153 0 c88 -1 178 -6 215 -14z m714 -538 c3 -529 4 -555
23 -593 38 -75 155 -85 201 -17 18 25 19 60 22 595 l3 568 97 -3 97 -3 3 -530
c2 -584 -3 -666 -53 -745 -31 -48 -84 -85 -147 -101 -69 -17 -244 -8 -288 15
-77 40 -119 98 -139 194 -7 36 -11 237 -11 612 l0 560 94 0 94 0 4 -552z"/>
<path d="M4365 6141 c-95 -26 -195 -103 -195 -150 0 -10 -7 -24 -15 -31 -9 -7
-13 -15 -10 -18 3 -3 -1 -12 -8 -20 -17 -21 -16 -164 2 -185 7 -10 10 -17 7
-17 -4 0 5 -17 19 -37 14 -21 25 -42 25 -48 0 -20 52 -58 129 -96 39 -19 57
-21 140 -17 76 4 104 10 136 28 87 51 126 104 151 208 16 66 16 74 -1 145 -15
64 -25 83 -68 132 -65 73 -125 103 -214 109 -37 3 -81 1 -98 -3z"/>
<path d="M3517 4496 c-30 -24 -35 -53 -12 -62 8 -4 15 -11 15 -18 0 -6 -27
-67 -60 -134 -33 -68 -60 -127 -60 -131 0 -4 -9 -16 -20 -26 -15 -14 -20 -15
-20 -4 -1 10 -4 9 -11 -4 -10 -18 -5 -37 11 -37 5 0 16 13 24 29 9 17 23 28
33 27 14 -1 17 5 15 26 -2 23 2 29 25 34 41 10 44 13 30 36 -9 16 -9 22 1 25
6 3 12 11 12 19 0 8 9 14 19 14 11 0 23 9 26 22 4 11 20 43 36 70 l29 49 -33
43 -33 43 -27 -21z"/>
<path d="M2820 6000 l0 -120 49 0 c28 0 53 5 56 10 3 6 31 10 61 10 65 0 101
20 120 66 14 32 10 81 -8 116 -13 26 -72 38 -180 38 l-98 0 0 -120z"/>
<path d="M3480 6000 l0 -120 54 0 c30 0 58 5 61 10 3 6 29 10 56 10 57 0 99
18 121 52 16 25 15 96 -2 128 -15 28 -71 40 -187 40 l-103 0 0 -120z"/>
<path d="M4571 4927 c-76 -39 -93 -129 -94 -497 0 -372 18 -473 96 -517 65
-36 142 8 174 100 16 46 18 89 18 402 0 309 -2 357 -18 407 -32 102 -102 143
-176 105z"/>
<path d="M5400 4426 l0 -516 33 0 c37 0 99 30 140 68 33 31 71 148 68 208 -1
23 2 45 8 49 15 9 15 331 0 340 -6 4 -9 28 -8 54 1 25 -3 57 -8 71 -6 14 -13
43 -17 64 -17 89 -86 158 -174 172 l-42 7 0 -517z"/>
</g>
</svg>
